<?xml version="1.0" encoding="UTF-8" standalone="no"?>
<svg
   width="16"
   height="16"
   viewBox="0 0 16 16"
   fill="none"
   version="1.1"
   id="svg4"
   sodipodi:docname="lightbulb-small.svg"
   inkscape:version="1.2.2 (b0a8486541, 2022-12-01)"
   xmlns:inkscape="http://www.inkscape.org/namespaces/inkscape"
   xmlns:sodipodi="http://sodipodi.sourceforge.net/DTD/sodipodi-0.dtd"
   xmlns="http://www.w3.org/2000/svg"
   xmlns:svg="http://www.w3.org/2000/svg">
  <defs
     id="defs8" />
  <sodipodi:namedview
     id="namedview6"
     pagecolor="#ffffff"
     bordercolor="#000000"
     borderopacity="0.25"
     inkscape:showpageshadow="2"
     inkscape:pageopacity="0.0"
     inkscape:pagecheckerboard="0"
     inkscape:deskcolor="#d1d1d1"
     showgrid="false"
     inkscape:zoom="26.59375"
     inkscape:cx="-2.519389"
     inkscape:cy="12.653349"
     inkscape:window-width="1920"
     inkscape:window-height="1034"
     inkscape:window-x="0"
     inkscape:window-y="20"
     inkscape:window-maximized="1"
     inkscape:current-layer="svg4" />
  <path
     fill-rule="evenodd"
     clip-rule="evenodd"
     d="M 10.44329,8.4913774 C 10.169644,8.7607748 9.9593212,9.0605736 9.8115949,9.3908719 9.6677454,9.7199892 9.5954571,10.077554 9.5954571,10.464439 v 1.292548 c 0,0.144981 -0.027382,0.281966 -0.082548,0.410226 -0.054519,0.126808 -0.1293921,0.238027 -0.2246997,0.33293 -0.095227,0.09491 -0.2067769,0.169455 -0.3339236,0.223812 -0.1285603,0.05485 -0.2658678,0.08207 -0.4111069,0.08207 H 7.2458823 c -0.1452472,0 -0.2825547,-0.02722 -0.4111149,-0.08207 -0.1271387,-0.05436 -0.238689,-0.128909 -0.3339401,-0.223812 -0.095251,-0.0949 -0.1701481,-0.206122 -0.2246916,-0.33293 -0.055165,-0.12826 -0.082506,-0.265245 -0.082506,-0.410226 v -1.292548 c 0,-0.386804 -0.073944,-0.744208 -0.2210975,-1.0732697 C 5.8281982,9.0610423 5.6194018,8.7607424 5.3457641,8.4913774 4.9945474,8.1448537 4.7233893,7.7579695 4.533291,7.3309512 4.3426355,6.9026566 4.2476833,6.438759 4.2476833,5.9402599 c 0,-0.3334876 0.043148,-0.6554496 0.1296264,-0.9656435 C 4.4635631,4.665206 4.5861626,4.3760281 4.7451808,4.1073254 4.9039972,3.8356099 5.0939661,3.5895387 5.3150233,3.3692812 5.5359834,3.1491207 5.7811581,2.9598786 6.0504102,2.80166 6.3232807,2.6433524 6.6154064,2.5210356 6.9258103,2.4351215 7.2369977,2.3489973 7.5599854,2.3060281 7.8945312,2.3060281 c 0.3345457,0 0.6575255,0.042969 0.9687127,0.1290934 0.3104363,0.085914 0.600559,0.208029 0.8701666,0.3664334 0.2725965,0.1582026 0.5195875,0.3474607 0.7406525,0.5677263 0.221065,0.2202494 0.410953,0.4663207 0.569825,0.7380281 0.159035,0.268711 0.281643,0.5578886 0.367824,0.8673071 0.08651,0.3101939 0.129634,0.6321559 0.129634,0.9656435 0,0.4984991 -0.09491,0.9623967 -0.285599,1.3906913 -0.19005,0.4270183 -0.461272,0.8139025 -0.812457,1.1604262 z M 8.7882256,9.9790969 H 7.0008369 v 1.7778901 c 0,0.06551 0.023043,0.121154 0.072869,0.170826 0.049834,0.0496 0.105953,0.07277 0.1721756,0.07277 h 1.2972978 c 0.066213,0 0.122341,-0.02318 0.1721755,-0.07277 0.049818,-0.04967 0.07287,-0.105322 0.07287,-0.170826 z"
     fill="#ddb100"
     id="path2"
     style="stroke-width:0.807691" />
</svg>
