<?xml version="1.0" encoding="UTF-8" standalone="no"?>
<svg
   width="16"
   height="16"
   viewBox="0 0 16 16"
   fill="none"
   version="1.1"
   id="svg6"
   sodipodi:docname="lightbulb-autofix.svg"
   inkscape:version="1.2.2 (b0a8486541, 2022-12-01)"
   xmlns:inkscape="http://www.inkscape.org/namespaces/inkscape"
   xmlns:sodipodi="http://sodipodi.sourceforge.net/DTD/sodipodi-0.dtd"
   xmlns="http://www.w3.org/2000/svg"
   xmlns:svg="http://www.w3.org/2000/svg">
  <defs
     id="defs10" />
  <sodipodi:namedview
     id="namedview8"
     pagecolor="#ffffff"
     bordercolor="#000000"
     borderopacity="0.25"
     inkscape:showpageshadow="2"
     inkscape:pageopacity="0.0"
     inkscape:pagecheckerboard="0"
     inkscape:deskcolor="#d1d1d1"
     showgrid="false"
     inkscape:zoom="37.609242"
     inkscape:cx="6.5409454"
     inkscape:cy="9.3195178"
     inkscape:window-width="1920"
     inkscape:window-height="1034"
     inkscape:window-x="0"
     inkscape:window-y="20"
     inkscape:window-maximized="1"
     inkscape:current-layer="svg6" />
  <path
     d="m 11.157194,8.9285671 c -0.551014,0 -1.089585,0.1634007 -1.547742,0.4695041 C 9.1513507,9.7041654 8.7943616,10.139238 8.5835202,10.648188 8.372679,11.15723 8.3174568,11.717437 8.424939,12.257773 c 0.1074915,0.540428 0.3728119,1.036749 0.762403,1.426284 0.38961,0.389628 0.885931,0.654921 1.426267,0.76245 0.540428,0.107434 1.100542,0.05228 1.609584,-0.1586 0.509043,-0.210879 0.944078,-0.567821 1.250135,-1.025977 0.30615,-0.458065 0.469578,-0.996729 0.469578,-1.54765 0,-0.738772 -0.293521,-1.447364 -0.815935,-1.9698146 C 12.604557,9.222042 11.895964,8.9285671 11.157194,8.9285671 Z m 1.216427,4.6428549 -1.216427,-0.928571 -1.207235,0.928571 0.464285,-1.420714 -1.114192,-0.770714 h 1.364907 l 0.492235,-1.5228556 0.501428,1.5228556 h 1.355714 l -1.114285,0.770714 z"
     fill="#007acc"
     id="path2"
     style="stroke-width:0.92857" />
  <path
     fill-rule="evenodd"
     clip-rule="evenodd"
     d="M 10.387222,8.0786834 C 9.161472,8.3334553 8.1642426,9.1856327 7.7093265,10.321423 H 5.9651918 v 2.043971 c 0,0.0753 0.026492,0.139286 0.083775,0.196392 0.057293,0.05702 0.12181,0.08367 0.1979435,0.08367 h 1.3118942 c 0.082438,0.323607 0.2069413,0.629664 0.3674541,0.912135 -0.061258,0.0093 -0.1239086,0.01384 -0.1878963,0.01384 H 6.2469109 c -0.1669849,0 -0.3248419,-0.0313 -0.4726426,-0.09435 C 5.6281019,13.414586 5.499857,13.32888 5.3903507,13.219772 5.2808443,13.110665 5.1947379,12.982801 5.1320315,12.837015 5.0686101,12.689558 5.0371781,12.532073 5.0371781,12.365394 v -1.485993 c 0,-0.444692 -0.08501,-0.855585 -0.2541871,-1.2338936 C 4.6170553,9.2659727 4.3770106,8.9207301 4.06242,8.6110517 3.6586402,8.2126669 3.3469005,7.7678815 3.1283519,7.2769552 2.9091628,6.784562 2.8,6.2512373 2.8,5.6781326 2.8,5.294735 2.8496047,4.9245881 2.9490264,4.5679703 3.0481884,4.2122534 3.1891362,3.8797973 3.3719533,3.5708802 3.5545382,3.2584997 3.7729381,2.9756012 4.0270786,2.72238 4.2811077,2.4692701 4.5629754,2.251706 4.8725239,2.0698083 5.1862322,1.8878083 5.5220777,1.7471856 5.8789368,1.6484135 6.2366966,1.5494005 6.6080228,1.5 6.9926369,1.5 c 0.384614,0 0.7559309,0.0494 1.1136908,0.1484135 0.3568683,0.098772 0.6904204,0.2391627 1.000368,0.421274 C 9.420116,2.2515667 9.704073,2.4691494 9.958223,2.72238 c 0.25415,0.253212 0.472457,0.5361104 0.655107,0.8484817 0.182835,0.3089262 0.323792,0.6413825 0.422871,0.9971086 0.09945,0.3566178 0.149036,0.7267647 0.149036,1.1101623 0,0.5731047 -0.109108,1.1064294 -0.328343,1.5988226 -0.125729,0.2825456 -0.282379,0.5498069 -0.469672,0.8017282 z"
     fill="#007acc"
     id="path4"
     style="stroke-width:0.92857" />
</svg>
