<?xml version="1.0" encoding="UTF-8" standalone="no"?>
<svg
   width="16"
   height="16"
   viewBox="0 0 16 16"
   fill="none"
   version="1.1"
   id="svg4"
   sodipodi:docname="lightbulb.svg"
   inkscape:version="1.2.2 (b0a8486541, 2022-12-01)"
   xmlns:inkscape="http://www.inkscape.org/namespaces/inkscape"
   xmlns:sodipodi="http://sodipodi.sourceforge.net/DTD/sodipodi-0.dtd"
   xmlns="http://www.w3.org/2000/svg"
   xmlns:svg="http://www.w3.org/2000/svg">
  <defs
     id="defs8" />
  <sodipodi:namedview
     id="namedview6"
     pagecolor="#ffffff"
     bordercolor="#000000"
     borderopacity="0.25"
     inkscape:showpageshadow="2"
     inkscape:pageopacity="0.0"
     inkscape:pagecheckerboard="0"
     inkscape:deskcolor="#d1d1d1"
     showgrid="false"
     inkscape:zoom="37.609242"
     inkscape:cx="2.9779914"
     inkscape:cy="8.3623063"
     inkscape:window-width="1920"
     inkscape:window-height="1034"
     inkscape:window-x="0"
     inkscape:window-y="20"
     inkscape:window-maximized="1"
     inkscape:current-layer="svg4" />
  <path
     fill-rule="evenodd"
     clip-rule="evenodd"
     d="m 10.816702,9.2529785 c -0.312739,0.307883 -0.553108,0.6505109 -0.721939,1.0279935 -0.1644,0.376135 -0.247015,0.784781 -0.247015,1.226936 v 1.4772 c 0,0.165692 -0.03129,0.322246 -0.09434,0.46883 -0.062308,0.144924 -0.1478767,0.272031 -0.2567998,0.380493 -0.1088297,0.108461 -0.2363159,0.193661 -0.3816267,0.255784 -0.1469261,0.06268 -0.3038492,0.09379 -0.4698369,0.09379 H 7.1625169 c -0.1659969,0 -0.32292,-0.03111 -0.4698461,-0.09379 C 6.5473692,14.028092 6.4198831,13.942892 6.3110246,13.834431 6.2021662,13.725969 6.1165692,13.598862 6.0542338,13.453938 5.9911877,13.307354 5.9599415,13.1508 5.9599415,12.985108 v -1.4772 c 0,-0.442062 -0.084508,-0.850524 -0.252683,-1.226595 C 5.5423046,9.9040244 5.30368,9.5608246 4.9909508,9.2529785 4.58956,8.8569508 4.2796646,8.4147969 4.0624092,7.9267754 3.8445169,7.4372954 3.736,6.9071262 3.736,6.3374123 3.736,5.9562831 3.785311,5.5883262 3.8841446,5.2338185 3.98272,4.8802062 4.1228338,4.5497169 4.3045692,4.2426277 4.4860738,3.9320954 4.7031815,3.6508708 4.9558185,3.3991477 5.2083446,3.1475354 5.4885446,2.9312585 5.7962615,2.7504369 6.1081138,2.5695138 6.4419723,2.4297231 6.79672,2.3315354 7.1523631,2.2331077 7.5214923,2.184 7.9038308,2.184 c 0.3823384,0 0.7514584,0.049108 1.1071015,0.1475354 0.3547846,0.098188 0.6863539,0.2377477 0.9944767,0.4187815 0.311539,0.1808031 0.593816,0.3970985 0.846462,0.6488308 0.252646,0.2517138 0.469661,0.5329385 0.651231,0.8434615 0.181753,0.3070985 0.321876,0.6375877 0.420369,0.9912093 0.09886,0.3545077 0.148154,0.7224646 0.148154,1.1035938 0,0.5697139 -0.108462,1.0998831 -0.3264,1.5893631 -0.2172,0.4880215 -0.52717,0.9301754 -0.928523,1.3262031 z M 8.9251969,10.95323 H 6.8824646 v 2.031878 c 0,0.07486 0.026335,0.138461 0.08328,0.19523 0.056954,0.05668 0.1210892,0.08317 0.1967723,0.08317 h 1.4826277 c 0.075674,0 0.1398185,-0.02649 0.1967723,-0.08317 0.056935,-0.05677 0.08328,-0.120369 0.08328,-0.19523 z"
     fill="#ddb100"
     id="path2"
     style="stroke-width:0.923077" />
</svg>
