<?xml version="1.0" encoding="UTF-8" standalone="no"?>
<svg
   width="16"
   height="16"
   viewBox="0 0 16 16"
   fill="none"
   version="1.1"
   id="svg4"
   sodipodi:docname="wrench.svg"
   inkscape:version="1.2.2 (b0a8486541, 2022-12-01)"
   xmlns:inkscape="http://www.inkscape.org/namespaces/inkscape"
   xmlns:sodipodi="http://sodipodi.sourceforge.net/DTD/sodipodi-0.dtd"
   xmlns="http://www.w3.org/2000/svg"
   xmlns:svg="http://www.w3.org/2000/svg">
  <defs
     id="defs8" />
  <sodipodi:namedview
     id="namedview6"
     pagecolor="#ffffff"
     bordercolor="#000000"
     borderopacity="0.25"
     inkscape:showpageshadow="2"
     inkscape:pageopacity="0.0"
     inkscape:pagecheckerboard="0"
     inkscape:deskcolor="#d1d1d1"
     showgrid="false"
     inkscape:zoom="53.1875"
     inkscape:cx="6.9565217"
     inkscape:cy="8.0188014"
     inkscape:window-width="1920"
     inkscape:window-height="1034"
     inkscape:window-x="0"
     inkscape:window-y="20"
     inkscape:window-maximized="1"
     inkscape:current-layer="svg4" />
  <path
     d="M 4.0617593,13.262933 C 3.8844252,13.260454 3.7094203,13.222136 3.5472854,13.150235 3.385158,13.078334 3.2392592,12.974351 3.1183718,12.844598 2.8831485,12.630322 2.7372647,12.335353 2.7097739,12.018371 2.6785783,11.690721 2.773591,11.363521 2.9754331,11.103564 3.8818708,10.147584 5.6696444,8.3598185 6.9700367,7.086624 6.693333,6.3383693 6.7062708,5.5137204 7.0062879,4.7745116 7.2530064,4.1594584 7.6917322,3.6405142 8.2571757,3.2949219 8.7007701,3.0011483 9.2106159,2.8226196 9.7405595,2.7755043 10.27054,2.7283903 10.803903,2.8141673 11.292336,3.0250853 L 11.75605,3.2258982 9.6029177,5.443179 10.545599,6.3886702 12.75726,4.2271599 12.958087,4.6922345 c 0.169348,0.392099 0.259131,0.8139126 0.264089,1.240978 0.005,0.4270578 -0.07476,0.8508699 -0.234787,1.2468457 C 12.828785,7.5716011 12.593096,7.9272685 12.294296,8.2259483 12.125024,8.3915919 11.93802,8.5379791 11.736516,8.6624352 11.319609,8.9408519 10.842596,9.1163678 10.344621,9.17455 9.8466459,9.2327322 9.3420293,9.1719204 8.8721613,8.9971183 8.047302,9.8338334 5.9882943,11.9068 4.8761602,12.944975 4.6530708,13.147606 4.3631063,13.260829 4.0617593,13.262933 Z M 10.02546,3.4601748 C 9.5312418,3.4589351 9.0477898,3.6045485 8.6364872,3.8785324 8.4760803,3.9764669 8.3271086,4.0919974 8.1923293,4.222975 7.833882,4.5843074 7.5944889,5.0465947 7.5062538,5.5478454 7.4180188,6.0490961 7.4851568,6.5653506 7.6986669,7.0273599 L 7.8004708,7.2504794 7.6254583,7.4213071 C 6.3194912,8.695899 4.4180654,10.591765 3.5039568,11.55676 c -0.081398,0.121188 -0.1162067,0.267696 -0.09801,0.412475 0.018197,0.144855 0.088175,0.278214 0.1970186,0.375435 0.062713,0.06987 0.139137,0.126146 0.224517,0.165215 0.075252,0.03403 0.1565976,0.05252 0.2391602,0.0544 0.1254104,-0.0032 0.2454638,-0.05147 0.3381692,-0.135918 C 5.5866686,11.325278 7.8701933,9.0187338 8.5402656,8.340998 L 8.7124832,8.1673754 8.9342128,8.2684805 c 0.3859982,0.1799337 0.8119816,0.2569665 1.2365522,0.2236079 0.424571,-0.033351 0.833289,-0.1759591 1.18641,-0.4139623 0.160782,-0.099077 0.309769,-0.2160271 0.44418,-0.3486275 0.232759,-0.2320978 0.416682,-0.5084259 0.540951,-0.8127105 0.124343,-0.3042771 0.186477,-0.6303575 0.182796,-0.95903 7.5e-5,-0.1620297 -0.01608,-0.3236687 -0.04808,-0.4825053 L 10.540715,7.3648303 8.6239326,5.4508499 10.513517,3.5054944 c -0.160782,-0.031255 -0.324269,-0.046439 -0.488057,-0.04532 z"
     fill="#424242"
     id="path2"
     style="stroke-width:0.75132" />
</svg>
