<?xml version="1.0" encoding="UTF-8" standalone="no"?>
<!-- Uploaded to: SVG Repo, www.svgrepo.com, Generator: SVG Repo Mixer Tools -->

<svg
   fill="#000000"
   version="1.1"
   id="Capa_1"
   width="800px"
   height="800px"
   viewBox="0 0 389 389"
   xml:space="preserve"
   sodipodi:docname="square-dotted.svg"
   inkscape:version="1.2.2 (b0a8486541, 2022-12-01)"
   xmlns:inkscape="http://www.inkscape.org/namespaces/inkscape"
   xmlns:sodipodi="http://sodipodi.sourceforge.net/DTD/sodipodi-0.dtd"
   xmlns="http://www.w3.org/2000/svg"
   xmlns:svg="http://www.w3.org/2000/svg"><defs
   id="defs35" /><sodipodi:namedview
   id="namedview33"
   pagecolor="#ffffff"
   bordercolor="#000000"
   borderopacity="0.25"
   inkscape:showpageshadow="2"
   inkscape:pageopacity="0.0"
   inkscape:pagecheckerboard="0"
   inkscape:deskcolor="#d1d1d1"
   showgrid="false"
   inkscape:zoom="0.5"
   inkscape:cx="207"
   inkscape:cy="400"
   inkscape:window-width="1920"
   inkscape:window-height="1154"
   inkscape:window-x="0"
   inkscape:window-y="20"
   inkscape:window-maximized="1"
   inkscape:current-layer="g28" />
<g
   id="g30"
   transform="matrix(0.71818077,0,0,0.73377201,56.422915,56.157422)"
   style="fill:#b3b3b3">
	<g
   id="g28"
   style="fill:#b3b3b3">
		<g
   id="g26"
   style="fill:#b3b3b3;stroke-width:0.637645;stroke-dasharray:none"
   transform="matrix(0.88765952,0,0,0.86879847,19.797683,25.132804)">
			<path
   d="m 379,326.035 h -18.852 c -5.522,0 -10,4.477 -10,10 v 14.111 h -14.113 c -5.522,0 -10,4.477 -10,10 V 379 c 0,5.523 4.478,10 10,10 H 379 c 5.522,0 10,-4.477 10,-10 v -42.965 c 0,-5.523 -4.478,-10 -10,-10 z"
   id="path2"
   style="fill:#b3b3b3;stroke-width:0.637645;stroke-dasharray:none" />
			<path
   d="m 166.927,350.146 h -58.813 c -5.522,0 -10,4.477 -10,10 V 379 c 0,5.523 4.478,10 10,10 h 58.813 c 5.522,0 10,-4.477 10,-10 v -18.854 c 0,-5.523 -4.478,-10 -10,-10 z"
   id="path4"
   style="fill:#b3b3b3;stroke-width:0.637645;stroke-dasharray:none" />
			<path
   d="m 280.887,350.146 h -58.812 c -5.523,0 -10,4.477 -10,10 V 379 c 0,5.523 4.477,10 10,10 h 58.812 c 5.522,0 10,-4.477 10,-10 v -18.854 c 0,-5.523 -4.478,-10 -10,-10 z"
   id="path6"
   style="fill:#b3b3b3;stroke-width:0.637645;stroke-dasharray:none" />
			<path
   d="M 52.965,350.146 H 38.852 v -14.111 c 0,-5.523 -4.478,-10 -10,-10 H 10 c -5.522,0 -10,4.477 -10,10 V 379 c 0,5.523 4.478,10 10,10 h 42.965 c 5.521,0 10,-4.477 10,-10 v -18.854 c 0,-5.523 -4.479,-10 -10,-10 z"
   id="path8"
   style="fill:#b3b3b3;stroke-width:0.637645;stroke-dasharray:none" />
			<path
   d="m 10,290.886 h 18.852 c 5.522,0 10,-4.477 10,-10 v -58.812 c 0,-5.523 -4.478,-10 -10,-10 H 10 c -5.522,0 -10,4.477 -10,10 v 58.812 c 0,5.523 4.478,10 10,10 z"
   id="path10"
   style="fill:#b3b3b3;stroke-width:0.637645;stroke-dasharray:none" />
			<path
   d="m 10,176.926 h 18.852 c 5.522,0 10,-4.477 10,-10 v -58.812 c 0,-5.523 -4.478,-10 -10,-10 H 10 c -5.522,0 -10,4.477 -10,10 v 58.812 c 0,5.523 4.478,10 10,10 z"
   id="path12"
   style="fill:#b3b3b3;stroke-width:0.637645;stroke-dasharray:none" />
			<path
   d="M 52.965,0 H 10 C 4.478,0 0,4.477 0,10 v 42.967 c 0,5.523 4.478,10 10,10 h 18.852 c 5.522,0 10,-4.477 10,-10 V 38.854 h 14.113 c 5.521,0 10,-4.477 10,-10 V 10 c 0,-5.522 -4.479,-10 -10,-10 z"
   id="path14"
   style="fill:#b3b3b3;stroke-width:0.637645;stroke-dasharray:none" />
			<path
   d="m 280.887,0 h -58.812 c -5.522,0 -10,4.477 -10,10 v 18.854 c 0,5.523 4.478,10 10,10 h 58.812 c 5.522,0 10,-4.477 10,-10 V 10 c 0,-5.522 -4.478,-10 -10,-10 z"
   id="path16"
   style="fill:#b3b3b3;stroke-width:0.637645;stroke-dasharray:none" />
			<path
   d="m 108.113,38.854 h 58.813 c 5.522,0 10,-4.477 10,-10 V 10 c 0,-5.523 -4.478,-10 -10,-10 h -58.813 c -5.522,0 -10,4.477 -10,10 v 18.854 c 0,5.523 4.478,10 10,10 z"
   id="path18"
   style="fill:#b3b3b3;stroke-width:0.637645;stroke-dasharray:none" />
			<path
   d="m 379,0 h -42.965 c -5.522,0 -10,4.477 -10,10 v 18.854 c 0,5.523 4.478,10 10,10 h 14.113 v 14.113 c 0,5.523 4.478,10 10,10 H 379 c 5.522,0 10,-4.477 10,-10 V 10 C 389,4.478 384.522,0 379,0 Z"
   id="path20"
   style="fill:#b3b3b3;stroke-width:0.637645;stroke-dasharray:none" />
			<path
   d="m 379,212.074 h -18.852 c -5.522,0 -10,4.477 -10,10 v 58.812 c 0,5.522 4.478,10 10,10 H 379 c 5.522,0 10,-4.478 10,-10 v -58.812 c 0,-5.523 -4.478,-10 -10,-10 z"
   id="path22"
   style="fill:#b3b3b3;stroke-width:0.637645;stroke-dasharray:none" />
			<path
   d="m 379,98.114 h -18.852 c -5.522,0 -10,4.477 -10,10 v 58.812 c 0,5.523 4.478,10 10,10 H 379 c 5.522,0 10,-4.477 10,-10 v -58.812 c 0,-5.523 -4.478,-10 -10,-10 z"
   id="path24"
   style="fill:#b3b3b3;stroke-width:0.637645;stroke-dasharray:none" />
		</g>
	</g>
</g>
</svg>
