<?xml version="1.0" encoding="UTF-8" standalone="no"?>
<svg
   width="16"
   height="16"
   viewBox="0 0 16 16"
   fill="none"
   version="1.1"
   id="svg4"
   sodipodi:docname="wrench.svg"
   inkscape:version="1.2.2 (b0a8486541, 2022-12-01)"
   xmlns:inkscape="http://www.inkscape.org/namespaces/inkscape"
   xmlns:sodipodi="http://sodipodi.sourceforge.net/DTD/sodipodi-0.dtd"
   xmlns="http://www.w3.org/2000/svg"
   xmlns:svg="http://www.w3.org/2000/svg">
  <defs
     id="defs8" />
  <sodipodi:namedview
     id="namedview6"
     pagecolor="#ffffff"
     bordercolor="#000000"
     borderopacity="0.25"
     inkscape:showpageshadow="2"
     inkscape:pageopacity="0.0"
     inkscape:pagecheckerboard="0"
     inkscape:deskcolor="#d1d1d1"
     showgrid="false"
     inkscape:zoom="53.1875"
     inkscape:cx="5.9036428"
     inkscape:cy="8.0376028"
     inkscape:window-width="1920"
     inkscape:window-height="1034"
     inkscape:window-x="0"
     inkscape:window-y="20"
     inkscape:window-maximized="1"
     inkscape:current-layer="svg4" />
  <path
     d="m 3.7872525,13.899862 c -0.1938903,-0.0027 -0.3852257,-0.04468 -0.562482,-0.123431 -0.1772646,-0.07875 -0.3367778,-0.192634 -0.468946,-0.334745 -0.257173,-0.234683 -0.41667,-0.557745 -0.4467179,-0.904915 -0.03411,-0.358856 0.069772,-0.717219 0.290441,-1.001933 C 3.5905695,10.487813 5.545169,8.529784 6.9669073,7.1353329 6.6643912,6.3158159 6.6785282,5.4126291 7.0065496,4.6030194 7.2762823,3.9293897 7.7559561,3.3610223 8.3741638,2.9825164 8.8591442,2.6607644 9.4165743,2.465233 9.9960027,2.4136306 10.575438,2.3620296 11.15849,2.4559756 11.692583,2.6869811 l 0.506905,0.2199379 -2.3540535,2.4284504 1.0306475,1.0355379 2.418122,-2.3673682 0.21957,0.5093672 c 0.185069,0.4294419 0.283228,0.8914282 0.288733,1.3591665 0.0054,0.46773 -0.08174,0.931905 -0.256697,1.3655928 -0.173485,0.4288328 -0.431168,0.8183733 -0.75777,1.1454987 -0.185067,0.1814192 -0.389603,0.341748 -0.60991,0.478057 -0.455812,0.3049326 -0.977337,0.4971643 -1.521698,0.5608877 -0.544444,0.063723 -1.0961897,-0.00288 -1.6099033,-0.19433 -0.9018311,0.916402 -3.152975,3.186795 -4.3688796,4.323844 -0.243907,0.221929 -0.5609295,0.345935 -0.8903966,0.348239 z M 10.307406,3.1635077 C 9.7670693,3.1621499 9.2385541,3.3216313 8.7888626,3.6217089 8.6134957,3.7289705 8.4506226,3.855504 8.3032664,3.9989555 7.9113706,4.3947005 7.6496386,4.9010151 7.5531699,5.4500041 7.4567011,5.9989928 7.5301041,6.5644145 7.7635379,7.0704247 L 7.8748415,7.3147936 7.6834978,7.5018907 C 6.2556563,8.8978723 4.176799,10.974297 3.1773905,12.031197 3.0884045,12.163926 3.05034,12.324388 3.0702433,12.482955 c 0.019895,0.158651 0.096403,0.304711 0.2153951,0.411191 0.068573,0.07653 0.1521288,0.13816 0.245476,0.18095 0.082274,0.03727 0.1712024,0.05753 0.2614775,0.05958 0.1371047,-0.0035 0.2683692,-0.05637 0.3697254,-0.148859 1.2921415,-1.20815 3.7887532,-3.7343658 4.521345,-4.4766479 L 8.8719584,8.31901 9.1143786,8.4297441 c 0.4220094,0.1970703 0.8877024,0.2814396 1.3518914,0.244904 0.464191,-0.036528 0.911048,-0.1927171 1.297202,-0.4533874 0.175704,-0.1085127 0.338594,-0.236601 0.485548,-0.38183 0.254478,-0.2542024 0.455564,-0.5568474 0.59151,-0.8901115 0.135866,-0.3332559 0.203797,-0.6903915 0.199854,-1.0503662 0,-0.1774611 -0.01758,-0.3544944 -0.05266,-0.5284582 L 10.870743,7.440035 8.7751447,5.3437709 10.841006,3.2131434 c -0.175783,-0.034231 -0.354528,-0.050861 -0.5336,-0.049636 z"
     fill="#c5c5c5"
     id="path2"
     style="stroke-width:0.822151" />
</svg>
