<?xml version="1.0" encoding="UTF-8" standalone="no"?>
<svg
   version="1.1"
   id="Layer_1"
   x="0px"
   y="0px"
   width="100%"
   viewBox="0 0 128 128"
   enable-background="new 0 0 128 128"
   xml:space="preserve"
   sodipodi:docname="file_scallop.svg"
   inkscape:version="1.2.2 (b0a8486541, 2022-12-01)"
   xmlns:inkscape="http://www.inkscape.org/namespaces/inkscape"
   xmlns:sodipodi="http://sodipodi.sourceforge.net/DTD/sodipodi-0.dtd"
   xmlns="http://www.w3.org/2000/svg"
   xmlns:svg="http://www.w3.org/2000/svg"><defs
   id="defs219" /><sodipodi:namedview
   id="namedview217"
   pagecolor="#ffffff"
   bordercolor="#000000"
   borderopacity="0.25"
   inkscape:showpageshadow="2"
   inkscape:pageopacity="0.0"
   inkscape:pagecheckerboard="0"
   inkscape:deskcolor="#d1d1d1"
   showgrid="false"
   inkscape:zoom="1.84375"
   inkscape:cx="-23.59322"
   inkscape:cy="64"
   inkscape:window-width="1920"
   inkscape:window-height="1154"
   inkscape:window-x="0"
   inkscape:window-y="20"
   inkscape:window-maximized="1"
   inkscape:current-layer="Layer_1" />
<path
   fill="#FFFFFF"
   opacity="1.000000"
   stroke="none"
   d=" M1.000000,53.000000   C1.000000,35.333332 1.000000,18.166666 1.000000,1.000000   C43.666668,1.000000 86.333336,1.000000 129.000000,1.000000   C129.000000,43.666668 129.000000,86.333336 129.000000,129.000000   C86.333336,129.000000 43.666668,129.000000 1.000000,129.000000   C1.000000,103.833336 1.000000,78.666664 1.000000,53.000000  M82.891724,26.152140   C80.949249,23.423660 78.990166,22.470795 76.449844,25.834759   C75.764488,25.461355 75.079140,25.087954 74.149155,24.073866   C71.763695,22.400331 69.378235,20.726797 66.351326,18.692175   C64.927116,18.374796 63.502907,18.057417 61.434620,17.301195   C58.138863,17.420443 54.186272,15.248422 51.609436,19.970945   C51.411411,19.977631 51.213383,19.984314 50.489838,19.787756   C49.989117,19.539648 49.488392,19.291540 48.605007,18.519575   C47.066658,17.707678 45.528313,16.895781 43.410233,15.717530   C41.937317,15.153013 40.464401,14.588497 38.533882,13.527733   C37.014748,13.123864 35.495609,12.719996 33.269974,12.129330   C31.497686,12.035670 29.725399,11.942010 27.126337,11.818234   C25.749020,11.920814 24.371702,12.023393 22.260893,12.094003   C13.683663,14.879495 12.769403,18.764469 19.357527,24.682386   C20.430998,25.646650 21.753622,26.333546 23.276257,27.689774   C24.475376,28.491503 25.674498,29.293234 27.230886,30.663155   C29.476084,32.155449 31.721279,33.647739 34.280361,35.678101   C35.522942,36.444889 36.765522,37.211678 38.375870,38.525040   C39.892048,39.421314 41.408226,40.317589 43.248249,41.722939   C44.106152,42.179611 44.964054,42.636288 46.199554,43.649731   C48.099007,44.793331 49.998459,45.936932 52.263237,47.636555   C53.812744,48.501850 55.362251,49.367146 57.265827,50.749954   C58.511063,51.499130 59.756298,52.248306 61.388107,53.526505   C62.919762,54.367138 64.451416,55.207771 66.309624,56.624775   C67.854988,57.461277 69.400345,58.297779 71.294365,59.690830   C72.835388,60.513332 74.376411,61.335835 76.278839,62.704735   C78.183807,63.810543 80.088768,64.916351 82.358231,66.535973   C83.498314,67.071129 84.638397,67.606285 86.187897,68.688438   C87.750603,69.543335 89.313309,70.398239 91.265442,71.792992   C95.834099,74.441986 99.535461,78.979507 105.831261,78.941277   C105.831261,76.933716 105.831261,75.491013 106.447044,73.958282   C106.828552,73.589783 107.210060,73.221283 107.591568,72.852776   C107.117828,72.563194 106.644081,72.273605 106.090942,71.141823   C104.428719,64.704514 102.766495,58.267200 101.076752,51.089108   C100.378220,49.061913 99.679688,47.034721 98.921700,44.333431   C97.991638,42.860096 97.061577,41.386761 96.001106,39.238621   C94.697083,37.430450 93.393066,35.622280 91.973305,33.172348   C90.642700,31.804615 89.312096,30.436884 87.579086,28.495487   C86.056076,27.952717 84.533073,27.409948 82.891724,26.152140  M103.558884,100.520950   C104.816986,95.628342 106.075081,90.735741 107.676216,85.522713   C107.285400,84.995224 106.894585,84.467728 105.987656,83.476898   C102.973656,84.948532 99.959656,86.420166 96.346703,88.163658   C95.232468,88.782211 94.118225,89.400757 92.389679,90.210930   C91.261292,90.838608 90.132896,91.466278 88.380768,92.296097   C86.918587,93.191628 85.456406,94.087158 83.324997,95.033707   C81.866951,95.976997 80.408905,96.920296 78.301674,97.996552   C77.201607,98.666435 76.101540,99.336319 74.378036,100.066803   C73.575691,100.669510 72.773346,101.272209 71.322823,101.994629   C70.213783,102.703659 69.104752,103.412697 67.369400,104.325188   C65.599541,105.562973 63.829685,106.800751 61.454842,108.231064   C60.648705,108.873840 59.842571,109.516617 58.401268,110.384468   C56.591583,112.652046 54.781895,114.919632 52.972202,117.187210   C54.974304,118.480789 56.976406,119.774368 59.495518,121.539948   C60.654800,121.600739 61.814083,121.661530 63.710148,121.846039   C65.137932,121.528580 66.565720,121.211121 68.689217,120.908791   C69.787796,120.545212 70.886375,120.181633 72.656349,119.661407   C73.767372,119.382256 74.878387,119.103111 76.707809,118.908066   C77.189819,118.909027 77.671829,118.909981 78.177917,119.708519   C80.198181,123.752480 83.151581,122.004005 86.671829,120.977753   C87.801590,120.377441 88.931343,119.777130 90.709412,119.048058   C91.817993,118.057541 92.926575,117.067024 94.717560,115.948730   C96.516830,113.375320 98.316101,110.801910 100.668091,107.773056   C101.456345,105.535545 102.244598,103.298027 103.558884,100.520950  M117.684959,74.268402   C115.263924,72.145081 113.783333,72.963127 112.342430,76.144211   C106.657005,79.911446 106.705139,80.685280 113.243469,86.711243   C114.646774,89.509987 116.285927,88.821182 118.648117,86.741455   C123.496239,81.988426 123.341789,78.982155 117.684959,74.268402  z"
   id="path2"
   style="fill:#ffffff;fill-opacity:0" />
<path
   fill="#8ACBEF"
   opacity="1.000000"
   stroke="none"
   d=" M27.953112,11.848350   C29.725399,11.942010 31.497686,12.035670 33.631020,12.661560   C33.983536,20.509205 33.975006,27.824619 33.966476,35.140034   C31.721279,33.647739 29.476084,32.155449 27.369839,30.087292   C27.656897,23.623737 27.805004,17.736044 27.953112,11.848350  z"
   id="path4" />
<path
   fill="#AEC0E3"
   opacity="1.000000"
   stroke="none"
   d=" M48.987671,19.043434   C49.488392,19.291540 49.989117,19.539648 50.875443,20.153549   C51.838844,21.033783 52.416641,21.548225 52.996109,22.527388   C52.998520,27.814789 53.132969,32.642471 52.953030,37.458401   C52.832867,40.674427 52.265274,43.873741 51.897911,47.080532   C49.998459,45.936932 48.099007,44.793331 46.424221,43.265915   C47.099335,41.274269 47.833420,39.686718 47.950054,38.055027   C48.402493,31.725447 48.658524,25.381826 48.987671,19.043434  z"
   id="path6" />
<path
   fill="#A5C3E6"
   opacity="1.000000"
   stroke="none"
   d=" M48.796341,18.781506   C48.658524,25.381826 48.402493,31.725447 47.950054,38.055027   C47.833420,39.686718 47.099335,41.274269 46.235420,42.987534   C44.964054,42.636288 44.106152,42.179611 43.111870,40.979069   C43.313652,32.184761 43.651806,24.134321 43.989964,16.083881   C45.528313,16.895781 47.066658,17.707678 48.796341,18.781506  z"
   id="path8" />
<path
   fill="#94C8EC"
   opacity="1.000000"
   stroke="none"
   d=" M34.123421,35.409065   C33.975006,27.824619 33.983536,20.509205 33.984268,12.754959   C35.495609,12.719996 37.014748,13.123864 38.765755,14.242279   C38.667782,22.630707 38.337940,30.304586 38.008102,37.978466   C36.765522,37.211678 35.522942,36.444889 34.123421,35.409065  z"
   id="path10" />
<path
   fill="#BEBBDE"
   opacity="1.000000"
   stroke="none"
   d=" M61.001534,52.997482   C59.756298,52.248306 58.511063,51.499130 57.118855,49.999237   C56.981407,47.446739 56.913128,45.640556 57.014862,43.844002   C57.335823,38.176098 57.720509,32.511806 58.363201,27.016884   C59.771900,27.787930 60.897942,28.388206 62.012764,28.995892   C62.001549,29.003300 62.006119,28.977287 62.087242,29.222309   C62.453289,29.643082 62.738216,29.818830 63.011009,29.997980   C62.998871,30.001381 63.011059,29.979410 62.999313,30.237816   C62.990143,30.668650 62.992722,30.841078 62.827896,31.395708   C62.440331,34.511063 62.214233,37.243752 62.001362,39.977474   C61.663441,44.317116 61.334354,48.657444 61.001534,52.997482  z"
   id="path12" />
<path
   fill="#D8B1D3"
   opacity="1.000000"
   stroke="none"
   d=" M75.917435,62.158340   C74.376411,61.335835 72.835388,60.513332 71.138809,58.931419   C70.989204,54.029423 70.831451,49.876301 71.097054,45.750431   C71.180870,44.448425 72.398102,43.219383 73.414520,41.983574   C74.158798,42.009777 74.585144,42.009354 75.004608,42.005318   C74.997711,42.001698 74.988586,41.989037 75.105438,42.287476   C75.614891,42.732208 76.007477,42.878498 76.540054,43.025124   C76.680031,43.025463 76.959938,43.030293 76.966103,43.191742   C76.972267,43.353195 76.969299,43.676968 76.948212,44.029549   C77.287689,44.925915 77.648262,45.469696 78.004250,46.007324   C77.999672,46.001167 77.990234,45.989098 77.993675,46.315639   C78.057747,47.072872 78.118378,47.503567 77.854721,48.205299   C76.992767,53.037006 76.455101,57.597672 75.917435,62.158340  z"
   id="path14" />
<path
   fill="#CFB6D7"
   opacity="1.000000"
   stroke="none"
   d=" M73.096603,41.956947   C72.398102,43.219383 71.180870,44.448425 71.097054,45.750431   C70.831451,49.876301 70.989204,54.029423 70.964485,58.653145   C69.400345,58.297779 67.854988,57.461277 66.152313,55.863525   C66.324463,48.420361 66.653923,41.738445 67.242126,35.049698   C67.672356,35.023891 67.843849,35.004917 68.008133,34.993244   C68.000916,35.000546 68.009270,34.983925 68.082855,35.231216   C68.442886,35.649017 68.729332,35.819530 69.007736,35.995171   C68.999695,36.000305 69.009972,35.984200 69.083130,36.231552   C69.442734,36.649139 69.729172,36.819370 70.007652,36.994949   C69.999695,37.000294 70.010384,36.984467 70.084030,37.232803   C70.444923,37.653427 70.732178,37.825710 71.007706,38.001129   C70.995995,38.004265 70.993240,37.980137 71.069603,38.231567   C71.435097,38.657970 71.724228,38.832947 72.004456,39.005821   C71.995552,39.003712 71.992546,38.985638 72.062622,39.240074   C72.426582,39.665451 72.720467,39.836391 73.005241,40.005493   C72.996132,40.003654 72.996170,39.985088 72.974884,40.314865   C73.001274,41.082073 73.048943,41.519512 73.096603,41.956947  z"
   id="path16" />
<path
   fill="#B6BEE1"
   opacity="1.000000"
   stroke="none"
   d=" M58.080536,26.846115   C57.720509,32.511806 57.335823,38.176098 57.014862,43.844002   C56.913128,45.640556 56.981407,47.446739 56.941818,49.740479   C55.362251,49.367146 53.812744,48.501850 52.080574,47.358543   C52.265274,43.873741 52.832867,40.674427 52.953030,37.458401   C53.132969,32.642471 52.998520,27.814789 53.298759,22.641422   C54.407722,22.524233 55.215702,22.757725 56.011154,22.997103   C55.998631,23.002989 56.002228,22.975580 56.059608,23.237146   C56.419289,23.663168 56.721592,23.827623 57.011055,23.996738   C56.998219,24.001400 57.008041,23.975883 57.066719,24.235868   C57.425220,24.661671 57.725044,24.827486 58.010750,24.995750   C57.996639,24.998199 58.013554,24.974579 57.985420,25.287502   C57.998371,26.015654 58.039455,26.430885 58.080536,26.846115  z"
   id="path18" />
<path
   fill="#9CC5E9"
   opacity="1.000000"
   stroke="none"
   d=" M38.191986,38.251755   C38.337940,30.304586 38.667782,22.630707 38.994553,14.490404   C40.464401,14.588497 41.937317,15.153013 43.700096,15.900705   C43.651806,24.134321 43.313652,32.184761 42.949951,40.724533   C41.408226,40.317589 39.892048,39.421314 38.191986,38.251755  z"
   id="path20" />
<path
   fill="#A6C3E6"
   opacity="1.000000"
   stroke="none"
   d=" M66.992775,19.053263   C69.378235,20.726797 71.763695,22.400331 73.913116,24.681686   C73.127388,29.482998 72.577690,33.676487 71.768021,37.885475   C71.336449,37.927361 71.164848,37.953751 70.993240,37.980137   C70.993240,37.980137 70.995995,38.004265 70.940567,37.746223   C70.593552,37.320274 70.301971,37.152370 70.010384,36.984467   C70.010384,36.984467 69.999695,37.000294 69.950165,36.736679   C69.603745,36.310112 69.306862,36.147156 69.009972,35.984200   C69.009972,35.984200 68.999695,36.000305 68.949768,35.737007   C68.602982,35.310444 68.306129,35.147182 68.009270,34.983925   C68.009270,34.983925 68.000916,35.000546 67.956604,34.730560   C67.610489,34.300858 67.308685,34.141136 67.002151,33.991051   C66.997421,34.000687 67.018692,33.999428 66.956009,33.740665   C66.595177,33.314896 66.297035,33.147892 65.997978,32.992359   C65.997063,33.003834 66.019890,33.000729 66.043213,32.676273   C66.002243,31.923578 65.937958,31.495338 66.187843,30.787735   C66.665604,26.690002 66.829193,22.871632 66.992775,19.053263  z"
   id="path22" />
<path
   fill="#C6B9DB"
   opacity="1.000000"
   stroke="none"
   d=" M66.983391,35.056526   C66.653923,41.738445 66.324463,48.420361 65.989044,55.575340   C64.451416,55.207771 62.919762,54.367138 61.194820,53.261993   C61.334354,48.657444 61.663441,44.317116 62.001362,39.977474   C62.214233,37.243752 62.440331,34.511063 63.084587,31.394905   C63.679478,31.003901 63.850269,30.995901 64.009140,30.993874   C63.997211,30.999846 64.006203,30.974325 64.095619,31.261524   C64.796654,32.032722 65.408272,32.516724 66.019890,33.000729   C66.019890,33.000729 65.997063,33.003834 66.082436,33.235649   C66.451439,33.644783 66.735062,33.822105 67.018692,33.999428   C67.018692,33.999428 66.997421,34.000687 66.985687,34.259605   C66.977104,34.697865 66.980247,34.877197 66.983391,35.056526  z"
   id="path24" />
<path
   fill="#C4B9DB"
   opacity="1.000000"
   stroke="none"
   d=" M78.950859,97.863594   C80.408905,96.920296 81.866951,95.976997 83.661339,95.475555   C84.358177,100.638985 84.718674,105.360558 85.041283,110.380493   C84.681297,111.164642 84.359200,111.650436 83.781418,112.259125   C83.357018,112.909607 83.188293,113.437202 82.743454,114.092346   C81.649284,114.802422 80.831230,115.384949 79.954285,115.554955   C79.580551,109.382828 79.265701,103.623207 78.950859,97.863594  z"
   id="path26" />
<path
   fill="#79CFF5"
   opacity="1.000000"
   stroke="none"
   d=" M22.961086,27.148642   C21.753622,26.333546 20.430998,25.646650 19.357527,24.682386   C12.769403,18.764469 13.683663,14.879495 22.629772,12.565428   C22.986132,17.740784 22.973610,22.444712 22.961086,27.148642  z"
   id="path28" />
<path
   fill="#7FCDF2"
   opacity="1.000000"
   stroke="none"
   d=" M23.118671,27.419209   C22.973610,22.444712 22.986132,17.740784 22.996519,12.581413   C24.371702,12.023393 25.749020,11.920814 27.539724,11.833292   C27.805004,17.736044 27.656897,23.623737 27.191204,29.803196   C25.674498,29.293234 24.475376,28.491503 23.118671,27.419209  z"
   id="path30" />
<path
   fill="#F497C0"
   opacity="1.000000"
   stroke="none"
   d=" M105.831261,74.048309   C105.831261,75.491013 105.831261,76.933716 105.831261,78.941277   C99.535461,78.979507 95.834099,74.441986 91.111053,71.107094   C91.654564,68.605507 92.352463,66.789818 93.288651,64.993622   C93.526939,65.013107 94.005737,65.022125 94.003456,65.009903   C94.001175,64.997681 93.977478,64.988922 94.055710,65.241425   C94.425285,65.669701 94.716644,65.845467 95.004799,66.009819   C95.001602,65.998398 94.978752,65.992073 95.045731,66.252274   C95.410873,66.681854 95.709030,66.851242 96.004326,67.009598   C96.001457,66.998558 95.979401,66.992729 96.036697,67.259850   C96.398788,67.691483 96.703568,67.855995 97.005157,68.009476   C97.001961,67.998444 96.981453,67.988136 96.956253,68.299095   C97.289742,69.081894 97.648430,69.553741 98.004349,70.011902   C98.001579,69.998230 97.976082,69.986679 98.062233,70.234116   C98.435310,70.661644 98.722244,70.841728 99.005493,71.010010   C99.001816,70.998207 98.978203,70.990898 99.052612,71.246582   C99.421211,71.675316 99.715385,71.848366 100.005707,72.009796   C100.001846,71.998169 99.978661,71.990288 100.042572,72.254471   C100.407745,72.686073 100.709023,72.853500 101.006302,73.009567   C101.002304,72.998192 100.981514,72.986038 100.962891,73.296196   C101.299370,74.080917 101.654480,74.555489 102.005676,75.014549   C102.001778,74.999046 101.971283,74.989616 102.071640,75.254929   C102.632324,75.832184 103.092651,76.144142 103.552986,76.456100   C103.671692,76.027298 103.790405,75.598495 103.946800,74.871033   C103.993011,74.371857 104.001541,74.171341 104.313385,73.999367   C105.021545,74.034698 105.426407,74.041504 105.831261,74.048309  z"
   id="path32" />
<path
   fill="#B6BEE1"
   opacity="1.000000"
   stroke="none"
   d=" M72.027992,37.869976   C72.577690,33.676487 73.127388,29.482998 74.035431,25.002029   C75.079140,25.087954 75.764488,25.461355 76.846878,26.244194   C77.866501,27.719124 78.489082,28.784620 78.928596,30.238079   C78.150330,34.760792 77.555138,38.895542 76.959946,43.030293   C76.959938,43.030293 76.680031,43.025463 76.333885,42.806229   C75.654686,42.387676 75.321640,42.188358 74.988586,41.989037   C74.988586,41.989037 74.997711,42.001698 74.913620,41.718719   C74.218414,40.952190 73.607292,40.468639 72.996170,39.985088   C72.996170,39.985088 72.996132,40.003654 72.927460,39.756638   C72.570038,39.334957 72.281296,39.160297 71.992546,38.985638   C71.992546,38.985638 71.995552,39.003712 72.024521,38.721527   C72.044991,38.249554 72.036491,38.059765 72.027992,37.869976  z"
   id="path34" />
<path
   fill="#D3B3D5"
   opacity="1.000000"
   stroke="none"
   d=" M85.079170,110.082138   C84.718674,105.360558 84.358177,100.638985 83.995956,95.450043   C85.456406,94.087158 86.918587,93.191628 88.690903,92.644852   C89.401901,96.691643 89.802773,100.389679 90.144257,104.449631   C90.054199,105.543213 90.023514,106.274895 89.996323,107.003128   C89.999817,106.999695 90.005989,106.991890 89.750458,107.056686   C89.326401,107.417587 89.157867,107.713692 88.994247,108.004852   C88.999161,107.999908 89.007172,107.988548 88.751457,108.055290   C88.328453,108.417717 88.161163,108.713402 87.995857,109.003105   C87.997841,108.997124 88.010117,108.993927 87.756668,109.062622   C87.332527,109.424660 87.161835,109.718002 86.994202,110.004318   C86.997246,109.997284 87.012146,109.993729 86.708954,109.971291   C86.204247,109.970573 86.002739,109.992302 85.620880,110.032837   C85.440536,110.051643 85.079170,110.082138 85.079170,110.082138  z"
   id="path36" />
<path
   fill="#E2ACCF"
   opacity="1.000000"
   stroke="none"
   d=" M76.098137,62.431538   C76.455101,57.597672 76.992767,53.037006 78.117615,48.380569   C79.806068,48.861443 80.907333,49.438076 82.005112,50.006718   C82.001610,49.998722 81.985222,49.992786 81.973404,50.297649   C82.286072,51.086414 82.610550,51.570320 82.955330,52.287621   C82.975624,52.521015 83.003853,52.988716 82.838623,53.369453   C82.446846,57.840847 82.220291,61.931503 81.993736,66.022156   C80.088768,64.916351 78.183807,63.810543 76.098137,62.431538  z"
   id="path38" />
<path
   fill="#97C9ED"
   opacity="1.000000"
   stroke="none"
   d=" M62.059834,108.038528   C63.829685,106.800751 65.599541,105.562973 67.683281,104.678871   C67.995941,110.319595 67.994728,115.606628 67.993507,120.893669   C66.565720,121.211121 65.137932,121.528580 63.350231,121.347023   C62.680153,116.578186 62.369995,112.308357 62.059834,108.038528  z"
   id="path40" />
<path
   fill="#B8BEE1"
   opacity="1.000000"
   stroke="none"
   d=" M78.626266,97.930069   C79.265701,103.623207 79.580551,109.382828 79.706383,115.734497   C79.062851,117.188011 78.608345,118.049477 78.153839,118.910934   C77.671829,118.909981 77.189819,118.909027 76.339157,118.460548   C75.647491,112.010757 75.324486,106.008476 75.001472,100.006203   C76.101540,99.336319 77.201607,98.666435 78.626266,97.930069  z"
   id="path42" />
<path
   fill="#DCB1D2"
   opacity="1.000000"
   stroke="none"
   d=" M100.115372,108.228500   C98.316101,110.801910 96.516830,113.375320 94.365463,115.542488   C93.990898,111.381248 93.968445,107.626251 93.965271,103.558823   C93.989700,102.826889 93.994850,102.407402 94.000916,101.994568   C94.001831,102.001236 93.988869,102.004951 94.266556,101.864777   C94.697830,101.144547 94.851418,100.564484 95.003769,99.993851   C95.002541,100.003273 94.984207,100.008347 95.242004,99.945320   C95.667572,99.583763 95.835350,99.285233 96.002480,98.994499   C96.001831,99.002296 95.986397,98.999527 96.292908,99.024734   C97.005081,99.005569 97.410728,98.961197 98.129150,99.171890   C98.999733,102.360794 99.557549,105.294647 100.115372,108.228500  z"
   id="path44" />
<path
   fill="#C1BCDD"
   opacity="1.000000"
   stroke="none"
   d=" M117.999435,87.032867   C116.285927,88.821182 114.646774,89.509987 113.121971,85.958099   C112.981400,82.064789 112.962318,78.924622 112.943237,75.784462   C113.783333,72.963127 115.263924,72.145081 117.842239,75.024200   C117.999481,79.530952 117.999458,83.281906 117.999435,87.032867  z"
   id="path46" />
<path
   fill="#A1C3E7"
   opacity="1.000000"
   stroke="none"
   d=" M68.341362,120.901230   C67.994728,115.606628 67.995941,110.319595 67.996437,104.577141   C69.104752,103.412697 70.213783,102.703659 71.656509,102.414993   C71.988449,108.496254 71.986694,114.157150 71.984947,119.818054   C70.886375,120.181633 69.787796,120.545212 68.341362,120.901230  z"
   id="path48" />
<path
   fill="#EBA9CC"
   opacity="1.000000"
   stroke="none"
   d=" M82.175980,66.279068   C82.220291,61.931503 82.446846,57.840847 83.087486,53.486240   C83.962669,53.519295 84.423759,53.816307 84.956657,54.426582   C85.953018,55.553108 86.877586,56.366367 87.844742,57.472126   C87.929916,58.159557 87.972504,58.554489 87.857498,59.319290   C87.059433,62.506588 86.418953,65.324013 85.778481,68.141441   C84.638397,67.606285 83.498314,67.071129 82.175980,66.279068  z"
   id="path50" />
<path
   fill="#F1A8CB"
   opacity="1.000000"
   stroke="none"
   d=" M101.104279,51.829891   C102.766495,58.267200 104.428719,64.704514 105.967636,71.757698   C105.225388,72.247726 104.606430,72.121880 103.995636,72.000450   C104.003784,72.004875 104.005875,72.027367 104.031616,71.680725   C103.699295,70.551994 103.341232,69.769920 102.992416,68.993423   C103.001663,68.999008 103.001999,69.020584 103.014114,68.656464   C102.011253,66.526016 100.996269,64.759689 99.991165,62.996315   C100.001045,62.999268 99.999252,63.019806 100.017975,62.704544   C99.685013,61.923767 99.333328,61.458252 98.991356,60.996025   C99.001068,60.999310 98.998535,61.019638 99.032700,60.645973   C99.019630,59.524284 98.972389,58.776264 99.211121,57.798550   C100.032822,55.655869 100.568550,53.742878 101.104279,51.829891  z"
   id="path52" />
<path
   fill="#94C8EC"
   opacity="1.000000"
   stroke="none"
   d=" M66.672050,18.872719   C66.829193,22.871632 66.665604,26.690002 65.878296,30.745365   C64.838448,30.979681 64.422325,30.977003 64.006203,30.974325   C64.006203,30.974325 63.997211,30.999846 63.970760,30.721933   C63.633224,30.289150 63.322144,30.134279 63.011059,29.979410   C63.011059,29.979410 62.998871,30.001381 62.959293,29.732422   C62.615185,29.301403 62.310650,29.139345 62.006119,28.977287   C62.006119,28.977287 62.001549,29.003300 62.027523,28.672525   C61.654045,27.581457 61.254593,26.821165 61.169861,25.793392   C61.682621,22.930618 61.880661,20.335329 62.078697,17.740038   C63.502907,18.057417 64.927116,18.374796 66.672050,18.872719  z"
   id="path54" />
<path
   fill="#87CDF1"
   opacity="1.000000"
   stroke="none"
   d=" M61.756660,17.520617   C61.880661,20.335329 61.682621,22.930618 60.891083,25.660519   C59.536240,25.521612 58.774895,25.248095 58.013554,24.974579   C58.013554,24.974579 57.996639,24.998199 57.952179,24.734806   C57.607822,24.306238 57.307934,24.141062 57.008041,23.975883   C57.008041,23.975883 56.998219,24.001400 56.945839,23.741547   C56.596378,23.312988 56.299305,23.144283 56.002228,22.975580   C56.002228,22.975580 55.998631,23.002989 55.895603,22.694464   C54.596180,21.573120 53.399788,20.760300 52.203392,19.947479   C54.186272,15.248422 58.138863,17.420443 61.756660,17.520617  z"
   id="path56" />
<path
   fill="#AEC0E3"
   opacity="1.000000"
   stroke="none"
   d=" M72.320648,119.739731   C71.986694,114.157150 71.988449,108.496254 71.980591,102.355133   C72.773346,101.272209 73.575691,100.669510 74.689758,100.036499   C75.324486,106.008476 75.647491,112.010757 75.979950,118.418503   C74.878387,119.103111 73.767372,119.382256 72.320648,119.739731  z"
   id="path58" />
<path
   fill="#AACDED"
   opacity="1.000000"
   stroke="none"
   d=" M78.165878,119.309731   C78.608345,118.049477 79.062851,117.188011 79.765274,116.147011   C80.831230,115.384949 81.649284,114.802422 82.982346,113.948349   C83.677269,113.163269 83.857178,112.649750 84.037094,112.136230   C84.359200,111.650436 84.681297,111.164642 85.041283,110.380493   C85.079170,110.082138 85.440536,110.051643 85.663734,110.351959   C85.911430,110.865578 85.935936,111.078880 85.972336,111.727234   C85.986267,115.097198 85.988304,118.032135 85.990341,120.967064   C83.151581,122.004005 80.198181,123.752480 78.165878,119.309731  z"
   id="path60" />
<path
   fill="#87CDF1"
   opacity="1.000000"
   stroke="none"
   d=" M61.757339,108.134796   C62.369995,112.308357 62.680153,116.578186 62.981842,121.285172   C61.814083,121.661530 60.654800,121.600739 59.244629,120.841721   C59.007969,116.815453 59.022202,113.487427 59.036438,110.159393   C59.842571,109.516617 60.648705,108.873840 61.757339,108.134796  z"
   id="path62" />
<path
   fill="#C4B9DB"
   opacity="1.000000"
   stroke="none"
   d=" M93.945984,103.871254   C93.968445,107.626251 93.990898,111.381248 94.024261,115.606369   C92.926575,117.067024 91.817993,118.057541 90.365204,118.655838   C89.687981,115.197968 89.354958,112.132317 89.028648,108.796997   C89.025963,108.347733 89.016563,108.168137 89.007172,107.988548   C89.007172,107.988548 88.999161,107.999908 89.235619,107.918549   C89.650047,107.555428 89.828018,107.273659 90.005989,106.991890   C90.005989,106.991890 89.999817,106.999695 90.293236,106.890114   C91.706429,105.810776 92.826210,104.841019 93.945984,103.871254  z"
   id="path64" />
<path
   fill="#E2ACCF"
   opacity="1.000000"
   stroke="none"
   d=" M90.203636,104.087723   C89.802773,100.389679 89.401901,96.691643 89.002769,92.543777   C90.132896,91.466278 91.261292,90.838608 92.695496,90.554611   C93.340172,93.947342 93.679039,96.996407 93.993484,100.371933   C93.975662,101.133911 93.982262,101.569435 93.988869,102.004951   C93.988869,102.004951 94.001831,102.001236 93.678650,101.995911   C92.304855,102.689636 91.254250,103.388680 90.203636,104.087723  z"
   id="path66" />
<path
   fill="#F49FC4"
   opacity="1.000000"
   stroke="none"
   d=" M96.945656,87.891800   C99.959656,86.420166 102.973656,84.948532 105.998802,83.977890   C105.669052,85.325195 105.328156,86.171509 104.993927,87.008965   C105.000603,87.000107 105.016182,86.984276 104.759003,87.051086   C104.329590,87.416595 104.157349,87.715302 103.992256,88.006889   C103.999405,87.999771 104.010269,87.982773 103.733887,88.127472   C103.301575,88.853867 103.145645,89.435562 102.995132,90.008766   C103.000557,90.000267 103.014809,89.986008 102.751617,90.042343   C102.321457,90.403229 102.154488,90.707771 101.993484,91.006401   C101.999466,91.000481 102.011024,90.988358 101.672668,91.003006   C100.204498,92.340508 99.074684,93.663368 97.667030,94.707047   C97.241348,92.249184 97.093498,90.070488 96.945656,87.891800  z"
   id="path68" />
<path
   fill="#79CFF5"
   opacity="1.000000"
   stroke="none"
   d=" M58.718849,110.271927   C59.022202,113.487427 59.007969,116.815453 58.986122,120.605713   C56.976406,119.774368 54.974304,118.480789 52.972206,117.187210   C54.781895,114.919632 56.591583,112.652046 58.718849,110.271927  z"
   id="path70" />
<path
   fill="#F49FC4"
   opacity="1.000000"
   stroke="none"
   d=" M107.333183,85.843132   C106.075081,90.735741 104.816986,95.628342 103.077202,100.483040   C102.030228,98.577538 101.464928,96.709953 100.960243,94.511238   C101.350906,93.116196 101.680969,92.052277 102.011024,90.988358   C102.011024,90.988358 101.999466,91.000481 102.253296,90.945801   C102.676353,90.589409 102.845581,90.287704 103.014801,89.986008   C103.014809,89.986008 103.000557,90.000267 103.271751,89.864059   C103.698723,89.146156 103.854492,88.564461 104.010269,87.982773   C104.010269,87.982773 103.999405,87.999771 104.253693,87.948502   C104.677383,87.592911 104.846779,87.288597 105.016182,86.984276   C105.016182,86.984276 105.000603,87.000107 105.300751,86.895599   C106.178329,86.475113 106.755753,86.159119 107.333183,85.843132  z"
   id="path72" />
<path
   fill="#F4A3C7"
   opacity="1.000000"
   stroke="none"
   d=" M85.983185,68.414940   C86.418953,65.324013 87.059433,62.506588 88.079865,59.354378   C88.459808,59.019596 88.903603,59.096020 88.947487,59.430092   C90.344368,61.500816 91.697357,63.237473 93.050354,64.974129   C92.352463,66.789818 91.654564,68.605507 90.916336,70.837166   C89.313309,70.398239 87.750603,69.543335 85.983185,68.414940  z"
   id="path74" />
<path
   fill="#B3C1E3"
   opacity="1.000000"
   stroke="none"
   d=" M87.981491,29.069151   C89.312096,30.436884 90.642700,31.804615 92.001541,33.954269   C91.646126,37.506474 91.262466,40.276760 90.619995,42.828438   C89.510864,40.542835 88.660545,38.475849 87.863152,35.949013   C87.937874,33.349163 87.959686,31.209156 87.981491,29.069151  z"
   id="path76" />
<path
   fill="#B3C1E3"
   opacity="1.000000"
   stroke="none"
   d=" M89.021935,109.066666   C89.354958,112.132317 89.687981,115.197968 90.041046,118.720215   C88.931343,119.777130 87.801590,120.377441 86.331085,120.972412   C85.988304,118.032135 85.986267,115.097198 86.210449,111.560455   C86.628494,110.637001 86.820320,110.315361 87.012146,109.993729   C87.012146,109.993729 86.997246,109.997284 87.242554,109.927399   C87.661949,109.569649 87.836037,109.281792 88.010117,108.993927   C88.010117,108.993927 87.997841,108.997124 88.252213,109.029480   C88.678368,109.063438 88.850151,109.065056 89.021935,109.066666  z"
   id="path78" />
<path
   fill="#C4B9DB"
   opacity="1.000000"
   stroke="none"
   d=" M90.878799,43.047047   C91.262466,40.276760 91.646126,37.506474 92.059418,34.275146   C93.393066,35.622280 94.697083,37.430450 95.749252,39.859314   C95.285103,43.394230 95.072792,46.308456 94.615829,49.047497   C93.625854,48.209717 92.880539,47.547119 92.082390,46.600868   C91.712822,45.855827 91.396080,45.394444 91.054359,44.617722   C90.979187,43.883934 90.928993,43.465492 90.878799,43.047047  z"
   id="path80" />
<path
   fill="#EEA9CB"
   opacity="1.000000"
   stroke="none"
   d=" M96.646179,88.027725   C97.093498,90.070488 97.241348,92.249184 97.659187,95.045418   C97.950645,96.111900 97.972099,96.560837 97.996750,97.005005   C97.999931,97.000237 98.007881,96.992111 97.676758,96.991898   C96.892555,97.660957 96.439476,98.330238 95.986397,98.999527   C95.986397,98.999527 96.001831,99.002296 95.757126,99.074936   C95.336342,99.434502 95.160271,99.721428 94.984207,100.008347   C94.984207,100.008347 95.002541,100.003273 94.756546,100.001709   C94.510544,100.000145 94.017906,100.045464 94.017906,100.045464   C93.679039,96.996407 93.340172,93.947342 93.002647,90.458801   C94.118225,89.400757 95.232468,88.782211 96.646179,88.027725  z"
   id="path82" />
<path
   fill="#D3B3D5"
   opacity="1.000000"
   stroke="none"
   d=" M94.860481,49.222683   C95.072792,46.308456 95.285103,43.394230 95.814461,40.196716   C97.061577,41.386761 97.991638,42.860096 98.667542,44.947315   C97.915207,48.380882 97.417030,51.200562 96.657288,53.810074   C95.883972,52.140831 95.372231,50.681759 94.860481,49.222683  z"
   id="path84" />
<path
   fill="#9CC5E9"
   opacity="1.000000"
   stroke="none"
   d=" M87.780289,28.782318   C87.959686,31.209156 87.937874,33.349163 87.561180,35.827766   C86.139465,35.438065 85.072647,34.709759 84.002213,33.991592   C83.998611,34.001736 84.019524,33.996197 84.001770,33.674042   C83.322487,32.561878 82.660957,31.771870 81.997955,30.991016   C81.996483,31.000170 82.014687,31.000988 82.026505,30.623638   C82.362236,29.119917 82.686150,27.993547 83.010063,26.867180   C84.533073,27.409948 86.056076,27.952717 87.780289,28.782318  z"
   id="path86" />
<path
   fill="#97C9ED"
   opacity="1.000000"
   stroke="none"
   d=" M118.323776,86.887161   C117.999458,83.281906 117.999481,79.530952 118.017685,75.302109   C123.341789,78.982155 123.496239,81.988426 118.323776,86.887161  z"
   id="path88" />
<path
   fill="#EEA9CB"
   opacity="1.000000"
   stroke="none"
   d=" M100.899643,94.842361   C101.464928,96.709953 102.030228,98.577538 102.814186,100.752823   C102.244598,103.298027 101.456345,105.535545 100.391724,108.000778   C99.557549,105.294647 98.999733,102.360794 98.190231,98.854813   C97.961655,97.852486 97.984772,97.422302 98.007881,96.992111   C98.007881,96.992111 97.999931,97.000237 98.282043,96.897415   C99.342644,96.143845 100.121147,95.493111 100.899643,94.842361  z"
   id="path90" />
<path
   fill="#E2ACCF"
   opacity="1.000000"
   stroke="none"
   d=" M96.918854,54.020245   C97.417030,51.200562 97.915207,48.380882 98.697266,45.284363   C99.679688,47.034721 100.378220,49.061913 101.090515,51.459499   C100.568550,53.742878 100.032822,55.655869 98.974434,57.682419   C98.029900,57.478535 97.608025,57.161083 97.147057,56.493935   C97.044922,55.436237 96.981888,54.728241 96.918854,54.020245  z"
   id="path92" />
<path
   fill="#EBA9CC"
   opacity="1.000000"
   stroke="none"
   d=" M112.642838,75.964340   C112.962318,78.924622 112.981400,82.064789 112.982635,85.677032   C106.705139,80.685280 106.657005,79.911446 112.642838,75.964340  z"
   id="path94" />
<path
   fill="#F1EEF6"
   opacity="1.000000"
   stroke="none"
   d=" M82.950897,26.509659   C82.686150,27.993547 82.362236,29.119917 81.705338,30.638622   C80.618790,30.637342 79.865227,30.243727 79.111664,29.850113   C78.489082,28.784620 77.866501,27.719124 77.116089,26.375275   C78.990166,22.470795 80.949249,23.423660 82.950897,26.509659  z"
   id="path96" />
<path
   fill="#EBF2FA"
   opacity="1.000000"
   stroke="none"
   d=" M51.906414,19.959213   C53.399788,20.760300 54.596180,21.573120 55.908127,22.688578   C55.215702,22.757725 54.407722,22.524233 53.297089,22.176704   C52.416641,21.548225 51.838844,21.033783 51.138206,20.255169   C51.213383,19.984314 51.411411,19.977631 51.906414,19.959213  z"
   id="path98" />
<path
   fill="#F1EEF6"
   opacity="1.000000"
   stroke="none"
   d=" M103.987480,71.996025   C104.606430,72.121880 105.225388,72.247726 106.007339,72.178802   C106.644081,72.273605 107.117828,72.563194 107.591568,72.852776   C107.210060,73.221283 106.828552,73.589783 106.139153,74.003296   C105.426407,74.041504 105.021545,74.034698 104.312050,73.672470   C104.000763,72.876701 103.994125,72.436363 103.987480,71.996025  z"
   id="path100" />
<path
   fill="#FAEBF3"
   opacity="1.000000"
   stroke="none"
   d=" M107.504700,85.682922   C106.755753,86.159119 106.178329,86.475113 105.294083,86.904465   C105.328156,86.171509 105.669052,85.325195 106.256866,84.209557   C106.894585,84.467728 107.285400,84.995224 107.504700,85.682922  z"
   id="path102" />
<path
   fill="#EBF2FA"
   opacity="1.000000"
   stroke="none"
   d=" M57.985420,25.287502   C58.774895,25.248095 59.536240,25.521612 60.576363,25.928001   C61.254593,26.821165 61.654045,27.581457 62.038738,28.665117   C60.897942,28.388206 59.771900,27.787930 58.363197,27.016884   C58.039455,26.430885 57.998371,26.015654 57.985420,25.287502  z"
   id="path104" />
<path
   fill="#EBF2FA"
   opacity="1.000000"
   stroke="none"
   d=" M62.999313,30.237816   C63.322144,30.134279 63.633224,30.289150 63.982689,30.715961   C63.850269,30.995901 63.679478,31.003901 63.251991,31.012703   C62.992722,30.841078 62.990143,30.668650 62.999313,30.237816  z"
   id="path106" />
<path
   fill="#EBF2FA"
   opacity="1.000000"
   stroke="none"
   d=" M62.087242,29.222309   C62.310650,29.139345 62.615185,29.301403 62.971428,29.729021   C62.738216,29.818830 62.453289,29.643082 62.087242,29.222309  z"
   id="path108" />
<path
   fill="#C6B9DB"
   opacity="1.000000"
   stroke="none"
   d=" M78.928596,30.238077   C79.865227,30.243727 80.618790,30.637342 81.693520,31.015972   C82.014687,31.000988 81.996483,31.000170 81.966705,31.350060   C82.631126,32.465363 83.325325,33.230778 84.019524,33.996197   C84.019524,33.996197 83.998611,34.001736 83.971985,34.358227   C84.668861,36.448341 85.392357,38.181965 85.809883,40.184887   C84.684578,43.630032 83.865234,46.805882 82.780609,49.973248   C82.338615,49.974106 82.161919,49.983444 81.985222,49.992786   C81.985222,49.992786 82.001610,49.998722 81.976089,49.662704   C80.630463,48.214153 79.310349,47.101627 77.990234,45.989098   C77.990234,45.989098 77.999672,46.001167 78.016640,45.673752   C77.678841,44.789883 77.324074,44.233425 76.969299,43.676964   C76.969299,43.676968 76.972267,43.353195 76.966110,43.191742   C77.555138,38.895542 78.150330,34.760792 78.928596,30.238077  z"
   id="path110" />
<path
   fill="#FAEEF5"
   opacity="1.000000"
   stroke="none"
   d=" M77.993675,46.315643   C79.310349,47.101627 80.630463,48.214153 81.979591,49.670700   C80.907333,49.438076 79.806068,48.861443 78.441910,48.109531   C78.118378,47.503567 78.057747,47.072872 77.993675,46.315643  z"
   id="path112" />
<path
   fill="#FAEEF5"
   opacity="1.000000"
   stroke="none"
   d=" M72.974884,40.314865   C73.607292,40.468639 74.218414,40.952190 74.920517,41.722340   C74.585144,42.009354 74.158798,42.009777 73.414520,41.983574   C73.048943,41.519512 73.001274,41.082073 72.974884,40.314865  z"
   id="path114" />
<path
   fill="#FAEEF5"
   opacity="1.000000"
   stroke="none"
   d=" M76.948212,44.029549   C77.324074,44.233425 77.678841,44.789883 78.021217,45.679909   C77.648262,45.469696 77.287689,44.925915 76.948212,44.029549  z"
   id="path116" />
<path
   fill="#FAEEF5"
   opacity="1.000000"
   stroke="none"
   d=" M75.105438,42.287476   C75.321640,42.188358 75.654686,42.387676 76.193909,42.805893   C76.007477,42.878498 75.614891,42.732208 75.105438,42.287476  z"
   id="path118" />
<path
   fill="#EBF2FA"
   opacity="1.000000"
   stroke="none"
   d=" M67.242126,35.049698   C66.980247,34.877197 66.977104,34.697865 66.990417,34.249973   C67.308685,34.141136 67.610489,34.300858 67.963821,34.723259   C67.843849,35.004917 67.672356,35.023891 67.242126,35.049698  z"
   id="path120" />
<path
   fill="#EBF2FA"
   opacity="1.000000"
   stroke="none"
   d=" M68.082855,35.231216   C68.306129,35.147182 68.602982,35.310444 68.957809,35.731873   C68.729332,35.819530 68.442886,35.649017 68.082855,35.231216  z"
   id="path122" />
<path
   fill="#EBF2FA"
   opacity="1.000000"
   stroke="none"
   d=" M69.083130,36.231552   C69.306862,36.147156 69.603745,36.310112 69.958122,36.731339   C69.729172,36.819370 69.442734,36.649139 69.083130,36.231552  z"
   id="path124" />
<path
   fill="#EBF2FA"
   opacity="1.000000"
   stroke="none"
   d=" M70.084030,37.232803   C70.301971,37.152370 70.593552,37.320274 70.952286,37.743088   C70.732178,37.825710 70.444923,37.653427 70.084030,37.232803  z"
   id="path126" />
<path
   fill="#FAEEF5"
   opacity="1.000000"
   stroke="none"
   d=" M71.768021,37.885475   C72.036491,38.059765 72.044991,38.249554 72.033417,38.723633   C71.724228,38.832947 71.435097,38.657970 71.069603,38.231567   C71.164848,37.953751 71.336449,37.927361 71.768021,37.885475  z"
   id="path128" />
<path
   fill="#FAEEF5"
   opacity="1.000000"
   stroke="none"
   d=" M72.062622,39.240074   C72.281296,39.160297 72.570038,39.334957 72.936569,39.758476   C72.720467,39.836391 72.426582,39.665451 72.062622,39.240074  z"
   id="path130" />
<path
   fill="#EBF2FA"
   opacity="1.000000"
   stroke="none"
   d=" M56.059608,23.237146   C56.299305,23.144283 56.596378,23.312988 56.958672,23.736885   C56.721592,23.827623 56.419289,23.663168 56.059608,23.237146  z"
   id="path132" />
<path
   fill="#EBF2FA"
   opacity="1.000000"
   stroke="none"
   d=" M57.066719,24.235870   C57.307934,24.141062 57.607822,24.306238 57.966290,24.732359   C57.725044,24.827486 57.425220,24.661671 57.066719,24.235870  z"
   id="path134" />
<path
   fill="#EBF2FA"
   opacity="1.000000"
   stroke="none"
   d=" M64.095619,31.261524   C64.422325,30.977003 64.838448,30.979681 65.564117,31.024727   C65.937958,31.495338 66.002243,31.923578 66.043213,32.676273   C65.408272,32.516724 64.796654,32.032722 64.095619,31.261524  z"
   id="path136" />
<path
   fill="#EBF2FA"
   opacity="1.000000"
   stroke="none"
   d=" M66.956009,33.740665   C66.735062,33.822105 66.451439,33.644783 66.083351,33.224174   C66.297035,33.147892 66.595177,33.314896 66.956009,33.740665  z"
   id="path138" />
<path
   fill="#B3C1E3"
   opacity="1.000000"
   stroke="none"
   d=" M83.781410,112.259125   C83.857178,112.649750 83.677269,113.163269 83.258469,113.820801   C83.188293,113.437202 83.357018,112.909607 83.781410,112.259125  z"
   id="path140" />
<path
   fill="#F49FC4"
   opacity="1.000000"
   stroke="none"
   d=" M103.995636,72.000450   C103.994125,72.436363 104.000763,72.876701 104.008743,73.643936   C104.001541,74.171341 103.993011,74.371857 103.627060,74.801636   C102.836853,75.017151 102.404068,75.003387 101.971283,74.989624   C101.971283,74.989616 102.001778,74.999046 102.032562,74.697937   C101.702736,73.926559 101.342125,73.456299 100.981506,72.986038   C100.981514,72.986038 101.002304,72.998192 100.939903,72.747833   C100.577888,72.328415 100.278275,72.159355 99.978661,71.990288   C99.978661,71.990288 100.001846,71.998169 99.950439,71.740143   C99.592094,71.318382 99.285149,71.154640 98.978203,70.990898   C98.978203,70.990898 99.001816,70.998207 98.957672,70.736740   C98.601051,70.312408 98.288567,70.149544 97.976082,69.986679   C97.976082,69.986679 98.001579,69.998230 98.036911,69.694611   C97.708641,68.923370 97.345047,68.455757 96.981453,67.988136   C96.981453,67.988136 97.001961,67.998444 96.941299,67.747055   C96.580231,67.328018 96.279816,67.160378 95.979401,66.992729   C95.979401,66.992729 96.001457,66.998558 95.950012,66.740707   C95.591965,66.319260 95.285355,66.155663 94.978752,65.992073   C94.978752,65.992073 95.001602,65.998398 94.955612,65.737259   C94.598900,65.313721 94.288193,65.151321 93.977478,64.988922   C93.977478,64.988922 94.001175,64.997681 94.060959,64.673027   C94.095177,63.893650 94.069618,63.438931 94.297592,62.777588   C95.383575,61.701584 96.216026,60.832203 97.302483,60.081131   C98.037170,60.472836 98.517853,60.746239 98.998535,61.019638   C98.998535,61.019638 99.001068,60.999310 98.983093,61.306763   C99.309830,62.082748 99.654541,62.551277 99.999252,63.019806   C99.999252,63.019806 100.001045,62.999268 99.977249,63.359062   C100.969643,65.486099 101.985817,67.253342 103.001999,69.020584   C103.001999,69.020584 103.001663,68.999008 102.965805,69.335358   C103.288589,70.456924 103.647240,71.242142 104.005875,72.027367   C104.005875,72.027367 104.003784,72.004875 103.995636,72.000450  z"
   id="path142" />
<path
   fill="#FAEEF5"
   opacity="1.000000"
   stroke="none"
   d=" M94.044052,62.984207   C94.069618,63.438931 94.095177,63.893650 94.063232,64.685249   C94.005737,65.022125 93.526939,65.013107 93.288651,64.993622   C91.697357,63.237473 90.344368,61.500816 89.000854,59.377716   C89.010345,58.991268 89.117737,58.887161 89.443184,58.929459   C91.193771,60.309238 92.618912,61.646721 94.044052,62.984207  z"
   id="path144" />
<path
   fill="#FAEEF5"
   opacity="1.000000"
   stroke="none"
   d=" M102.071640,75.254929   C102.404068,75.003387 102.836853,75.017151 103.589371,75.100304   C103.790405,75.598495 103.671692,76.027298 103.552986,76.456100   C103.092651,76.144142 102.632324,75.832184 102.071640,75.254929  z"
   id="path146" />
<path
   fill="#FAEEF5"
   opacity="1.000000"
   stroke="none"
   d=" M96.956253,68.299095   C97.345047,68.455757 97.708641,68.923370 98.039673,69.708282   C97.648430,69.553741 97.289742,69.081894 96.956253,68.299095  z"
   id="path148" />
<path
   fill="#FAEEF5"
   opacity="1.000000"
   stroke="none"
   d=" M100.962891,73.296196   C101.342125,73.456299 101.702736,73.926559 102.036469,74.713440   C101.654480,74.555489 101.299370,74.080917 100.962891,73.296196  z"
   id="path150" />
<path
   fill="#FAEEF5"
   opacity="1.000000"
   stroke="none"
   d=" M94.055710,65.241425   C94.288193,65.151321 94.598900,65.313721 94.958801,65.748680   C94.716644,65.845467 94.425285,65.669701 94.055710,65.241425  z"
   id="path152" />
<path
   fill="#FAEEF5"
   opacity="1.000000"
   stroke="none"
   d=" M95.045731,66.252274   C95.285355,66.155663 95.591965,66.319260 95.952881,66.751740   C95.709030,66.851242 95.410873,66.681854 95.045731,66.252274  z"
   id="path154" />
<path
   fill="#FAEEF5"
   opacity="1.000000"
   stroke="none"
   d=" M96.036697,67.259850   C96.279816,67.160378 96.580231,67.328018 96.944504,67.758087   C96.703568,67.855995 96.398788,67.691483 96.036697,67.259850  z"
   id="path156" />
<path
   fill="#FAEEF5"
   opacity="1.000000"
   stroke="none"
   d=" M98.062233,70.234116   C98.288567,70.149544 98.601051,70.312408 98.961349,70.748550   C98.722244,70.841728 98.435310,70.661644 98.062233,70.234116  z"
   id="path158" />
<path
   fill="#FAEEF5"
   opacity="1.000000"
   stroke="none"
   d=" M99.052612,71.246582   C99.285149,71.154640 99.592094,71.318382 99.954300,71.751770   C99.715385,71.848366 99.421211,71.675316 99.052612,71.246582  z"
   id="path160" />
<path
   fill="#FAEEF5"
   opacity="1.000000"
   stroke="none"
   d=" M100.042572,72.254471   C100.278275,72.159355 100.577888,72.328415 100.943893,72.759209   C100.709023,72.853500 100.407745,72.686073 100.042572,72.254471  z"
   id="path162" />
<path
   fill="#FAEBF3"
   opacity="1.000000"
   stroke="none"
   d=" M90.144257,104.449631   C91.254250,103.388680 92.304855,102.689636 93.677734,101.989250   C93.994850,102.407402 93.989700,102.826889 93.965271,103.558823   C92.826210,104.841019 91.706429,105.810776 90.289742,106.893555   C90.023514,106.274895 90.054199,105.543213 90.144257,104.449631  z"
   id="path164" />
<path
   fill="#FAEBF3"
   opacity="1.000000"
   stroke="none"
   d=" M87.756668,109.062622   C87.836037,109.281792 87.661949,109.569649 87.239510,109.934433   C87.161835,109.718002 87.332527,109.424660 87.756668,109.062622  z"
   id="path166" />
<path
   fill="#FAEBF3"
   opacity="1.000000"
   stroke="none"
   d=" M89.028648,108.796997   C88.850151,109.065056 88.678368,109.063438 88.250229,109.035461   C88.161163,108.713402 88.328453,108.417717 88.751457,108.055290   C89.016563,108.168137 89.025963,108.347733 89.028648,108.796997  z"
   id="path168" />
<path
   fill="#FAEBF3"
   opacity="1.000000"
   stroke="none"
   d=" M86.708954,109.971291   C86.820320,110.315361 86.628494,110.637001 86.198547,111.125412   C85.935936,111.078880 85.911430,110.865578 85.844078,110.333145   C86.002739,109.992302 86.204247,109.970573 86.708954,109.971291  z"
   id="path170" />
<path
   fill="#FAEBF3"
   opacity="1.000000"
   stroke="none"
   d=" M89.750458,107.056686   C89.828018,107.273659 89.650047,107.555428 89.230705,107.923492   C89.157867,107.713692 89.326401,107.417587 89.750458,107.056686  z"
   id="path172" />
<path
   fill="#FAEEF5"
   opacity="1.000000"
   stroke="none"
   d=" M84.884857,54.113316   C84.423759,53.816307 83.962669,53.519295 83.252716,53.105499   C83.003853,52.988716 82.975624,52.521015 82.996971,52.250938   C83.018318,51.980865 83.099251,51.906937 83.411980,51.946388   C84.188652,52.618225 84.652603,53.250610 85.058739,53.940681   C85.000923,53.998371 84.884857,54.113316 84.884857,54.113316  z"
   id="path174" />
<path
   fill="#FAEEF5"
   opacity="1.000000"
   stroke="none"
   d=" M81.973404,50.297649   C82.161919,49.983444 82.338615,49.974106 82.795921,50.295319   C83.084099,51.052898 83.091675,51.479916 83.099251,51.906937   C83.099251,51.906937 83.018318,51.980865 82.976677,52.017548   C82.610550,51.570320 82.286072,51.086414 81.973404,50.297649  z"
   id="path176" />
<path
   fill="#FAEBF3"
   opacity="1.000000"
   stroke="none"
   d=" M97.676758,96.991898   C97.984772,97.422302 97.961655,97.852486 97.877457,98.599747   C97.410728,98.961197 97.005081,99.005569 96.292908,99.024734   C96.439476,98.330238 96.892555,97.660957 97.676758,96.991898  z"
   id="path178" />
<path
   fill="#FAEBF3"
   opacity="1.000000"
   stroke="none"
   d=" M93.993484,100.371933   C94.017906,100.045464 94.510544,100.000145 94.757767,99.992279   C94.851418,100.564484 94.697830,101.144547 94.266556,101.864777   C93.982262,101.569435 93.975662,101.133911 93.993484,100.371933  z"
   id="path180" />
<path
   fill="#FAEBF3"
   opacity="1.000000"
   stroke="none"
   d=" M95.242004,99.945320   C95.160271,99.721428 95.336342,99.434502 95.757767,99.067139   C95.835350,99.285233 95.667572,99.583763 95.242004,99.945320  z"
   id="path182" />
<path
   fill="#FAEEF5"
   opacity="1.000000"
   stroke="none"
   d=" M87.802147,57.179626   C86.877586,56.366367 85.953018,55.553108 84.956657,54.426582   C84.884857,54.113316 85.000923,53.998371 85.379654,53.998745   C86.537888,54.965366 87.317406,55.931610 88.024536,56.969677   C87.952164,57.041496 87.802147,57.179626 87.802147,57.179626  z"
   id="path184" />
<path
   fill="#FAEEF5"
   opacity="1.000000"
   stroke="none"
   d=" M88.956970,59.043644   C88.903603,59.096020 88.459808,59.019596 88.237450,58.984509   C87.972504,58.554489 87.929916,58.159557 87.844742,57.472126   C87.802147,57.179626 87.952164,57.041496 88.255981,56.988945   C88.559792,56.936390 89.025658,56.959908 89.048492,57.282074   C89.086800,58.031879 89.102264,58.459522 89.117737,58.887161   C89.117737,58.887161 89.010345,58.991268 88.956970,59.043644  z"
   id="path186" />
<path
   fill="#F1EEF6"
   opacity="1.000000"
   stroke="none"
   d=" M103.014114,68.656464   C101.985817,67.253342 100.969643,65.486099 99.967377,63.356110   C100.996269,64.759689 102.011253,66.526016 103.014114,68.656464  z"
   id="path188" />
<path
   fill="#F1EEF6"
   opacity="1.000000"
   stroke="none"
   d=" M99.032700,60.645973   C98.517853,60.746239 98.037170,60.472836 97.283218,59.721378   C96.966553,58.525181 96.923149,57.807041 96.956604,57.027916   C97.033470,56.966927 97.186150,56.843636 97.186150,56.843636   C97.608025,57.161083 98.029900,57.478535 98.688461,57.912113   C98.972389,58.776264 99.019630,59.524284 99.032700,60.645973  z"
   id="path190" />
<path
   fill="#F1EEF6"
   opacity="1.000000"
   stroke="none"
   d=" M104.031616,71.680725   C103.647240,71.242142 103.288589,70.456924 102.956558,69.329773   C103.341232,69.769920 103.699295,70.551994 104.031616,71.680725  z"
   id="path192" />
<path
   fill="#F1EEF6"
   opacity="1.000000"
   stroke="none"
   d=" M100.017975,62.704544   C99.654541,62.551277 99.309830,62.082748 98.973389,61.303478   C99.333328,61.458252 99.685013,61.923767 100.017975,62.704544  z"
   id="path194" />
<path
   fill="#FAEBF3"
   opacity="1.000000"
   stroke="none"
   d=" M100.960251,94.511246   C100.121147,95.493111 99.342644,96.143845 98.278854,96.902176   C97.972099,96.560837 97.950645,96.111900 97.937027,95.324593   C99.074684,93.663368 100.204498,92.340508 101.672668,91.003006   C101.680969,92.052277 101.350906,93.116196 100.960251,94.511246  z"
   id="path196" />
<path
   fill="#FAEBF3"
   opacity="1.000000"
   stroke="none"
   d=" M103.733887,88.127472   C103.854492,88.564461 103.698723,89.146156 103.266327,89.872559   C103.145645,89.435562 103.301575,88.853867 103.733887,88.127472  z"
   id="path198" />
<path
   fill="#FAEBF3"
   opacity="1.000000"
   stroke="none"
   d=" M102.751617,90.042343   C102.845581,90.287704 102.676353,90.589409 102.247314,90.951721   C102.154488,90.707771 102.321457,90.403229 102.751617,90.042343  z"
   id="path200" />
<path
   fill="#FAEBF3"
   opacity="1.000000"
   stroke="none"
   d=" M104.759003,87.051086   C104.846779,87.288597 104.677383,87.592911 104.246544,87.955620   C104.157349,87.715302 104.329590,87.416595 104.759003,87.051086  z"
   id="path202" />
<path
   fill="#F1EEF6"
   opacity="1.000000"
   stroke="none"
   d=" M86.115845,39.915592   C85.392357,38.181965 84.668861,36.448341 83.975594,34.348083   C85.072647,34.709759 86.139465,35.438065 87.508263,36.287613   C88.660545,38.475849 89.510864,40.542835 90.619987,42.828438   C90.928993,43.465492 90.979187,43.883934 91.000572,44.665833   C90.971764,45.029285 90.865791,45.127274 90.548889,45.053291   C88.859947,43.291401 87.487900,41.603497 86.115845,39.915592  z"
   id="path204" />
<path
   fill="#F1EEF6"
   opacity="1.000000"
   stroke="none"
   d=" M96.657288,53.810074   C96.981888,54.728241 97.044922,55.436237 97.147057,56.493935   C97.186150,56.843636 97.033470,56.966927 96.677322,56.844971   C94.851746,54.148262 93.382332,51.573513 91.913757,48.683174   C91.890060,47.949055 91.865532,47.530525 91.915222,47.055984   C91.989441,46.999973 92.135216,46.884525 92.135216,46.884525   C92.880539,47.547119 93.625854,48.209717 94.615829,49.047497   C95.372231,50.681759 95.883972,52.140831 96.657288,53.810074  z"
   id="path206" />
<path
   fill="#F1EEF6"
   opacity="1.000000"
   stroke="none"
   d=" M91.025551,44.981171   C91.396080,45.394444 91.712822,45.855827 92.082390,46.600868   C92.135216,46.884525 91.989441,46.999973 91.685738,46.878639   C91.209953,46.213959 91.037872,45.670616 90.865799,45.127274   C90.865791,45.127274 90.971764,45.029285 91.025551,44.981171  z"
   id="path208" />
<path
   fill="#F1EEF6"
   opacity="1.000000"
   stroke="none"
   d=" M84.001770,33.674042   C83.325325,33.230778 82.631126,32.465363 81.968170,31.340904   C82.660957,31.771870 83.322487,32.561878 84.001770,33.674042  z"
   id="path210" />
<path
   fill="#D8B1D3"
   opacity="1.000000"
   stroke="none"
   d=" M90.548897,45.053291   C91.037872,45.670616 91.209953,46.213959 91.611511,46.934650   C91.865532,47.530525 91.890060,47.949055 91.551041,48.766850   C90.466881,51.764046 89.746269,54.361977 89.025658,56.959908   C89.025658,56.959908 88.559792,56.936390 88.328354,56.917122   C87.317406,55.931610 86.537888,54.965366 85.437469,53.941055   C84.652603,53.250610 84.188652,52.618225 83.411980,51.946388   C83.091675,51.479916 83.084099,51.052898 83.061203,50.303802   C83.865234,46.805882 84.684578,43.630032 85.809883,40.184887   C87.487900,41.603497 88.859947,43.291401 90.548897,45.053291  z"
   id="path212" />
<path
   fill="#E8ABCD"
   opacity="1.000000"
   stroke="none"
   d=" M89.048492,57.282074   C89.746269,54.361977 90.466881,51.764046 91.550201,49.082436   C93.382332,51.573513 94.851746,54.148262 96.600456,56.905956   C96.923149,57.807041 96.966553,58.525181 97.029213,59.603073   C96.216026,60.832203 95.383575,61.701584 94.297592,62.777584   C92.618912,61.646721 91.193771,60.309238 89.443176,58.929459   C89.102264,58.459522 89.086800,58.031879 89.048492,57.282074  z"
   id="path214" />
</svg>
