<?xml version="1.0" encoding="UTF-8" standalone="no"?>
<svg
   viewBox="0 0 32 32"
   width="32"
   height="32"
   version="1.1"
   id="svg12"
   sodipodi:docname="file_log.svg"
   inkscape:version="1.2.2 (b0a8486541, 2022-12-01)"
   xmlns:inkscape="http://www.inkscape.org/namespaces/inkscape"
   xmlns:sodipodi="http://sodipodi.sourceforge.net/DTD/sodipodi-0.dtd"
   xmlns="http://www.w3.org/2000/svg"
   xmlns:svg="http://www.w3.org/2000/svg">
  <defs
     id="defs16" />
  <sodipodi:namedview
     id="namedview14"
     pagecolor="#ffffff"
     bordercolor="#000000"
     borderopacity="0.25"
     inkscape:showpageshadow="2"
     inkscape:pageopacity="0.0"
     inkscape:pagecheckerboard="0"
     inkscape:deskcolor="#d1d1d1"
     showgrid="false"
     inkscape:zoom="7.375"
     inkscape:cx="13.288136"
     inkscape:cy="16"
     inkscape:window-width="1920"
     inkscape:window-height="1154"
     inkscape:window-x="0"
     inkscape:window-y="20"
     inkscape:window-maximized="1"
     inkscape:current-layer="svg12" />
  <title
     id="title2">file_type_text</title>
  <path
     d="M22.038,2H6.375a1.755,1.755,0,0,0-1.75,1.75v24.5A1.755,1.755,0,0,0,6.375,30h19.25a1.755,1.755,0,0,0,1.75-1.75V6.856Zm.525,2.844,1.663,1.531H22.563ZM6.375,28.25V3.75H20.813V8.125h4.813V28.25Z"
     style="fill:#a7ac93"
     id="path4" />
  <rect
     x="8.125"
     y="22.8"
     width="14.75"
     height="1.7"
     style="fill:#916f6f"
     id="rect6" />
  <rect
     x="8.125"
     y="17.3"
     width="14.75"
     height="1.5"
     style="fill:#916f6f"
     id="rect8" />
  <rect
     x="8.125"
     y="11.5"
     width="14.75"
     height="1.7"
     style="fill:#916f6f"
     id="rect10" />
  <path
     style="fill:#a7ac93;stroke-width:1.35593"
     d="m 8.2033898,12.338983 v -0.813559 h 7.3220342 7.322034 v 0.813559 0.813559 H 15.525424 8.2033898 Z"
     id="path705" />
  <path
     style="fill:#a7ac93;stroke-width:1.35593"
     d="m 8.2033898,18.033898 v -0.677966 h 7.3220342 7.322034 v 0.677966 0.677966 H 15.525424 8.2033898 Z"
     id="path707" />
  <path
     style="fill:#676c53;stroke-width:1.35593"
     d="m 8.2033898,23.661017 v -0.745763 h 7.3220342 7.322034 v 0.745763 0.745763 H 15.525424 8.2033898 Z"
     id="path709" />
  <path
     style="fill:#676c53;stroke-width:1.35593"
     d="M 5.6354798,29.718336 C 5.3813885,29.582066 5.0620015,29.262679 4.9257309,29.008588 4.6908869,28.570696 4.6779661,27.892305 4.6779661,16 4.6779661,4.1076948 4.6908869,3.4293039 4.9257309,2.991412 5.0620015,2.7373207 5.3813885,2.4179337 5.6354798,2.2816631 6.0678969,2.0497552 6.6052595,2.0339659 14.031783,2.0349539 l 7.934319,0.00106 2.644067,2.4089929 2.644068,2.4089929 0.0347,10.8448133 c 0.03294,10.294331 0.02208,10.868341 -0.213866,11.308289 -0.13671,0.25491 -0.456456,0.574968 -0.710547,0.711238 -0.435347,0.23348 -1.032967,0.247766 -10.364521,0.247766 -9.3315536,0 -9.9291742,-0.01429 -10.3645202,-0.247766 z M 25.694915,18.169492 V 8 H 23.254237 20.813559 V 5.8305085 3.6610169 H 13.559322 6.3050847 V 16 28.338983 H 16 25.694915 Z M 23.457627,5.559322 c -0.442789,-0.4474576 -0.852743,-0.8135593 -0.91101,-0.8135593 -0.05827,0 -0.105939,0.3661017 -0.105939,0.8135593 v 0.8135594 h 0.91101 0.911009 z"
     id="path929" />
  <path
     style="fill:#676c53;stroke-width:1.35593"
     d="m 8.2033898,12.338983 v -0.813559 h 7.3220342 7.322034 v 0.813559 0.813559 H 15.525424 8.2033898 Z"
     id="path931" />
  <path
     style="fill:#445500;stroke-width:1.35593"
     d="m 8.2033898,18.033898 v -0.677966 h 7.3220342 7.322034 v 0.677966 0.677966 H 15.525424 8.2033898 Z"
     id="path933" />
  <path
     style="fill:#445500;stroke-width:1.35593"
     d="M 8.9853557,29.836389 5.7673216,29.762712 5.3243388,29.319603 4.8813559,28.876494 4.7696249,22.438247 c -0.061452,-3.541036 -0.061452,-9.335458 0,-12.8764936 L 4.8813559,3.1235068 5.3243967,2.6803975 5.7674374,2.2372881 8.7142271,2.1503037 c 1.6207339,-0.047841 5.2412289,-0.093604 8.0455439,-0.101695 l 5.098755,-0.01471 2.65792,2.4067797 2.657921,2.4067796 -0.02786,11.014379 -0.02786,11.014379 -0.443006,0.443248 -0.443006,0.443248 -3.624791,0.08589 c -4.153266,0.09841 -8.979846,0.09408 -13.6224853,-0.01222 z M 25.694915,18.169492 V 8 H 23.254237 20.813559 V 5.8305085 3.6610169 H 13.559322 6.3050847 V 16 28.338983 H 16 25.694915 Z M 23.572822,5.5567596 C 23.114144,5.1107113 22.671771,4.7457627 22.589771,4.7457627 c -0.09183,0 -0.149093,0.3124739 -0.149093,0.8135593 v 0.8135594 l 0.983051,-0.00256 0.983051,-0.00256 -0.833958,-0.8109968 z"
     id="path1087" />
  <path
     style="fill:#445500;stroke-width:1.35593"
     d="m 8.2033898,12.338983 v -0.813559 h 7.3220342 7.322034 v 0.813559 0.813559 H 15.525424 8.2033898 Z"
     id="path1089" />
  <path
     style="fill:#53676c;stroke-width:1.35593"
     d="m 8.2033898,23.661017 v -0.745763 h 7.3220342 7.322034 v 0.745763 0.745763 H 15.525424 8.2033898 Z"
     id="path1091" />
  <path
     style="fill:#53676c;stroke-width:1.35593"
     d="M 7.1747817,29.737283 C 5.8147676,29.686203 5.8046257,29.683273 5.3442732,29.208311 L 4.8813559,28.730701 V 15.994728 3.258757 L 5.3828,2.757313 5.8842441,2.2558689 l 7.9731319,-0.082248 7.973132,-0.082248 2.61017,2.3688867 2.610169,2.3688868 V 17.828652 28.828159 l -0.480183,0.465411 -0.480183,0.465412 -8.774054,0.01483 c -4.82573,0.0082 -9.3894701,-0.0083 -10.1416453,-0.03653 z M 25.694915,18.169492 V 8 H 23.254237 20.813559 V 5.8305085 3.6610169 H 13.559322 6.3050847 V 16 28.338983 H 16 25.694915 Z M 23.663921,5.5529247 c -0.483148,-0.4439391 -0.956029,-0.807162 -1.050847,-0.807162 -0.120311,0 -0.172396,0.245798 -0.172396,0.8135593 v 0.8135594 l 1.050847,-0.0064 1.050848,-0.0064 z"
     id="path1162" />
  <path
     style="fill:#53676c;stroke-width:1.35593"
     d="m 8.2033898,12.338983 v -0.813559 h 7.3220342 7.322034 v 0.813559 0.813559 H 15.525424 8.2033898 Z"
     id="path1164" />
  <path
     style="fill:#53676c;stroke-width:1.35593"
     d="m 8.2033898,18.033898 v -0.677966 h 7.3220342 7.322034 v 0.677966 0.677966 H 15.525424 8.2033898 Z"
     id="path1166" />
</svg>
