<?xml version="1.0" encoding="UTF-8" standalone="no"?>
<svg
   viewBox="0 0 32 32"
   width="32"
   height="32"
   version="1.1"
   id="svg17"
   sodipodi:docname="file_assembly.svg"
   inkscape:version="1.2.2 (b0a8486541, 2022-12-01)"
   xmlns:inkscape="http://www.inkscape.org/namespaces/inkscape"
   xmlns:sodipodi="http://sodipodi.sourceforge.net/DTD/sodipodi-0.dtd"
   xmlns="http://www.w3.org/2000/svg"
   xmlns:svg="http://www.w3.org/2000/svg">
  <sodipodi:namedview
     id="namedview19"
     pagecolor="#ffffff"
     bordercolor="#000000"
     borderopacity="0.25"
     inkscape:showpageshadow="2"
     inkscape:pageopacity="0.0"
     inkscape:pagecheckerboard="0"
     inkscape:deskcolor="#d1d1d1"
     showgrid="false"
     inkscape:zoom="32"
     inkscape:cx="25.5"
     inkscape:cy="20.984375"
     inkscape:window-width="1920"
     inkscape:window-height="1034"
     inkscape:window-x="0"
     inkscape:window-y="20"
     inkscape:window-maximized="1"
     inkscape:current-layer="svg17" />
  <defs
     id="defs7">
    <linearGradient
       id="a"
       x1="836.63"
       y1="36.205"
       x2="843.802"
       y2="14.48"
       gradientTransform="translate(525.922 30.249) rotate(180) scale(0.607 0.607)"
       gradientUnits="userSpaceOnUse">
      <stop
         offset="0"
         stop-color="#fff"
         stop-opacity="0"
         id="stop2" />
      <stop
         offset="1"
         stop-color="#fff"
         stop-opacity="0.275"
         id="stop4" />
    </linearGradient>
  </defs>
  <title
     id="title9">file_type_assembly</title>
  <path
     d="M16,2c-1.246,3.056-2,5.057-3.391,8.022A21.884,21.884,0,0,0,16.2,13.156a14.858,14.858,0,0,1-4-2.283C10.43,14.579,7.646,19.855,2,30c5.186-2.994,9.012-4.648,12.691-4.966V24.2h-.834v-.837h.834V24.2h1.675V22.521H14.691v-.834h-.834V20.013h.834v-.834h1.675v.834H17.2v.837h-.837v-.837H14.691v1.675h1.675v.834H17.2V24.2h-.837v.783c3.98.1,8.006,1.772,13.634,5.021-.863-1.589-1.636-3.021-2.372-4.385a25.526,25.526,0,0,0-4.833-3.333A14.436,14.436,0,0,1,26.65,23.8C19.17,9.872,18.565,8.02,16,2ZM10.511,19.179h1.671v.834h.837v5.021h-.837V22.521H10.511v2.512H9.673V20.013h.837Zm0,.834v1.675h1.671V20.013Zm7.526-.834h.837v.834h.837v.837h.834v-.837h.837v-.834h.837v5.855h-.837V20.85h-.837v.837h-.834V20.85h-.837v4.184h-.837Z"
     style="fill:#0000bf"
     id="path11" />
  <path
     d="M23.881,18.642c-6.069-8.237-7.476-14.876-7.832-16.461A175.217,175.217,0,0,0,23.881,18.642Z"
     style="fill:#fff;fill-opacity:0.165680468082428"
     id="path13" />
  <path
     d="M16.051,2.12,15.6,3.227c-.159.391-.311.765-.461,1.131s-.3.724-.448,1.077-.3.7-.448,1.053-.3.706-.465,1.066-.329.729-.506,1.111-.362.778-.561,1.193c-.028.057-.061.123-.089.181A21.872,21.872,0,0,0,16.2,13.156a14.879,14.879,0,0,1-3.989-2.276l-.14.287c-.065.133-.144.283-.212.42l-.106.219c-.878,1.793-2.006,3.984-3.524,6.822,3.551-2,7.381-4.887,14.338-2.4-.349-.661-.67-1.28-.971-1.863s-.581-1.128-.841-1.644-.5-1-.725-1.463-.433-.9-.629-1.313-.38-.818-.554-1.2-.339-.754-.5-1.118S18.047,6.9,17.9,6.546s-.291-.709-.434-1.066c-.036-.091-.073-.186-.109-.277C16.949,4.247,16.536,3.258,16.051,2.12Z"
     style="fill:url(#a)"
     id="path15" />
  <path
     style="fill:#5555ff;stroke-width:0.0376028"
     d="m 2.0392725,29.944557 c 0.013146,-0.03426 0.5050304,-0.931041 1.0930753,-1.992848 4.373365,-7.896793 6.7558579,-12.366943 8.6830762,-16.291615 0.202244,-0.41186 0.374043,-0.755162 0.381774,-0.762893 0.0077,-0.0077 0.161698,0.0973 0.342149,0.233398 0.7217,0.544319 1.479805,1.011646 2.337597,1.440989 0.45487,0.227672 1.181113,0.543876 1.201751,0.523239 0.006,-0.006 -0.200133,-0.168551 -0.458024,-0.361273 -0.594164,-0.444017 -1.104083,-0.867511 -1.738136,-1.443545 -0.57136,-0.519078 -1.247987,-1.215226 -1.247987,-1.283993 0,-0.025514 0.166595,-0.4090442 0.370211,-0.8522893 0.556206,-1.2107845 1.260659,-2.872869 2.165562,-5.109421 0.447227,-1.1053616 0.818646,-2.0152549 0.825376,-2.0219851 0.0067,-0.00673 0.110067,0.2208057 0.229638,0.5056355 0.647114,1.5414984 1.948226,4.5569424 2.34081,5.4250404 1.516836,3.3540865 3.895607,8.0328785 7.497943,14.7476645 0.30729,0.57279 0.558709,1.048829 0.558709,1.057864 0,0.009 -0.277952,-0.123549 -0.61767,-0.29463 -0.686908,-0.345924 -1.546661,-0.696016 -2.202542,-0.896874 -0.484965,-0.148516 -0.875175,-0.251971 -0.890936,-0.23621 -0.0058,0.0058 0.137351,0.09268 0.318023,0.19316 1.335448,0.742692 2.906681,1.826005 3.999134,2.75727 l 0.399193,0.340293 1.173451,2.168096 c 0.645399,1.192453 1.167994,2.173505 1.161324,2.180116 -0.0067,0.0066 -0.106445,-0.04355 -0.221722,-0.111461 C 29.625775,29.790371 29.15198,29.523756 28.688173,29.265807 23.590848,26.4309 20.152968,25.196598 16.817861,25.004011 l -0.460634,-0.0266 v -0.389998 -0.389998 h -0.827262 -0.827262 v 0.412914 c 0,0.47305 0.04017,0.429224 -0.432433,0.471838 -0.144771,0.01305 -0.550881,0.07181 -0.902467,0.130564 -2.819624,0.471205 -6.0231179,1.776865 -10.3783788,4.229953 -0.4343126,0.244626 -0.8311482,0.471636 -0.8818569,0.504468 -0.084969,0.05501 -0.090323,0.05481 -0.068295,-0.0026 z m 8.4608085,-6.170174 0.0099,-1.250294 0.836663,-0.01012 0.836663,-0.01012 v 1.260414 1.260414 h 0.413631 0.413631 V 22.524089 20.023502 H 12.596945 12.183314 V 19.609871 19.19624 H 11.356052 10.52879 v 0.413631 0.413631 h 0.827262 0.827262 v 0.827262 0.827262 H 11.33725 10.491187 V 20.850764 20.023502 H 10.077556 9.6639248 v 2.500587 2.500588 h 0.4131242 0.413124 z m 8.376535,-0.836663 v -2.086956 h 0.413631 0.413631 v 0.413631 0.413631 h 0.413631 0.413631 v -0.413631 -0.413631 h 0.432432 0.432433 v 2.086956 2.086957 h 0.413631 0.413631 V 22.110458 19.19624 h -0.413631 -0.413631 v 0.413631 0.413631 H 20.963572 20.53114 v 0.413631 0.413631 H 20.117509 19.703878 V 20.437133 20.023502 H 19.290247 18.876616 V 19.609871 19.19624 h -0.413631 -0.413631 v 2.914218 2.914219 h 0.413631 0.413631 z m -4.173913,0.846064 v -0.413631 h -0.413631 -0.413631 v 0.413631 0.413631 h 0.413631 0.413631 z m 2.481786,-0.413631 v -0.827262 h -0.413631 -0.413631 v 0.827262 0.827262 h 0.413631 0.413631 z m -0.827262,-1.278496 v -0.413631 h -0.827262 -0.827262 v -0.827262 -0.827262 h 0.827262 0.827262 v 0.413631 0.413631 h 0.413631 0.413631 V 20.437133 20.023502 H 16.770858 16.357227 V 19.609871 19.19624 h -0.827262 -0.827262 v 0.413631 0.413631 h -0.413631 -0.413631 v 0.827262 0.827262 h 0.413631 0.413631 v 0.413631 0.413631 h 0.827262 0.827262 z"
     id="path194" />
  <path
     style="fill:#5555ff;stroke-width:0.00390625"
     d="m 6.3632812,22.120035 v -0.04207 l 0.090261,-0.165934 C 7.4808235,20.023505 8.367473,18.37169 9.0686597,17.040101 l 0.081731,-0.155211 4.2373043,-6.2e-5 4.237305,-6.2e-5 v 2.638671 2.638672 H 16.992187 16.359375 V 21.925781 21.689453 H 15.53125 14.703125 v 0.236328 0.236328 h -0.845703 -0.845703 v -1.070312 -1.070313 h -0.414054 -0.414053 l -9.86e-4,0.833008 -9.85e-4,0.833008 -0.834961,9.86e-4 c -0.740589,8.74e-4 -0.834961,3.2e-4 -0.834961,-0.0049 0,-0.0037 -0.0037,-0.0059 -0.0098,-0.0059 h -0.0098 V 20.849543 20.0214 l -0.40918,9.95e-4 -0.4091799,9.94e-4 -9.836e-4,1.069336 -9.836e-4,1.069336 H 8.0175711 6.3632812 Z M 14.691406,20.849609 V 20.021484 H 14.283203 13.875 v 0.828125 0.828125 h 0.408203 0.408203 z m 2.492188,-0.414062 v -0.414063 h -0.410157 -0.410156 v 0.414063 0.414062 h 0.410156 0.410157 z m -5.001953,-0.832031 v -0.408204 h -0.826172 -0.826172 l -9.95e-4,0.409189 -9.94e-4,0.409189 0.827166,-9.86e-4 0.827167,-9.85e-4 z m 4.176775,9.76e-4 -9.94e-4,-0.40918 -0.827149,-9.85e-4 -0.827148,-9.86e-4 v 0.410166 0.410165 h 0.828143 0.828143 z"
     id="path196" />
  <path
     style="fill:#ffffff;stroke-width:0.03125"
     d="M 12.1875,23.782157 V 22.515625 H 11.34375 10.5 v 1.25 1.25 H 10.078125 9.65625 l 3.31e-5,-0.882813 c 1.82e-5,-0.485546 0.00935,-1.610546 0.020734,-2.5 l 0.020701,-1.617187 h 0.4006309 0.40063 l 0.0083,0.835937 0.0083,0.835938 h 0.828125 0.828125 l 0.0083,-0.835938 0.0083,-0.835937 h 0.401975 0.401975 l 0.02182,2.132812 c 0.012,1.173047 0.01721,2.301563 0.01158,2.507813 l -0.01024,0.375 -0.414063,0.0087 -0.414062,0.0087 z"
     id="path256" />
  <path
     style="fill:#ffffff;stroke-width:0.03125"
     d="m 10.53125,19.609375 v -0.40625 h 0.828125 0.828125 v 0.40625 0.40625 H 11.359375 10.53125 Z"
     id="path258" />
  <path
     style="fill:#ffffff;stroke-width:0.03125"
     d="M 12.1875,23.78125 V 22.515625 H 11.34375 10.5 v 1.25 1.25 H 10.078125 9.65625 v -1.838711 c 0,-1.011292 0.00927,-2.136292 0.020594,-2.5 l 0.020594,-0.661289 h 0.396695 0.396695 l 0.02021,0.23909 c 0.01112,0.131499 0.02021,0.504156 0.02021,0.828125 v 0.589035 h 0.8125 0.8125 V 21.08284 c 0,-0.323969 0.0091,-0.696626 0.02021,-0.828125 l 0.02021,-0.23909 h 0.396713 0.396712 l 0.02058,0.6144 c 0.01132,0.33792 0.02058,1.469952 0.02058,2.515625 v 1.901225 H 12.609375 12.1875 Z"
     id="path260" />
  <path
     style="fill:#ffffff;stroke-width:0.03125"
     d="m 13.875,20.84375 v -0.828125 h 0.40625 0.40625 v 0.828125 0.828125 H 14.28125 13.875 Z"
     id="path262" />
  <path
     style="fill:#ffffff;stroke-width:0.03125"
     d="m 14.6875,19.609375 v -0.40625 h 0.84375 0.84375 v 0.40625 0.40625 H 15.53125 14.6875 Z"
     id="path264" />
  <path
     style="fill:#ffffff;stroke-width:0.03125"
     d="m 16.375,20.4375 v -0.421875 h 0.40625 0.40625 V 20.4375 20.859375 H 16.78125 16.375 Z"
     id="path266" />
  <path
     style="fill:#ffffff;stroke-width:0.03125"
     d="m 14.6875,22.109375 v -0.40625 h 0.84375 0.84375 v 0.40625 0.40625 H 15.53125 14.6875 Z"
     id="path268" />
  <path
     style="fill:#ffffff;stroke-width:0.03125"
     d="m 13.875,23.78125 v -0.421875 h 0.40625 0.40625 v 0.421875 0.421875 H 14.28125 13.875 Z"
     id="path270" />
  <path
     style="fill:#ffffff;stroke-width:0.03125"
     d="m 16.375,23.359375 v -0.84375 h 0.40625 0.40625 v 0.84375 0.84375 H 16.78125 16.375 Z"
     id="path272" />
  <path
     style="fill:#ffffff;stroke-width:0.03125"
     d="m 18.045646,25.007812 c -0.0082,-0.02148 -0.01127,-1.339843 -0.0068,-2.929687 l 0.0081,-2.890625 0.414062,-0.0087 0.414063,-0.0087 v 0.422782 0.422782 h 0.421875 0.421875 V 20.4375 20.859375 H 19.296875 18.875 v 2.09375 2.09375 h -0.407231 c -0.297008,0 -0.411261,-0.01057 -0.422123,-0.03906 z"
     id="path274" />
  <path
     style="fill:#ffffff;stroke-width:0.03125"
     d="m 19.71875,21.265625 v -0.40625 h 0.40625 0.40625 v 0.40625 0.40625 H 20.125 19.71875 Z"
     id="path276" />
  <path
     style="fill:#ffffff;stroke-width:0.03125"
     d="m 18.052083,25.026042 c -0.01146,-0.01146 -0.02083,-1.333334 -0.02083,-2.9375 V 19.171875 H 18.453125 18.875 v 0.421875 0.421875 h 0.421875 0.421875 V 20.4375 20.859375 H 19.296875 18.875 v 2.09375 2.09375 h -0.401042 c -0.220573,0 -0.410416,-0.0094 -0.421875,-0.02083 z"
     id="path267" />
  <path
     style="fill:#ffffff;stroke-width:0.03125"
     d="m 19.71875,21.265625 v -0.40625 h 0.40625 0.40625 v 0.40625 0.40625 H 20.125 19.71875 Z"
     id="path269" />
  <path
     style="fill:#ffffff;stroke-width:0.03125"
     d="M 21.395833,25.026042 C 21.384375,25.014583 21.375,24.072396 21.375,22.932292 V 20.859375 H 20.953125 20.53125 V 20.4375 20.015625 h 0.420968 0.420968 l 0.0087,-0.414063 0.0087,-0.414062 0.414062,-0.0087 0.414063,-0.0087 v 2.938407 2.938407 h -0.401042 c -0.220573,0 -0.410416,-0.0094 -0.421875,-0.02083 z"
     id="path271" />
  <path
     style="fill:#ffffff;stroke-width:0.03125"
     d="m 18.03125,22.109375 v -2.9375 H 18.453125 18.875 v 0.421875 0.421875 h 0.421875 0.421875 V 20.4375 20.859375 H 19.296875 18.875 v 2.09375 2.09375 H 18.453125 18.03125 Z"
     id="path273" />
  <path
     style="fill:#ffffff;stroke-width:0.03125"
     d="m 19.71875,21.265625 v -0.40625 h 0.40625 0.40625 v 0.40625 0.40625 H 20.125 19.71875 Z"
     id="path275" />
</svg>
