<?xml version="1.0" encoding="UTF-8" standalone="no"?>
<svg
   version="1.1"
   id="Layer_1"
   x="0px"
   y="0px"
   width="100%"
   viewBox="0 0 200 200"
   enable-background="new 0 0 200 200"
   xml:space="preserve"
   sodipodi:docname="file.svg"
   inkscape:version="1.2.2 (b0a8486541, 2022-12-01)"
   xmlns:inkscape="http://www.inkscape.org/namespaces/inkscape"
   xmlns:sodipodi="http://sodipodi.sourceforge.net/DTD/sodipodi-0.dtd"
   xmlns="http://www.w3.org/2000/svg"
   xmlns:svg="http://www.w3.org/2000/svg"><defs
   id="defs25" /><sodipodi:namedview
   id="namedview23"
   pagecolor="#ffffff"
   bordercolor="#000000"
   borderopacity="0.25"
   inkscape:showpageshadow="2"
   inkscape:pageopacity="0.0"
   inkscape:pagecheckerboard="0"
   inkscape:deskcolor="#d1d1d1"
   showgrid="false"
   inkscape:zoom="3.605"
   inkscape:cx="220.24965"
   inkscape:cy="100.1387"
   inkscape:window-width="1920"
   inkscape:window-height="1034"
   inkscape:window-x="0"
   inkscape:window-y="20"
   inkscape:window-maximized="1"
   inkscape:current-layer="Layer_1" />

<path
   fill="#fdb2b1"
   opacity="1"
   stroke="none"
   d="m 74.94104,130.94197 c -7.788261,5.82745 -14.173244,5.42986 -21.36512,-1.08647 -4.240486,-3.84217 -8.694641,-7.44852 -14.08678,-12.04179 0,3.43765 0.117572,5.52088 -0.02107,7.58692 -0.50568,7.53577 -6.365517,12.8698 -14.280777,13.09723 -8.024399,0.23056 -14.075395,-4.18988 -14.764405,-11.71592 C 8.882964,109.96137 7.552691,93.113609 6.595162,76.250916 6.085583,67.276894 11.405621,61.49332 19.45145,61.002663 c 9.354716,-0.570473 14.633515,3.756622 16.057274,13.13121 0.162297,1.068619 0.462052,2.116364 0.83939,3.806908 4.266705,-4.980584 8.155487,-9.435807 11.951641,-13.968609 8.235367,-9.833454 20.008412,-8.02586 25.400715,4.362545 -0.04823,3.517296 -0.440811,6.553146 -1.141144,9.718796 -2.83448,3.143341 -5.375961,6.144653 -7.885177,9.172691 -7.841691,9.463104 -7.838429,9.46907 2.290344,16.756766 0.248855,0.17906 0.625755,0.18015 1.042717,0.57253 2.050239,2.03003 4.000702,3.75178 6.129448,5.7706 3.822075,4.48439 5.363029,9.21925 3.753601,15.00746 -1.104462,2.05642 -2.02684,3.83241 -2.949219,5.60841 M 49.004894,73.500183 C 43.282455,80.074356 37.56002,86.648529 31.289387,93.852486 30.488747,86.942085 29.939333,80.879471 29.044886,74.868195 c -0.820296,-5.512925 -3.6915,-7.444886 -9.465124,-6.878533 -4.620459,0.453247 -6.722224,2.833008 -6.591731,8.211289 0.152868,6.300361 0.516064,12.60456 1.051321,18.884666 0.872673,10.238923 1.788441,20.480493 3.036393,30.678083 0.519069,4.24156 3.806121,6.25376 7.881755,6.07889 4.15734,-0.17841 7.533299,-2.07887 7.906109,-6.74461 0.236042,-2.95407 -0.168255,-5.9615 -0.315521,-8.9435 -0.200184,-4.0536 -0.42918,-8.10578 -0.725765,-13.65405 2.699398,2.15416 4.223938,3.2966 5.666546,4.53451 7.306167,6.26951 14.516395,12.65352 21.914451,18.81216 3.782029,3.14841 8.671379,2.83166 11.174599,-0.29659 2.535645,-3.16877 1.85347,-7.97321 -1.672745,-11.06392 -5.868881,-5.14403 -11.703418,-10.33348 -17.728412,-15.289858 -2.16589,-1.781731 -2.556652,-3.118584 -0.665486,-5.286255 4.797196,-5.498589 9.453373,-11.11995 14.197945,-16.664826 2.990028,-3.494377 3.028564,-8.037948 0.0239,-10.700973 -3.641968,-3.227879 -6.798405,-3.078987 -10.457295,0.70327 -1.726127,1.784332 -3.198608,3.814041 -5.270935,6.252235 z"
   id="path4" />
<path
   fill="#94e4fd"
   opacity="1"
   stroke="none"
   d="m 75.300537,131.09282 c 0.562882,-1.92685 1.48526,-3.70284 2.979164,-5.69747 7.252907,1.02432 13.893257,2.59688 20.625046,3.43494 10.792333,1.34358 21.722283,0.27832 28.882623,-8.56098 14.07223,-17.37194 12.83678,-46.033424 -16.88078,-53.4319 -5.61637,-1.398254 -11.412282,-2.066399 -17.113446,-3.134922 -10.064903,-1.886379 -12.234306,-0.200661 -13.812912,10.044994 -1.866714,12.115509 -4.00264,24.189537 -6.021858,36.281548 -1.950462,-1.72175 -3.900925,-3.4435 -5.713348,-5.80016 1.632721,-9.191677 3.127395,-17.748417 4.62207,-26.305156 0.392563,-3.035851 0.785141,-6.071701 1.15506,-9.433083 6.702453,-12.935322 8.925697,-14.15464 23.823349,-10.916439 8.799345,1.912651 17.529355,4.379459 26.019645,7.366962 3.56292,1.253693 6.42496,4.499245 10.02508,7.305764 2.96875,4.909546 5.51805,9.352569 8.09332,14.216491 0.33438,5.438698 0.64281,10.456498 0.72432,15.777611 -2.02097,5.90139 -3.81502,11.49948 -5.60907,17.09756 -9.74942,13.78756 -23.15549,18.67923 -39.523475,16.02874 -7.335335,-1.18783 -14.611999,-2.73796 -22.274788,-4.2745 z"
   id="path6" />
<path
   fill="#af94fd"
   opacity="1"
   stroke="none"
   d="m 137.23413,119.72154 c 1.65872,-5.98104 3.45277,-11.57913 5.50394,-17.02614 0.57776,5.28604 1.00016,10.41718 1.19391,15.55694 0.25592,6.78905 2.24652,9.00146 9.15474,8.68752 9.94393,-0.4519 19.87696,-1.20989 29.80041,-2.01315 3.73036,-0.30195 6.38332,-2.19362 6.04755,-6.41263 -0.31267,-3.92877 -2.07596,-6.71704 -6.55985,-6.49971 -5.46919,0.26509 -10.9516,0.45624 -16.39387,1.0148 -4.45685,0.45742 -5.99778,-0.9186 -6.11064,-5.65494 -0.28055,-11.773598 -1.16608,-23.537232 -2.00016,-35.291283 -0.40916,-5.766014 -4.44296,-9.426331 -9.29155,-8.928841 -5.22001,0.535599 -8.01291,4.90725 -7.32675,10.974541 0.4464,3.94741 0.48462,7.940979 0.70572,11.913872 -2.5493,-4.443032 -5.0986,-8.886055 -7.76134,-13.641716 1.96924,-10.839127 6.29146,-15.430367 14.32105,-15.645501 9.67582,-0.259243 15.52636,5.246281 15.98866,14.965844 0.53517,11.251777 1.12434,22.500991 1.71994,34.345664 4.66617,-0.25803 9.2415,-0.37588 13.78946,-0.79243 7.92494,-0.72588 14.45847,3.75713 15.44257,10.79459 1.16981,8.36572 -3.53345,14.87715 -12.11225,15.68347 -10.71527,1.00713 -21.48286,1.62824 -32.24171,1.94331 -7.65926,0.22432 -11.48433,-3.92163 -13.86983,-13.97421 z"
   id="path8" />
<path
   fill="#d6f8ff"
   opacity="1"
   stroke="none"
   d="m 74.136658,110.3261 c 1.840934,-12.389081 3.97686,-24.463109 5.843574,-36.578618 1.578606,-10.245655 3.748009,-11.931373 13.812912,-10.044994 5.701164,1.068523 11.497076,1.736668 17.113446,3.134922 29.71756,7.398476 30.95301,36.05996 16.88078,53.4319 -7.16034,8.8393 -18.09029,9.90456 -28.882623,8.56098 -6.731789,-0.83806 -13.372139,-2.41062 -20.44297,-3.71536 1.03791,-5.56958 -0.503044,-10.30444 -4.325119,-14.78883 M 93.501083,94.952469 c -1.098983,6.010831 -2.197967,12.021671 -3.54924,19.412411 5.838043,0.41976 11.338937,1.30336 16.773177,0.9986 2.68775,-0.15073 5.93768,-1.89133 7.74439,-3.95393 5.36089,-6.12022 7.08422,-13.686077 4.79497,-21.423176 -2.26247,-7.646591 -8.7793,-10.31205 -16.19375,-11.085091 -0.65715,-0.06851 -1.32607,-0.173218 -1.95076,-0.378837 -3.145634,-1.035408 -5.010007,-0.459183 -5.378346,3.34507 -0.397919,4.109787 -1.31514,8.169296 -2.240441,13.084953 z"
   id="path10" />
<path
   fill="#ffe4d6"
   opacity="1"
   stroke="none"
   d="m 49.247353,73.240349 c 1.829868,-2.17836 3.302349,-4.208069 5.028476,-5.992401 3.65889,-3.782257 6.815327,-3.931149 10.457295,-0.70327 3.004661,2.663025 2.966125,7.206596 -0.0239,10.700973 -4.744572,5.544876 -9.400749,11.166237 -14.197945,16.664826 -1.891166,2.167671 -1.500404,3.504524 0.665486,5.286255 6.024994,4.956378 11.859531,10.145828 17.728412,15.289858 3.526215,3.09071 4.20839,7.89515 1.672745,11.06392 -2.50322,3.12825 -7.39257,3.445 -11.174599,0.29659 -7.398056,-6.15864 -14.608284,-12.54265 -21.914451,-18.81216 -1.442608,-1.23791 -2.967148,-2.38035 -5.666546,-4.53451 0.296585,5.54827 0.525581,9.60045 0.725765,13.65405 0.147266,2.982 0.551563,5.98943 0.315521,8.9435 -0.37281,4.66574 -3.748769,6.5662 -7.906109,6.74461 -4.075634,0.17487 -7.362686,-1.83733 -7.881755,-6.07889 -1.247952,-10.19759 -2.16372,-20.43916 -3.036393,-30.678083 -0.535257,-6.280106 -0.898453,-12.584305 -1.051321,-18.884666 -0.130493,-5.378281 1.971272,-7.758042 6.591731,-8.211289 5.773624,-0.566353 8.644828,1.365608 9.465124,6.878533 0.894447,6.011276 1.443861,12.07389 2.244501,18.984291 6.270633,-7.203957 11.993068,-13.77813 17.957966,-20.612137 z"
   id="path12" />

<path
   fill="#ecd6ff"
   opacity="1"
   stroke="none"
   d="m 141.98355,86.463409 c -0.24707,-4.393783 -0.28529,-8.387352 -0.73169,-12.334762 -0.68616,-6.067291 2.10674,-10.438942 7.32675,-10.974541 4.84859,-0.49749 8.88239,3.162827 9.29155,8.928841 0.83408,11.754051 1.71961,23.517685 2.00016,35.291283 0.11286,4.73634 1.65379,6.11236 6.11064,5.65494 5.44227,-0.55856 10.92468,-0.74971 16.39387,-1.0148 4.48389,-0.21733 6.24718,2.57094 6.55985,6.49971 0.33577,4.21901 -2.31719,6.11068 -6.04755,6.41263 -9.92345,0.80326 -19.85648,1.56125 -29.80041,2.01315 -6.90822,0.31394 -8.89882,-1.89847 -9.15474,-8.68752 -0.19375,-5.13976 -0.61615,-10.2709 -0.96701,-15.86025 -0.33861,-5.472183 -0.64704,-10.489983 -0.98142,-15.928681 z"
   id="path16" />
<path
   fill="#94e4fe"
   opacity="1"
   stroke="none"
   d="m 93.618378,94.535355 c 0.808006,-4.498543 1.725227,-8.558052 2.123146,-12.667839 0.368339,-3.804253 2.232712,-4.380478 5.378346,-3.34507 0.62469,0.205619 1.29361,0.310325 1.95076,0.378837 7.41445,0.773041 13.93128,3.4385 16.19375,11.085091 2.28925,7.737099 0.56592,15.302956 -4.79497,21.423176 -1.80671,2.0626 -5.05664,3.8032 -7.74439,3.95393 -5.43424,0.30476 -10.935134,-0.57884 -16.773177,-0.9986 1.351273,-7.39074 2.450257,-13.40158 3.666535,-19.829525 M 112.902,91.833397 c -2.1053,-5.085678 -6.40812,-6.081177 -11.5772,-6.30307 -1.12685,7.663589 -2.224107,15.125823 -3.314996,22.544793 7.180446,2.11697 11.724216,0.859 13.536396,-4.43179 1.1814,-3.44918 1.03602,-7.352795 1.3558,-11.809933 z"
   id="path18" />

</svg>
