<?xml version="1.0" encoding="UTF-8" standalone="no"?>
<svg
   viewBox="0 0 300 300"
   version="1.1"
   id="svg11"
   sodipodi:docname="file_pest.svg"
   width="300"
   height="300"
   inkscape:version="1.2.2 (b0a8486541, 2022-12-01)"
   xmlns:inkscape="http://www.inkscape.org/namespaces/inkscape"
   xmlns:sodipodi="http://sodipodi.sourceforge.net/DTD/sodipodi-0.dtd"
   xmlns="http://www.w3.org/2000/svg"
   xmlns:svg="http://www.w3.org/2000/svg">
  <defs
     id="defs15" />
  <sodipodi:namedview
     id="namedview13"
     pagecolor="#ffffff"
     bordercolor="#000000"
     borderopacity="0.25"
     inkscape:showpageshadow="2"
     inkscape:pageopacity="0.0"
     inkscape:pagecheckerboard="0"
     inkscape:deskcolor="#d1d1d1"
     showgrid="false"
     inkscape:zoom="0.41043478"
     inkscape:cx="606.67373"
     inkscape:cy="287.5"
     inkscape:window-width="1920"
     inkscape:window-height="1154"
     inkscape:window-x="0"
     inkscape:window-y="20"
     inkscape:window-maximized="1"
     inkscape:current-layer="svg11" />
  <radialGradient
     id="a"
     cx="296.54745"
     cy="398.49277"
     gradientUnits="userSpaceOnUse"
     r="309.276"
     gradientTransform="matrix(0.7246853,0,0,0.7246853,-65.637723,-74.295925)"
     fx="296.54745"
     fy="398.49277">
    <stop
       offset="0"
       stop-color="#ff8f00"
       id="stop2" />
    <stop
       offset="1"
       stop-color="#f02352"
       id="stop4" />
  </radialGradient>
  <path
     d="m 194.69472,168.82663 c 0,0 -93.98329,18.83172 -156.745591,-30.10135 3.329215,-28.74836 17.557007,-54.197212 38.439606,-72.099173 -0.575402,-6.005487 -0.679033,-11.403685 -0.483367,-17.491062 6.195355,0.89499 12.358097,2.679895 17.737453,5.309062 16.392439,-9.400647 35.385049,-14.777105 55.621229,-14.777105 20.35285,0 39.44402,5.436607 55.90313,14.936537 4.39305,-2.506695 8.68031,-4.253192 13.54948,-5.9736 1.08558,5.514147 1.61099,11.247152 1.75012,16.588099 24.94955,20.561566 40.86297,51.694142 40.86297,86.513202 0,61.85209 -50.21289,112.06498 -112.06498,112.06498 -61.848465,0 -112.088157,-50.23172 -112.062794,-112.0657 2.14725,1.49938 70.775894,48.65553 157.492744,17.09465 z M 93.061622,225.6762 107.43218,249.18507 c -31.443473,-9.5369 -63.089131,-50.91511 -65.924835,-89.85838 25.270583,16.16344 55.398738,24.76113 83.761575,25.55612 l -22.81028,7.30992 c 7.75127,4.80396 16.75768,10.60218 24.91477,15.45252 -11.7711,-0.40655 -23.54293,-0.80514 -35.314757,-1.20662 l 30.518057,20.68187 z m 68.017008,-67.15463 c 0,0 10.94786,-18.41142 32.15294,-12.34143 0,0 -11.0138,16.9816 -32.15294,12.34143 z m -26.95693,0 c 0,0 -10.94786,-18.41142 -32.15294,-12.34143 0,0 11.0138,16.9816 32.15294,12.34143 z m 56.28649,-85.231236 c 4.15898,8.675963 13.91545,12.534201 21.9218,13.421943 3.41255,-9.87967 3.26762,-20.665196 2.13928,-30.749949 -9.43398,4.055352 -18.04544,10.158671 -24.06108,17.328006 z M 85.90823,86.262971 c 10.023153,-1.963904 17.95848,-7.812861 20.5978,-15.490202 -6.630172,-7.739664 -15.919942,-12.86393 -25.358271,-15.171335 0.186245,10.851472 1.424736,21.95586 4.760471,30.661537 z"
     fill="url(#a)"
     fill-rule="evenodd"
     id="path7"
     style="fill:url(#a);stroke-width:0.724688" />
</svg>
