<?xml version="1.0" encoding="UTF-8" standalone="no"?>
<svg
   viewBox="0 0 24 24"
   width="24"
   height="24"
   version="1.1"
   id="svg6"
   sodipodi:docname="file_ocaml_interface.svg"
   inkscape:version="1.2.2 (b0a8486541, 2022-12-01)"
   xmlns:inkscape="http://www.inkscape.org/namespaces/inkscape"
   xmlns:sodipodi="http://sodipodi.sourceforge.net/DTD/sodipodi-0.dtd"
   xmlns="http://www.w3.org/2000/svg"
   xmlns:svg="http://www.w3.org/2000/svg">
  <defs
     id="defs10" />
  <sodipodi:namedview
     id="namedview8"
     pagecolor="#ffffff"
     bordercolor="#000000"
     borderopacity="0.25"
     inkscape:showpageshadow="2"
     inkscape:pageopacity="0.0"
     inkscape:pagecheckerboard="0"
     inkscape:deskcolor="#d1d1d1"
     showgrid="false"
     inkscape:zoom="17.729167"
     inkscape:cx="-0.78965922"
     inkscape:cy="10.914219"
     inkscape:window-width="1920"
     inkscape:window-height="1034"
     inkscape:window-x="0"
     inkscape:window-y="20"
     inkscape:window-maximized="1"
     inkscape:current-layer="svg6" />
  <path
     d="m12.019 15.021.003-.008c-.005-.021-.006-.026-.003.008"
     id="path2" />
  <path
     fill="#ff9800"
     d="M4.51 3.273a2.523 2.523 0 0 0-2.524 2.523V11.3c.361-.13.88-.898 1.043-1.085.285-.327.337-.743.478-1.006C3.83 8.612 3.886 8.2 4.62 8.2c.342 0 .478.08.71.39.16.216.438.615.568.882.15.307.396.724.503.808q.122.095.233.137c.119.044.218-.037.297-.1.102-.082.145-.247.24-.467.135-.317.283-.697.367-.83.146-.23.195-.501.352-.633.232-.195.535-.208.618-.225.466-.092.677.225.907.43.15.133.355.403.5.765.114.283.26.544.32.707.059.158.203.41.289.713.077.275.286.486.365.616 0 0 .121.34.858.65.16.067.482.176.674.246.32.116.63.101 1.025.054.281 0 .434-.408.562-.734.075-.193.148-.745.197-.902.048-.153-.064-.27.031-.405.112-.156.178-.164.242-.368.138-.436.936-.458 1.384-.458.374 0 .327.363.96.239.364-.072.714.046 1.1.149.324.086.63.184.812.398.119.139.412.834.113.863.029.035.05.099.104.134-.067.262-.357.075-.518.041-.217-.045-.37.007-.583.101-.363.162-.894.143-1.21.407-.27.223-.269.721-.394 1 0 0-.348.895-1.106 1.443-.194.14-.574.477-1.4.605a5.3 5.3 0 0 1-1.1.043c-.186-.009-.362-.018-.549-.02-.11-.002-.48-.013-.461.022l-.041.103.024.138c.015.083.019.149.022.225.006.157-.013.32-.005.478.017.328.138.627.154.958.017.368.199.758.375 1.059.067.114.169.128.213.269.052.161.003.333.028.505.1.668.292 1.366.592 1.97l.008.014c.371-.062.743-.196 1.226-.267.885-.132 2.115-.064 2.906-.138 2-.188 3.085.82 4.882.407V5.796a2.523 2.523 0 0 0-2.523-2.523zm-.907 11.144q-.022 0-.046.003c-.159.025-.313.08-.412.24-.08.13-.108.355-.164.505-.064.175-.176.338-.274.505-.18.305-.504.581-.644.879-.028.06-.053.13-.076.2v3.402c.163.028.333.062.524.113 1.407.375 1.75.407 3.13.25l.13-.018c.105-.22.187-.968.255-1.2.054-.178.127-.32.155-.5.026-.173-.003-.337-.017-.493-.04-.393.285-.533.44-.87.14-.304.22-.651.336-.963.11-.298.284-.721.579-.872-.036-.041-.617-.06-.772-.076a5 5 0 0 1-.5-.07c-.314-.064-.656-.126-.965-.2a10 10 0 0 1-.947-.328c-.298-.138-.503-.497-.732-.507m5.737.83c-.74.149-.97.876-1.32 1.451-.192.319-.396.59-.548.928-.14.312-.128.657-.368.924a2.55 2.55 0 0 0-.528.922c-.023.067-.088.776-.158.943l1.101-.078c1.026.07.73.464 2.332.378l2.529-.078a7 7 0 0 0-.228-.588c-.07-.147-.16-.434-.218-.56a3.5 3.5 0 0 0-.309-.526c-.184-.215-.227-.23-.28-.503-.095-.473-.344-1.33-.637-1.923-.151-.306-.403-.562-.634-.784-.2-.195-.655-.522-.734-.505z"
     id="path4" />
  <path
     style="fill:#bc5fd3;stroke-width:0.0564042"
     d="m 20.418331,20.691898 c -0.07755,-0.01522 -0.458284,-0.09965 -0.846063,-0.187624 -1.283072,-0.291079 -1.390423,-0.298513 -3.356052,-0.232405 -1.481323,0.04982 -1.906064,0.0827 -2.368977,0.183404 -0.921762,0.200517 -0.869293,0.218554 -1.09191,-0.375367 -0.209363,-0.558564 -0.400907,-1.394126 -0.402061,-1.75389 -5.08e-4,-0.154031 -0.0362,-0.263067 -0.107185,-0.327307 -0.308316,-0.279021 -0.600523,-1.446892 -0.636511,-2.54395 l -0.0185,-0.564042 1.184489,-0.03247 c 1.056995,-0.02897 1.220916,-0.04653 1.522914,-0.163122 0.479613,-0.185164 0.879368,-0.464384 1.260776,-0.880625 0.397312,-0.433596 0.643483,-0.878005 0.773862,-1.397048 0.126418,-0.503273 0.283045,-0.685223 0.690389,-0.802008 0.176441,-0.05058 0.529462,-0.157149 0.784492,-0.236809 0.405027,-0.126513 0.491487,-0.136509 0.683395,-0.07901 0.347737,0.104184 0.422199,0.08948 0.380869,-0.07519 -0.02239,-0.08922 -0.01155,-0.141011 0.02951,-0.141011 0.08787,0 0.03468,-0.375925 -0.09052,-0.639766 -0.125564,-0.264607 -0.338231,-0.391363 -0.9579,-0.5709359 C 17.459189,9.7585072 17.24193,9.7288735 16.860404,9.737293 16.44643,9.7464288 16.341945,9.7294855 16.174651,9.626092 16.030585,9.5370546 15.887198,9.5041128 15.643707,9.5041128 c -0.424719,0 -0.928426,0.1296135 -1.023012,0.2632408 -0.309045,0.4366064 -0.404869,0.6299674 -0.405802,0.8188534 -0.0016,0.333109 -0.157993,0.98596 -0.316221,1.320428 -0.210516,0.444994 -0.309307,0.493319 -0.940145,0.459888 C 12.53222,12.343931 12.34648,12.302289 11.940054,12.138186 11.666661,12.027798 11.355372,11.870662 11.2483,11.788995 10.955649,11.565779 10.62431,11.09443 10.467853,10.678761 10.254574,10.112132 9.8103212,9.1649085 9.6354207,8.9038742 9.4297619,8.5969337 9.0006413,8.2228881 8.8048239,8.1798794 8.6181845,8.1388865 8.144433,8.2365766 7.9662701,8.3527938 7.8446592,8.4321211 7.4452405,9.2113325 7.1656983,9.9145991 7.0411511,10.227932 6.8332351,10.462985 6.6806223,10.462985 6.5368688,10.462985 6.2568564,10.163745 6.055701,9.7951519 5.7385129,9.2139435 5.318808,8.5824517 5.1285877,8.4002091 4.9748722,8.2529403 4.9172377,8.2350176 4.5973773,8.2350176 c -0.2744511,0 -0.3962206,0.027529 -0.5180355,0.1171143 C 3.9251915,8.4654974 3.5245654,9.1882666 3.3091016,9.7417218 3.1420111,10.170921 2.2155328,11.309048 2.0332382,11.309048 c -0.040423,0 -0.05909,-0.922806 -0.05909,-2.9211693 0,-3.2281331 0.00802,-3.3161997 0.3549147,-3.8958342 0.352071,-0.5882887 1.0360985,-1.0604141 1.7258837,-1.1912292 0.1973028,-0.037418 2.9912114,-0.05728 7.9809544,-0.056738 8.382175,9.102e-4 8.066041,-0.010862 8.679883,0.3232325 0.641119,0.3489405 1.159166,1.0864167 1.27798,1.8192945 0.09256,0.57091 0.08282,15.2085607 -0.01015,15.2660217 -0.08012,0.04951 -1.350667,0.08139 -1.565278,0.03927 z"
     id="path254" />
  <path
     style="fill:#bc5fd3;stroke-width:0.0564042"
     d="M 8.3478261,20.559981 C 7.9337566,20.40837 7.7955838,20.384789 7.3343862,20.387028 c -0.2937022,0.0014 -0.6173214,0.01822 -0.7191539,0.03733 -0.219862,0.04125 -0.2245926,0.01152 -0.1049223,-0.659301 0.084431,-0.473286 0.1694039,-0.66641 0.4927604,-1.119935 0.1202712,-0.168687 0.2700709,-0.473105 0.3328882,-0.676483 0.1088008,-0.352256 0.6641091,-1.3654 1.1559665,-2.109026 0.174181,-0.26334 0.3000989,-0.383071 0.5281699,-0.502216 l 0.2994646,-0.156442 0.232701,0.126904 c 0.3880792,0.21164 1.0139684,0.877683 1.2089974,1.286559 0.198427,0.416 0.430567,1.098619 0.55512,1.632354 0.05662,0.242631 0.169627,0.490625 0.334133,0.733255 0.208093,0.306918 0.790017,1.622927 0.739832,1.673113 -0.0086,0.0086 -0.813778,0.03062 -1.789337,0.04899 l -1.773744,0.0334 z"
     id="path256" />
  <path
     style="fill:#bc5fd3;stroke-width:0.0564042"
     d="m 3.7790834,20.57672 c -0.1406877,-0.02361 -1.519037,-0.340675 -1.7062279,-0.392488 -0.09124,-0.02526 -0.098707,-0.156897 -0.098707,-1.740178 0,-1.073358 0.022404,-1.772138 0.060007,-1.871639 0.033004,-0.08733 0.1564707,-0.273473 0.2743708,-0.413649 0.3433527,-0.408226 0.6087705,-0.858174 0.7084145,-1.200938 0.1701838,-0.585411 0.5105266,-0.697903 0.9675175,-0.319788 0.1507338,0.124717 0.4644259,0.300182 0.6970933,0.389921 0.5308507,0.204748 1.6153745,0.434162 2.2984724,0.486205 0.2869565,0.02186 0.5217391,0.05216 0.5217391,0.06733 0,0.01517 -0.078648,0.117156 -0.174773,0.226637 -0.1971851,0.224581 -0.3023566,0.451103 -0.5299106,1.141336 -0.087434,0.265212 -0.2551437,0.615854 -0.3753363,0.784741 -0.2037902,0.286353 -0.2172774,0.330553 -0.2172774,0.712062 0,0.223717 -0.03746,0.512931 -0.083245,0.642698 -0.045784,0.129767 -0.1257605,0.473968 -0.1777244,0.764891 -0.051964,0.290923 -0.1141726,0.560814 -0.1382415,0.599759 -0.075363,0.121939 -1.5127167,0.209264 -2.0261715,0.123098 z"
     id="path258" />
</svg>
