<?xml version="1.0" encoding="UTF-8" standalone="no"?>
<svg
   version="1.1"
   id="Layer_1"
   x="0px"
   y="0px"
   width="380"
   viewBox="0 0 380 380"
   enable-background="new 0 0 357 310"
   xml:space="preserve"
   sodipodi:docname="file_opam.svg"
   inkscape:version="1.2.2 (b0a8486541, 2022-12-01)"
   height="380"
   xmlns:inkscape="http://www.inkscape.org/namespaces/inkscape"
   xmlns:sodipodi="http://sodipodi.sourceforge.net/DTD/sodipodi-0.dtd"
   xmlns="http://www.w3.org/2000/svg"
   xmlns:svg="http://www.w3.org/2000/svg"><defs
   id="defs53" /><sodipodi:namedview
   id="namedview51"
   pagecolor="#ffffff"
   bordercolor="#000000"
   borderopacity="0.25"
   inkscape:showpageshadow="2"
   inkscape:pageopacity="0.0"
   inkscape:pagecheckerboard="0"
   inkscape:deskcolor="#d1d1d1"
   showgrid="false"
   inkscape:zoom="0.76129032"
   inkscape:cx="116.90678"
   inkscape:cy="152.37288"
   inkscape:window-width="1920"
   inkscape:window-height="1154"
   inkscape:window-x="0"
   inkscape:window-y="20"
   inkscape:window-maximized="1"
   inkscape:current-layer="Layer_1" />
<path
   fill="#FFFDFC"
   opacity="1"
   stroke="none"
   d="m 354.96552,268.51166 c 0,23.66124 0,47.32252 0,71.00141 -111.13389,0 -222.26779,0 -333.502159,0 0,-96.42833 0,-192.87442 0,-289.665323 42.592157,0 85.285719,0 128.249759,0.344157 -20.47654,0.940384 -38.52435,9.73607 -57.798578,19.270543 2.112197,0 2.843486,-4e-6 3.574767,0 70.318901,2.71e-4 140.637821,0.0051 210.956691,-0.02899 1.51342,-7.3e-4 3.15247,-0.150104 4.51957,-0.731639 9.42996,-4.011241 18.82474,-8.107797 28.17639,-12.298347 1.87047,-0.838166 3.50703,-2.198321 5.94856,-3.76515 -2.63614,-1.223838 -4.32348,-2.007206 -6.01084,-2.790575 5.2557,-10e-7 10.51141,-10e-7 15.88584,-10e-7 0,12.790289 0,25.580885 -0.32596,38.584805 C 353.871,83.069689 353.6638,77.462544 352.93544,71.923935 351.52768,61.218534 347.127,58.769846 337.32,63.026385 c -17.52079,7.604557 -34.97956,15.353122 -52.53608,22.873818 -8.45996,3.62401 -13.79228,9.75803 -14.73772,18.828557 -1.09434,10.49865 -1.87914,21.08347 -1.88849,31.63168 -0.0351,39.67671 0.27807,79.3539 0.50772,119.03063 0.0855,14.7802 0.13754,29.56415 0.54917,44.3368 0.13269,4.76182 0.98784,9.5922 2.19875,14.21129 1.31078,4.99985 5.09208,6.92236 10.08373,5.70119 2.33505,-0.57124 4.59468,-1.52869 6.81339,-2.48524 16.84748,-7.26344 33.79263,-14.31773 50.45146,-21.99251 6.2902,-2.89793 12.1529,-6.9718 13.51122,-14.849 0.68468,-3.97066 1.78178,-7.87024 2.69237,-11.80194 M 97.736842,255.0003 c -2.734677,5.43092 -5.469354,10.86186 -8.642131,16.78025 -1.199467,2.30378 -2.363517,4.62682 -3.605839,6.90724 -2.511177,4.60959 -5.064833,9.19603 -7.600979,13.79199 0.400582,0.39243 0.801166,0.78485 1.201748,1.17731 4.502278,-1.4356 9.363169,-2.21359 13.43685,-4.43509 10.511329,-5.73225 20.812029,-4.88741 31.540779,0.0998 8.12314,4.10078 14.34728,11.76517 25.62164,13.53061 -2.93457,-6.27833 -5.34514,-11.43557 -7.80078,-17.23822 -0.98804,-1.32311 -1.97607,-2.64624 -3.03194,-4.53089 -0.52171,-0.50171 -1.04342,-1.00341 -1.58202,-2.21729 -0.61845,-2.21134 -1.23688,-4.42267 -1.85043,-7.36231 -1.31577,-4.11121 -2.63153,-8.22246 -3.95328,-12.94834 -0.48846,-0.63039 -0.97691,-1.26075 -1.37166,-2.46429 -0.21884,-0.52583 -0.43768,-1.05166 -0.63677,-2.20118 -4.60103,-4.64686 -9.03946,-9.47711 -13.92261,-13.80569 -1.15559,-1.02437 -4.18513,-1.1137 -5.70049,-0.34591 -6.05718,3.06898 -9.30051,8.63915 -12.102088,15.262 m -71.322296,21.82302 c -0.122883,7.20097 -0.08399,7.04098 6.991249,8.76091 3.849852,0.93586 7.531063,2.55416 11.306166,3.8111 8.463902,2.81812 16.752095,6.59065 26.126874,5.00687 0.62783,-1.93189 1.465189,-3.77722 1.808152,-5.71031 0.807669,-4.55239 4.725083,-8.54611 2.73405,-14.34716 0.749522,-1.77917 1.462134,-3.57499 2.256069,-5.33412 1.768445,-3.91841 3.577551,-7.81844 5.902532,-12.13821 2.117033,-4.74012 4.234072,-9.48023 6.352671,-14.22388 -3.27544,-0.37252 -7.116262,-0.59898 -10.875791,-1.27654 -11.095646,-1.99971 -22.42088,-3.25021 -31.410541,-11.37564 -3.194592,-2.88747 -7.068216,-0.71294 -9.036379,3.6312 -2.269596,5.00943 -4.63222,10.19073 -8.038055,14.42601 -6.704983,8.33782 -5.771021,17.36668 -4.168128,27.12316 -0.03666,0.31243 0.04613,0.58927 0.05113,1.64661 M 262.70424,197.56539 c -0.0621,-12.17257 -0.12432,-24.34516 -0.008,-37.37874 -0.0947,-10.61425 -0.18938,-21.22847 -0.12577,-32.67881 -0.28627,-3.06727 9.2e-4,-6.32771 -0.95567,-9.16921 -4.76079,-14.13953 -15.05124,-21.66365 -30.00176,-21.688708 -58.19045,-0.09754 -116.38131,-0.108245 -174.571709,0.0089 -16.380042,0.03297 -28.436531,9.924458 -30.640996,25.954248 -1.323283,9.62222 -0.796386,19.51069 -0.926548,29.28184 -0.124334,9.33369 -0.0351,18.67045 -0.01081,28.00578 0.0055,2.10068 -0.07976,4.50664 3.774238,2.15708 5.485603,-0.96595 10.36416,-2.88506 13.223185,-8.14984 0.884731,-1.62918 1.901186,-3.19636 2.96266,-4.7185 6.261763,-8.97921 9.044328,-10.11928 17.403722,-4.1259 4.250212,3.04723 10.763185,3.72966 16.310911,3.93672 4.824529,0.18008 5.236963,-5.40254 7.19277,-8.76234 2.202856,-3.78419 5.293082,-5.8138 9.669941,-4.10468 3.715888,1.451 7.256446,3.35107 11.139006,5.67294 2.48271,3.2869 4.55953,7.01012 7.52962,9.77312 6.94904,6.46457 14.32653,12.46859 21.82494,19.21698 1.85504,1.57457 3.78947,3.0656 5.55054,4.73907 5.73159,5.44642 11.49704,10.7728 19.56734,12.62587 3.99261,0.91677 8.0565,0.98219 10.99174,-1.92085 5.13019,-5.07389 9.52167,-10.802 11.54752,-18.75697 0.34059,-0.83023 0.71414,-1.64864 1.01679,-2.49247 4.18473,-11.66773 5.64496,-15.3362 18.04697,-12.87293 6.4313,1.27738 12.98692,1.91666 19.46797,2.95873 8.91877,1.43404 16.19012,6.82476 12.39357,16.3687 -5.02602,0.87574 -9.38378,1.63502 -14.2985,2.35947 -0.44216,0.28223 -0.88431,0.56443 -2.02511,0.87957 -1.82643,0.82022 -3.65286,1.64047 -6.11366,2.49091 -1.84159,1.89193 -4.23046,3.49687 -5.40596,5.73815 -2.16175,4.1218 -3.85279,8.33537 -8.11507,10.97667 -1.90647,1.18141 -3.13576,3.40546 -4.83971,4.97461 -3.15435,2.9048 -6.15639,6.09635 -9.70949,8.42417 -10.84016,7.10196 -23.1188,7.35777 -35.53261,6.85691 -9.54298,-0.38506 -9.54846,-0.24894 -9.20023,9.90789 1.50936,8.6382 1.46077,17.59236 6.10504,25.56526 1.61678,2.77557 2.16359,6.20578 3.024,9.3844 2.11994,7.83195 4.13841,15.69142 6.27959,23.85193 4.56432,-1.07112 7.82565,-2.25445 11.16446,-2.54384 11.29378,-0.97882 22.62678,-1.5023 33.92259,-2.46124 12.25189,-1.04006 24.09992,0.79049 36.00324,3.57233 6.87532,1.60679 14.11068,1.8278 21.20907,2.23203 2.16086,0.12308 5.09648,-0.0374 5.07489,-3.88114 -0.10746,-19.14253 -0.073,-38.28585 0.0951,-58.2888 -0.063,-14.35271 -0.12599,-28.70544 -0.0103,-43.91931 M 228.34144,91.921417 c 25.47929,1.264634 48.82287,-5.571316 70.95728,-18.553321 -0.73104,-0.0802 -1.03972,-0.143723 -1.34841,-0.143751 -70.82451,-0.0066 -141.64901,-0.01242 -212.473505,0.01609 -1.362928,5.47e-4 -2.841068,0.138682 -4.070188,0.666943 -9.422474,4.049654 -18.815705,8.169388 -28.166982,12.380677 -1.587209,0.714784 -2.929604,1.973176 -4.385102,2.980419 0.07455,0.531068 0.149103,1.062135 0.223655,1.593203 4.185954,0.385624 8.37163,1.103121 12.557909,1.106675 55.257463,0.04695 110.515023,-0.0066 166.705343,-0.04694 z"
   id="path2"
   style="fill:none;stroke-width:0.934461" />
<path
   fill="#f6901f"
   opacity="1"
   stroke="none"
   d="m 354.96552,269.94263 c -0.91059,4.36966 -2.00769,8.26923 -2.69237,12.23989 -1.35832,7.8772 -7.22102,11.95107 -13.51122,14.84899 -16.65883,7.67479 -33.60398,14.72909 -50.45146,21.99252 -2.21871,0.95655 -4.47834,1.914 -6.81339,2.48524 -4.99165,1.22117 -8.77295,-0.70133 -10.08373,-5.70119 -1.21091,-4.61909 -2.06606,-9.44946 -2.19875,-14.21129 -0.41163,-14.77264 -0.46365,-29.5566 -0.54917,-44.3368 -0.22965,-39.67673 -0.54289,-79.35391 -0.50772,-119.03062 0.009,-10.54821 0.79415,-21.13304 1.88849,-31.63169 0.94544,-9.070524 6.27776,-15.204543 14.73772,-18.828552 17.55652,-7.520697 35.01529,-15.269262 52.53608,-22.873818 9.807,-4.256539 14.20768,-1.807852 15.61544,8.897548 0.72836,5.53861 0.93556,11.145755 1.70412,16.946558 0.32596,0.925468 0.32596,1.626313 0.0378,2.943585 -0.40849,1.997802 -0.63318,3.379125 -0.63388,4.760562 -0.0148,29.585557 -0.005,59.171137 -0.006,89.195977 -0.007,6.48884 -0.0991,12.54048 0.0363,18.58702 0.0605,2.70075 0.5798,5.39121 0.89091,8.08635 0,18.39725 0,36.79451 0,55.62972 z"
   id="path4"
   style="stroke-width:0.934461" />
<path
   fill="#f5811f"
   opacity="1"
   stroke="none"
   d="m 338.64174,51.71667 c 2.1253,0.783369 3.81264,1.566737 6.44878,2.790579 -2.44153,1.566827 -4.07809,2.926984 -5.94856,3.76515 -9.35165,4.190551 -18.74643,8.287105 -28.17639,12.298345 -1.3671,0.581538 -3.00615,0.73091 -4.51957,0.731641 -70.31887,0.03398 -140.63779,0.02925 -210.956691,0.02899 -0.731281,-4e-6 -1.46257,0 -3.574767,0 19.274228,-9.534476 37.322038,-18.330163 58.236528,-19.270546 5.79398,-0.344157 11.42051,-0.344157 17.74926,-0.05457 2.08401,0.4087 3.46579,0.631135 4.84766,0.63169 29.27237,0.01172 58.54475,-0.0015 88.25701,3.39e-4 9.13265,0.0096 17.8259,0.05545 26.51777,-0.03389 1.61417,-0.01659 3.2227,-0.577852 4.83385,-0.887737 15.28238,-1e-6 30.56479,-1e-6 46.28512,0 z"
   id="path6"
   style="stroke-width:0.934461" />
<path
   fill="#f7a13f"
   opacity="1"
   stroke="none"
   d="m 354.0445,187.20028 c -0.006,-29.58558 -0.0157,-59.17116 -9.5e-4,-88.756717 7.1e-4,-1.381437 0.2254,-2.76276 0.63388,-4.410137 0.28809,30.590734 0.28809,61.447474 0.0579,92.740194 -0.23027,0.43599 -0.69077,0.42666 -0.69077,0.42666 z"
   id="path8"
   style="stroke-width:0.934461" />
<path
   fill="#f69448"
   opacity="1"
   stroke="none"
   d="m 260.56513,52.628056 c -29.27239,0.0085 -58.54477,0.02163 -87.81714,0.0099 -1.38187,-5.53e-4 -2.76365,-0.222989 -4.41009,-0.631688 30.28064,-0.289594 60.82589,-0.289594 91.80645,-0.0617 0.43531,0.227897 0.42078,0.683489 0.42078,0.683489 z"
   id="path10"
   style="stroke-width:0.934461" />
<path
   fill="#f58835"
   opacity="1"
   stroke="none"
   d="m 261.005,52.638293 c -0.43987,-0.01024 -0.42534,-0.465829 -0.42269,-0.693726 10.30124,-0.227898 20.59982,-0.227898 31.33636,-0.227896 -1.1732,0.309884 -2.78173,0.871146 -4.3959,0.887737 -8.69187,0.08933 -17.38512,0.04338 -26.51777,0.03389 z"
   id="path12"
   style="stroke-width:0.934461" />
<path
   fill="#f7982d"
   opacity="1"
   stroke="none"
   d="m 354.03835,187.63954 c 0.007,-0.43926 0.46664,-0.42993 0.69692,-0.42798 0.23025,8.74313 0.23025,17.48428 0.23025,26.6634 -0.31111,-2.25719 -0.83048,-4.94765 -0.89092,-7.6484 -0.13537,-6.04654 -0.0423,-12.09818 -0.0363,-18.58702 z"
   id="path14"
   style="stroke-width:0.934461" />
<path
   fill="#f5891f"
   opacity="1"
   stroke="none"
   d="m 262.41282,130.21284 c 0.0947,10.61425 0.18942,21.22849 -0.19188,32.27275 -5.93194,0.11919 -11.38678,-0.2121 -16.8441,-0.49639 -4.99058,-0.25997 -9.99407,-0.79106 -14.97365,-0.63195 -9.63857,0.30796 -19.26215,1.0633 -28.89744,1.51609 -1.65772,0.0779 -3.33605,-0.51525 -5.01653,-0.63664 -2.69414,-0.1946 -5.40616,-0.44276 -8.09592,-0.32689 -4.15841,0.17915 -8.60425,1.77565 -12.39672,0.7689 -9.51027,-2.52456 -19.04067,-0.66107 -28.29924,-0.15292 -7.97679,0.43781 -15.73719,-2.76358 -23.93211,0.0118 -5.10298,1.72822 -11.22503,0.4474 -16.88974,0.51702 -3.61812,-1.70138 -7.158668,-3.60145 -10.874556,-5.05245 -4.376857,-1.70912 -7.467084,0.32049 -9.66994,4.10468 -1.955807,3.3598 -2.368242,8.94242 -7.19277,8.76234 -5.547725,-0.20706 -12.060699,-0.88949 -16.310911,-3.93672 -8.359394,-5.99337 -11.141959,-4.85332 -17.403722,4.12591 -1.061472,1.52215 -2.077929,3.08933 -2.96266,4.7185 -2.859023,5.26477 -7.737582,7.18388 -13.933995,7.86426 -0.97065,-0.83593 -1.455603,-1.38546 -1.457574,-1.93674 -0.05681,-15.87523 -0.120493,-31.75124 0.0513,-47.62457 0.01069,-0.98647 2.237344,-2.97088 2.916646,-2.76737 5.715377,1.71222 11.292752,-4.80791 16.948073,-0.20744 0.181597,0.14773 0.614271,0.0409 0.915174,-0.0201 6.503087,-1.31671 12.956007,-1.07057 19.372585,0.57273 0.589477,0.15098 1.224798,0.28788 1.819042,0.22958 5.439436,-0.53368 10.865242,-1.42193 16.313591,-1.58441 4.812098,-0.1435 9.649686,0.77593 14.472809,0.74392 6.884228,-0.0456 13.763468,-0.59944 20.648678,-0.81056 7.4108,-0.22721 14.82715,-0.45718 22.23891,-0.4007 4.62433,0.0352 9.47781,-2.87006 13.91413,1.00578 0.65212,0.56972 2.10906,0.34265 3.18281,0.28457 5.79912,-0.31368 11.7091,-0.1105 17.35653,-1.22365 4.7476,-0.93581 8.94726,0.24793 13.4381,0.59696 6.80501,0.52884 13.78516,-1.29255 20.70235,-2.00373 1.00612,-0.10344 2.21524,0.17163 3.0927,0.68104 4.48757,2.60539 9.12542,2.19064 13.99093,1.36564 5.6956,-0.96573 11.82414,-2.867 17.13903,-1.6436 5.72921,1.31878 11.22313,1.01286 16.83007,1.31438 z"
   id="path16"
   style="stroke-width:0.934461" />
<path
   fill="#f59021"
   opacity="1"
   stroke="none"
   d="m 262.49197,129.79481 c -5.68609,0.11651 -11.18001,0.42243 -16.90922,-0.89635 -5.31489,-1.2234 -11.44343,0.67786 -17.13903,1.6436 -4.86551,0.82499 -9.50336,1.23975 -13.99093,-1.36564 -0.87746,-0.50941 -2.08658,-0.78448 -3.0927,-0.68104 -6.91719,0.71118 -13.89734,2.53257 -20.70235,2.00373 -4.49084,-0.34903 -8.6905,-1.53277 -13.4381,-0.59697 -5.64743,1.11316 -11.55741,0.90999 -17.35653,1.22366 -1.07375,0.0581 -2.53069,0.28516 -3.18281,-0.28456 -4.43632,-3.87585 -9.2898,-0.97058 -13.91413,-1.00579 -7.41176,-0.0564 -14.82811,0.17348 -22.23891,0.40071 -6.88521,0.21111 -13.76444,0.76487 -20.648678,0.81054 -4.823123,0.0321 -9.660711,-0.88741 -14.472809,-0.74391 -5.448349,0.16248 -10.874155,1.05073 -16.313591,1.58441 -0.594244,0.0583 -1.229565,-0.0786 -1.819042,-0.22958 -6.416578,-1.64329 -12.869498,-1.88944 -19.372584,-0.57273 -0.300904,0.061 -0.733578,0.16783 -0.915175,0.0201 -5.655321,-4.60047 -11.232696,1.91966 -16.948073,0.20745 -0.679302,-0.20352 -2.905969,1.78089 -2.916646,2.76736 -0.171793,15.87333 -0.108116,31.74934 -0.0513,47.62458 0.0019,0.55127 0.486924,1.1008 1.109817,1.92339 -2.795424,2.64847 -2.710203,0.24253 -2.715671,-1.85816 -0.02429,-9.33533 -0.113535,-18.67208 0.0108,-28.00578 0.130162,-9.77114 -0.396734,-19.65961 0.926548,-29.28184 2.204466,-16.02978 14.260954,-25.921274 30.640997,-25.954246 58.190387,-0.117143 116.381257,-0.106438 174.571707,-0.0089 14.95051,0.02505 25.24097,7.549166 30.00192,21.688696 0.95679,2.8415 0.66938,6.10194 0.87649,9.58726 z"
   id="path18"
   style="stroke-width:0.934461" />
<path
   fill="#f27522"
   opacity="1"
   stroke="none"
   d="m 262.53092,244.21353 c 0.0155,19.14304 -0.0188,38.28636 0.0886,57.42889 0.0216,3.84387 -2.91404,4.00422 -5.07489,3.88114 -7.09839,-0.40424 -14.33375,-0.62524 -21.20907,-2.23203 -11.90333,-2.78185 -23.75134,-4.6124 -36.00323,-3.57234 -11.29582,0.95893 -22.62882,1.48243 -33.9226,2.46124 -3.33881,0.28939 -6.60014,1.47273 -11.16446,2.54384 -2.14118,-8.16051 -4.15964,-16.01997 -6.27958,-23.85193 -0.86042,-3.17861 -1.40722,-6.60883 -3.02402,-9.38439 -4.64426,-7.97291 -4.59567,-16.92707 -5.57157,-25.96059 3.12867,-0.70076 5.72304,-1.26287 8.3192,-1.27132 21.80805,-0.0709 43.61644,-0.0401 65.42472,-0.0405 16.13897,-2.6e-4 32.27796,-9.4e-4 48.41695,-0.002 z"
   id="path20"
   style="stroke-width:0.934461" />
<path
   fill="#f68f1f"
   opacity="1"
   stroke="none"
   d="m 227.87544,93.796345 c -55.72392,0.03437 -110.98148,0.08792 -166.238946,0.04097 -4.186278,-0.0036 -8.371954,-0.72105 -12.557909,-1.106675 -0.07455,-0.531066 -0.149103,-1.062133 -0.223655,-1.593201 1.455498,-1.007243 2.797892,-2.265636 4.385102,-2.980419 9.351278,-4.211289 18.744508,-8.331023 28.166982,-12.380677 1.229119,-0.528261 2.707259,-0.666396 4.070188,-0.666944 70.824498,-0.02851 141.648988,-0.02269 212.473498,-0.01609 0.3087,2.8e-5 0.61738,0.06354 1.34842,0.143751 -22.13443,12.982005 -45.47799,19.817954 -71.42368,18.559285 z"
   id="path22"
   style="stroke-width:0.934461" />
<path
   fill="#f4851f"
   opacity="1"
   stroke="none"
   d="m 107.00772,163.36483 c 5.53248,-0.37986 11.65453,0.90095 16.75751,-0.82726 8.19492,-2.77536 15.95532,0.42603 23.93211,-0.0118 9.25857,-0.50815 18.78897,-2.37164 28.29924,0.15292 3.79247,1.00675 8.23831,-0.58975 12.39672,-0.7689 2.68976,-0.11587 5.40178,0.13229 8.09592,0.32689 1.68048,0.12139 3.35881,0.71455 5.01653,0.63664 9.63529,-0.45279 19.25887,-1.20814 28.89744,-1.51609 4.97958,-0.15911 9.98307,0.37198 14.97365,0.63195 5.45732,0.28429 10.91216,0.61558 16.7545,0.92688 0.44858,12.17307 0.51074,24.34566 0.0778,36.94777 -10.76125,0.41365 -21.03023,0.53509 -31.29262,0.32897 -5.88635,-0.11823 -11.76204,-0.76817 -17.64252,-1.17872 1.82641,-0.82025 3.65286,-1.6405 5.98127,-2.26134 1.02804,-0.21511 1.55405,-0.62961 2.08008,-1.0441 4.35777,-0.7593 8.71552,-1.51859 13.74153,-2.39431 3.79655,-9.54397 -3.4748,-14.93468 -12.39358,-16.36871 -6.48104,-1.04208 -13.03665,-1.68136 -19.46796,-2.95874 -12.40201,-2.46326 -13.86223,1.2052 -18.04697,12.87293 -0.30265,0.84384 -0.6762,1.66223 -1.52693,2.87274 -3.81414,0.44537 -7.11799,0.55328 -10.42219,0.56625 -5.95518,0.0233 -11.91823,-0.20303 -17.86383,0.0325 -6.40548,0.25366 -13.05451,-1.80401 -19.15538,1.77604 -7.204,-6.1905 -14.58149,-12.19451 -21.53053,-18.65909 -2.9701,-2.76299 -5.0469,-6.48622 -7.66183,-10.08337 z"
   id="path24"
   style="stroke-width:0.934461" />
<path
   fill="#f37e22"
   opacity="1"
   stroke="none"
   d="m 212.95685,199.02918 c 6.19769,0.39547 12.07336,1.04541 17.95972,1.16363 10.26239,0.20613 20.53137,0.0847 31.2033,0.10166 0.46871,14.35376 0.53171,28.70649 0.50287,43.48917 -16.23082,0.43064 -32.36979,0.43171 -48.50877,0.43197 -21.80828,3.5e-4 -43.61667,-0.0305 -65.42472,0.0405 -2.59616,0.008 -5.19053,0.57056 -8.17449,0.88613 -1.0264,-9.37631 -1.02092,-9.51243 8.52206,-9.12738 12.41382,0.50086 24.69245,0.24505 35.53261,-6.8569 3.5531,-2.32782 6.55515,-5.51938 9.70949,-8.42417 1.70395,-1.56916 2.93324,-3.7932 4.8397,-4.97462 4.26228,-2.6413 5.95334,-6.85487 8.11508,-10.97666 1.1755,-2.24129 3.56437,-3.84623 5.72315,-5.75325 z"
   id="path26"
   style="stroke-width:0.934461" />
<path
   fill="#f58a24"
   opacity="1"
   stroke="none"
   d="m 26.556528,276.65213 c -1.796006,-9.36298 -2.729968,-18.39183 3.975015,-26.72966 3.405835,-4.23528 5.768459,-9.41658 8.038055,-14.42601 1.968163,-4.34414 5.841787,-6.51866 9.036379,-3.6312 8.989661,8.12543 20.314895,9.37592 31.410541,11.37565 3.759529,0.67755 7.600351,0.90401 10.875791,1.27654 -2.118599,4.74363 -4.235638,9.48375 -6.975935,14.27726 -1.054847,-0.11473 -1.485925,-0.42846 -1.91808,-0.42996 -17.040551,-0.059 -34.081347,-0.0621 -51.121693,-0.15213 -2.707059,-0.0143 -2.890595,1.53456 -2.917441,3.6059 -0.0641,4.94544 -0.25997,9.88919 -0.402632,14.83361 z"
   id="path28"
   style="stroke-width:0.934461" />
<path
   fill="#f37d21"
   opacity="1"
   stroke="none"
   d="m 26.459972,276.84889 c 0.239218,-5.14118 0.435095,-10.08493 0.499188,-15.03037 0.02685,-2.07134 0.210382,-3.62019 2.917441,-3.6059 17.040346,0.0899 34.081142,0.0931 51.121693,0.15213 0.432155,0.002 0.863233,0.31523 1.651862,0.63608 -1.435499,4.06026 -3.244605,7.96029 -5.01305,11.8787 -0.793935,1.75913 -1.506547,3.55495 -2.755856,5.6884 -5.213115,0.46708 -9.925978,0.63435 -14.639917,0.67385 -3.22362,0.027 -6.448686,-0.17781 -9.673194,-0.18074 -3.325945,-0.003 -6.653653,0.0673 -9.977602,0.18788 -4.66103,0.16916 -9.319297,0.41447 -13.978746,0.62723 -0.202243,-0.24124 -0.285036,-0.51808 -0.151819,-1.02726 z"
   id="path30"
   style="stroke-width:0.934461" />
<path
   fill="#f37e25"
   opacity="1"
   stroke="none"
   d="m 123.84143,290.6246 c -10.50291,-4.42108 -20.80361,-5.26593 -31.314939,0.46631 -4.073681,2.22152 -8.934572,2.99951 -13.43685,4.4351 -0.400582,-0.39245 -0.801166,-0.78488 -1.201748,-1.17732 2.536146,-4.59595 5.089802,-9.1824 7.600979,-13.79198 1.242322,-2.28042 2.406372,-4.60346 4.186612,-6.99336 2.099342,0.1276 3.617336,0.522 5.13657,0.52678 13.535466,0.0427 27.071166,0.0167 40.606806,0.0107 0.61843,2.21134 1.23686,4.42267 1.8731,7.291 0.55589,1.14526 1.09398,1.63354 1.63208,2.12184 0.98802,1.32312 1.97605,2.64625 2.54762,4.29448 -4.69429,0.32704 -8.98858,0.11612 -13.24115,0.44482 -1.51508,0.11712 -2.92898,1.54304 -4.38908,2.37154 z"
   id="path32"
   style="stroke-width:0.934461" />
<path
   fill="#f48521"
   opacity="1"
   stroke="none"
   d="m 135.42129,273.73678 c -13.53807,0.36998 -27.07377,0.39607 -40.609236,0.35335 -1.519234,-0.005 -3.037228,-0.39918 -4.917513,-0.77052 2.372947,-5.58852 5.107624,-11.01947 8.477131,-16.70046 10.780098,-0.2456 20.925358,-0.24112 31.070628,-0.23662 0.21882,0.52582 0.43766,1.05164 0.55471,2.21122 0.42529,1.23758 0.95236,1.84139 1.47944,2.44521 1.31576,4.11122 2.63152,8.22246 3.94484,12.69782 z"
   id="path34"
   style="stroke-width:0.934461" />
<path
   fill="#f27523"
   opacity="1"
   stroke="none"
   d="m 26.513168,278.2842 c 4.758072,-0.62081 9.416339,-0.86612 14.077369,-1.03528 3.323949,-0.12062 6.651657,-0.19089 9.977602,-0.18788 3.224508,0.003 6.449574,0.20775 9.673194,0.18074 4.713939,-0.0394 9.426802,-0.20677 14.520465,-0.32197 2.610272,5.09488 -1.307142,9.08861 -2.114811,13.64099 -0.342963,1.93309 -1.180322,3.77843 -1.808152,5.71032 -9.374779,1.58378 -17.662972,-2.18874 -26.126874,-5.00687 -3.775103,-1.25694 -7.456314,-2.87524 -11.306166,-3.81111 -7.075239,-1.71992 -7.114132,-1.55992 -6.892627,-9.16894 z"
   id="path36"
   style="stroke-width:0.934461" />
<path
   fill="#f48323"
   opacity="1"
   stroke="none"
   d="m 136.34729,192.38623 c 5.95367,-3.85899 12.6027,-1.80133 19.00818,-2.05498 5.9456,-0.23546 11.90865,-0.009 17.86383,-0.0325 3.30421,-0.013 6.60805,-0.12088 10.26191,-0.23421 -1.35543,7.24266 -5.7469,12.97078 -10.8771,18.04465 -2.93525,2.90305 -6.99913,2.83764 -10.99173,1.92087 -8.07031,-1.85307 -13.83575,-7.17945 -19.56734,-12.62588 -1.76108,-1.67347 -3.6955,-3.1645 -5.69775,-5.01802 z"
   id="path38"
   style="stroke-width:0.934461" />
<path
   fill="#f58f26"
   opacity="1"
   stroke="none"
   d="m 129.45216,256.07066 c -10.15513,0.30737 -20.30039,0.30289 -30.871748,0.3004 1.958008,-6.12469 5.201338,-11.69486 11.258518,-14.76383 1.51536,-0.76779 4.5449,-0.67847 5.70049,0.34589 4.88315,4.32859 9.32158,9.15886 13.91274,14.11754 z"
   id="path40"
   style="stroke-width:0.934461" />
<path
   fill="#f37b2b"
   opacity="1"
   stroke="none"
   d="m 123.95435,290.90767 c 1.34718,-1.11156 2.76108,-2.53748 4.27616,-2.6546 4.25257,-0.3287 8.54686,-0.11779 13.26369,-0.12212 2.84957,5.15481 5.26014,10.31206 8.19471,16.5904 -11.27436,-1.76544 -17.4985,-9.42984 -25.73456,-13.81368 z"
   id="path42"
   style="stroke-width:0.934461" />
<path
   fill="#f58f26"
   opacity="1"
   stroke="none"
   d="m 131.47346,260.73164 c -0.52409,-0.2965 -1.05116,-0.90031 -1.52331,-1.85131 0.5434,0.28321 1.03185,0.91358 1.52331,1.85131 z"
   id="path44"
   style="stroke-width:0.934461" />
<path
   fill="#f37e22"
   opacity="1"
   stroke="none"
   d="m 221.05692,195.69122 c -0.24755,0.43193 -0.77356,0.84643 -1.45229,1.04508 0.28949,-0.49807 0.73165,-0.78027 1.45229,-1.04508 z"
   id="path46"
   style="stroke-width:0.934461" />
<path
   fill="#f37b2b"
   opacity="1"
   stroke="none"
   d="m 138.89012,283.23301 c -0.50418,-0.20754 -1.04227,-0.69583 -1.58971,-1.485 0.51236,0.20081 1.03407,0.70252 1.58971,1.485 z"
   id="path48"
   style="stroke-width:0.934461" />
<path
   style="fill:none;stroke-width:12.2747"
   d="m 26.588187,128.11282 c 0.42794,-3.71309 2.270812,-9.78907 4.095268,-13.50217 4.317146,-8.78617 12.737896,-14.18574 23.915789,-15.335296 4.159743,-0.427805 47.609386,-0.604631 96.554766,-0.392947 l 88.99158,0.384877 5.37177,2.865846 c 9.36495,4.99619 16.02308,14.58023 16.082,23.1492 l 0.027,3.9206 -15.65024,0.0753 c -24.38891,0.11727 -29.34159,0.0935 -35.59663,-0.17049 -3.20677,-0.13538 -16.71923,0.11803 -30.02769,0.56312 -16.61361,0.55563 -24.45027,0.39978 -25.00466,-0.49725 -0.50526,-0.81751 -3.16387,-1.02066 -7.10329,-0.54278 -7.31681,0.88759 -75.425421,2.3968 -81.785292,1.81228 -2.362879,-0.21716 -11.701644,-0.35835 -20.752807,-0.31375 -14.676406,0.0724 -16.642671,0.33281 -18.176151,2.40786 -1.522086,2.05963 -1.630164,1.55171 -0.941413,-4.42434 z"
   id="path451" /></svg>
