<?xml version="1.0" encoding="UTF-8" standalone="no"?>
<svg
   viewBox="0 0 32 32"
   width="32"
   height="32"
   version="1.1"
   id="svg23"
   sodipodi:docname="file_rust_compilation.svg"
   inkscape:version="1.2.2 (b0a8486541, 2022-12-01)"
   xmlns:inkscape="http://www.inkscape.org/namespaces/inkscape"
   xmlns:sodipodi="http://sodipodi.sourceforge.net/DTD/sodipodi-0.dtd"
   xmlns="http://www.w3.org/2000/svg"
   xmlns:svg="http://www.w3.org/2000/svg">
  <sodipodi:namedview
     id="namedview25"
     pagecolor="#ffffff"
     bordercolor="#000000"
     borderopacity="0.25"
     inkscape:showpageshadow="2"
     inkscape:pageopacity="0.0"
     inkscape:pagecheckerboard="0"
     inkscape:deskcolor="#d1d1d1"
     showgrid="false"
     inkscape:zoom="9.4023106"
     inkscape:cx="-7.9767626"
     inkscape:cy="17.282986"
     inkscape:window-width="1920"
     inkscape:window-height="1034"
     inkscape:window-x="0"
     inkscape:window-y="20"
     inkscape:window-maximized="1"
     inkscape:current-layer="svg23" />
  <defs
     id="defs17">
    <radialGradient
       id="a"
       cx="-492.035"
       cy="-883.37"
       r="13.998"
       gradientTransform="matrix(0.46994351,-0.27132997,-0.16279799,-0.28218316,111.15343,-373.88825)"
       gradientUnits="userSpaceOnUse">
      <stop
         offset="0"
         stop-color="#7d7d7d"
         id="stop2" />
      <stop
         offset="0.267"
         stop-color="#7e7c7a"
         id="stop4" />
      <stop
         offset="0.45"
         stop-color="#817871"
         id="stop6" />
      <stop
         offset="0.608"
         stop-color="#867162"
         id="stop8" />
      <stop
         offset="0.753"
         stop-color="#8d684c"
         id="stop10" />
      <stop
         offset="0.886"
         stop-color="#965c30"
         id="stop12" />
      <stop
         offset="1"
         stop-color="#a04f12"
         id="stop14" />
    </radialGradient>
  </defs>
  <title
     id="title19">file_type_rust</title>
  <path
     fill-rule="evenodd"
     clip-rule="evenodd"
     d="m 17.794909,19.896294 c -0.621089,0.611264 -1.098126,1.291509 -1.433505,2.040956 -0.326394,0.74677 -0.490419,1.55809 -0.490419,2.435929 v 2.932802 c 0,0.328962 -0.06192,0.639777 -0.187115,0.930807 -0.123887,0.287725 -0.293775,0.540081 -0.509845,0.755419 -0.216068,0.215337 -0.469266,0.384492 -0.757748,0.50783 -0.291701,0.124416 -0.603253,0.186198 -0.932819,0.186198 h -2.943579 c -0.329548,0 -0.6410984,-0.06179 -0.9328024,-0.186198 -0.288499,-0.123333 -0.541607,-0.292493 -0.757714,-0.50783 C 8.6332389,28.776869 8.4632968,28.524513 8.3395205,28.236788 8.2143338,27.945758 8.1523324,27.634943 8.1523324,27.305981 v -2.932802 c 0,-0.877657 -0.1677854,-1.688609 -0.5016716,-2.43525 C 7.3231663,21.188865 6.849405,20.507485 6.2285198,19.896294 5.4315881,19.110032 4.8163284,18.232186 4.3850128,17.263284 3.9524131,16.291482 3.7369664,15.238891 3.7369664,14.107795 c 0,-0.756682 0.097891,-1.487217 0.2941043,-2.191052 C 4.2267984,11.214689 4.5049773,10.558546 4.8657904,9.948857 5.2261303,9.3323342 5.6571691,8.7739968 6.1587504,8.2742321 6.6601097,7.7746872 7.2164121,7.3452953 7.8273655,6.9862971 8.4465106,6.6270962 9.1093256,6.3495587 9.8136546,6.1546189 10.519741,5.9592023 11.252581,5.8617044 12.011669,5.8617044 c 0.759084,0 1.491947,0.097488 2.198029,0.2929145 0.704275,0.1949398 1.362565,0.4720193 1.974305,0.8314383 0.618706,0.3589636 1.178947,0.7883924 1.680544,1.2881749 0.501601,0.4997479 0.932638,1.0580843 1.292941,1.6745879 0.360852,0.609709 0.639048,1.265855 0.834775,1.967923 0.196277,0.703835 0.294142,1.43437 0.294142,2.191052 0,1.131096 -0.215522,2.183687 -0.648028,3.155489 -0.431407,0.968902 -1.04663,1.846748 -1.843468,2.63301 z m -3.755445,3.375645 H 9.9838876 v 4.034042 c 0,0.148627 0.05228,0.274896 0.1653274,0.387607 0.113078,0.112529 0.240424,0.16512 0.390664,0.16512 h 2.943579 c 0.150247,0 0.277609,-0.05258 0.390665,-0.16512 0.113055,-0.112719 0.165341,-0.238977 0.165341,-0.387607 z"
     fill="#ffcc00"
     id="path14647"
     style="stroke-width:1.83264" />
  <path
     d="m 23.252295,2.8984196 a 0.45149306,0.45149306 0 1 1 0.451494,0.4514929 v 0 A 0.4509504,0.4509504 0 0 1 23.252295,2.8984196 m -5.385358,4.0883993 a 0.45149306,0.45149306 0 1 1 0.451493,0.4514928 v 0 A 0.45149306,0.45149306 0 0 1 17.866937,6.9868189 m 10.775057,0.021164 a 0.45149306,0.45149306 0 1 1 0.451492,0.4514926 0.4509504,0.4509504 0 0 1 -0.451492,-0.4514928 v 0 M 19.172035,7.6266189 A 0.41242155,0.41242155 0 0 0 19.3815,7.083958 L 19.18126,6.6308379 h 0.787942 V 10.182547 H 18.379208 A 5.5606362,5.5606362 0 0 1 18.199046,8.0602038 Z m 3.296116,0.087374 V 6.6672028 h 1.876518 c 0.09713,0 0.684293,0.111789 0.684293,0.551342 0,0.3646671 -0.450407,0.4954489 -0.821045,0.4954489 z M 19.906253,13.3506 a 0.45149306,0.45149306 0 1 1 0.451492,0.451494 0.4509504,0.4509504 0 0 1 -0.451492,-0.451494 v 0 m 6.69154,0.02115 a 0.45149306,0.45149306 0 1 1 0.451492,0.451494 0.45149306,0.45149306 0 0 1 -0.451492,-0.451494 v 0 m 0.139471,-1.023997 a 0.41133623,0.41133623 0 0 0 -0.488394,0.316913 l -0.226831,1.057644 a 5.5617213,5.5617213 0 0 1 -4.637032,-0.02224 l -0.226296,-1.057652 a 0.41187889,0.41187889 0 0 0 -0.488393,-0.316369 v 0 L 19.7364,12.526833 a 5.5530389,5.5530389 0 0 1 -0.482966,-0.56925 h 4.544234 c 0.05155,0 0.08575,-0.0093 0.08575,-0.05426 v -1.609526 c 0,-0.04667 -0.03419,-0.05426 -0.08575,-0.05426 H 22.468151 V 9.2187785 h 1.437505 a 0.90352881,0.90352881 0 0 1 0.883995,0.7662362 c 0.05697,0.2241183 0.182332,0.9534513 0.268073,1.1867963 0.0852,0.262106 0.434128,0.785228 0.804222,0.785228 h 2.345918 a 5.5584655,5.5584655 0 0 1 -0.514984,0.596924 z m 2.523367,-4.2441426 a 5.5682335,5.5682335 0 0 1 0.01201,0.9653921 h -0.570337 c -0.05699,0 -0.08031,0.037452 -0.08031,0.093346 V 9.424454 c 0,0.616461 -0.347843,0.751042 -0.651192,0.785229 -0.290323,0.03256 -0.61212,-0.12156 -0.651192,-0.2990052 A 1.9622583,1.9622583 0 0 0 26.412752,8.3868771 C 26.97169,8.0319759 27.552338,7.508311 27.552338,6.8071928 A 1.7864364,1.7864364 0 0 0 26.679738,5.3403895 2.4739865,2.4739865 0 0 0 25.485885,4.9475031 H 19.58554 a 5.5600935,5.5600935 0 0 1 3.111071,-1.7560477 l 0.69569,0.7293358 a 0.41133623,0.41133623 0 0 0 0.581732,0.014029 v 0 l 0.778173,-0.7445301 a 5.5611794,5.5611794 0 0 1 3.806759,2.713301 l -0.532892,1.2030752 a 0.41296421,0.41296421 0 0 0 0.209466,0.5426608 z m 1.328435,0.019538 -0.01791,-0.1861326 0.548629,-0.5117281 a 0.22791716,0.22791716 0 0 0 -0.007,-0.3228821 0.23225845,0.23225845 0 0 0 -0.06566,-0.043952 L 30.348173,6.7963448 30.293909,6.6150951 30.731293,6.0073161 A 0.2290025,0.2290025 0 0 0 30.660762,5.6920323 0.23334377,0.23334377 0 0 0 30.5886,5.662194 L 29.848957,5.5417135 29.759946,5.3756548 30.07089,4.693531 a 0.22737452,0.22737452 0 0 0 -0.128064,-0.2952067 0.23117312,0.23117312 0 0 0 -0.07923,-0.01574 L 29.113099,4.408641 28.991537,4.2653712 29.164103,3.5344085 a 0.22845983,0.22845983 0 0 0 -0.186132,-0.2642756 0.23605707,0.23605707 0 0 0 -0.07813,0 l -0.731502,0.1709347 -0.144348,-0.1188382 0.0266,-0.7494148 a 0.22845983,0.22845983 0 0 0 -0.23389,-0.2230329 0.23117312,0.23117312 0 0 0 -0.07652,0.015226 l -0.682119,0.3109485 -0.166059,-0.089 -0.120465,-0.7396456 a 0.22845983,0.22845983 0 0 0 -0.271332,-0.1725653 0.23334377,0.23334377 0 0 0 -0.07217,0.029838 L 25.81969,2.1419698 25.638985,2.0877004 25.37688,1.3860417 A 0.22845983,0.22845983 0 0 0 25.075702,1.269377 0.23985569,0.23985569 0 0 0 25.010585,1.3127812 L 24.497226,1.8619536 24.311094,1.844041 23.916037,1.205331 a 0.22845983,0.22845983 0 0 0 -0.37335,0 L 23.147629,1.844041 22.961496,1.8619536 22.44977,1.312781 a 0.22845983,0.22845983 0 0 0 -0.322884,0.00821 0.23985569,0.23985569 0 0 0 -0.04342,0.065116 l -0.264274,0.6984029 -0.180706,0.05427 -0.607776,-0.4341257 a 0.2290025,0.2290025 0 0 0 -0.315286,0.070539 0.23334377,0.23334377 0 0 0 -0.02986,0.072165 l -0.120467,0.7396456 -0.166059,0.089 -0.682666,-0.3109452 a 0.22845983,0.22845983 0 0 0 -0.295208,0.1297022 0.240941,0.240941 0 0 0 -0.01522,0.078136 l 0.02603,0.7504993 -0.144347,0.11776 -0.730963,-0.1714806 a 0.22845983,0.22845983 0 0 0 -0.264275,0.1861326 0.23605707,0.23605707 0 0 0 0,0.078136 L 18.46387,4.2654474 18.345557,4.4092476 17.595602,4.383191 a 0.2290025,0.2290025 0 0 0 -0.207838,0.3109435 l 0.310943,0.6821238 -0.08901,0.1660587 -0.739647,0.1204636 a 0.22791716,0.22791716 0 0 0 -0.172565,0.2713295 0.23334377,0.23334377 0 0 0 0.02984,0.072182 l 0.437384,0.6077772 -0.05426,0.1812496 -0.701661,0.2621045 a 0.22845983,0.22845983 0 0 0 -0.116667,0.301176 0.2246612,0.2246612 0 0 0 0.04396,0.065664 l 0.54863,0.5117281 -0.01791,0.1861326 -0.638712,0.3950557 a 0.22845983,0.22845983 0 0 0 0,0.3733498 l 0.638712,0.3950576 0.01791,0.1861325 -0.54863,0.5117281 a 0.22845983,0.22845983 0 0 0 0.0083,0.3228822 0.23659973,0.23659973 0 0 0 0.06457,0.04342 l 0.701661,0.262104 0.05426,0.181251 -0.437384,0.609947 a 0.22845983,0.22845983 0 0 0 0.07109,0.315285 0.23334377,0.23334377 0 0 0 0.07216,0.02986 l 0.739645,0.120479 0.08901,0.166589 -0.310943,0.682122 a 0.2290025,0.2290025 0 0 0 0.130231,0.29575 0.23768505,0.23768505 0 0 0 0.07761,0.01522 l 0.7505,-0.02606 0.118834,0.144348 -0.172023,0.731503 a 0.22791716,0.22791716 0 0 0 0.185046,0.263734 0.21706396,0.21706396 0 0 0 0.07923,0 l 0.729877,-0.173108 0.144348,0.118286 -0.0266,0.749958 a 0.22737452,0.22737452 0 0 0 0.232801,0.22249 0.22411854,0.22411854 0 0 0 0.07761,-0.01522 l 0.682123,-0.310946 0.166059,0.08901 0.120466,0.739104 a 0.22845983,0.22845983 0 0 0 0.27133,0.173107 0.22086259,0.22086259 0 0 0 0.07216,-0.02986 l 0.60778,-0.437928 0.181246,0.05426 0.262106,0.701118 a 0.2290025,0.2290025 0 0 0 0.30172,0.116132 0.23659973,0.23659973 0 0 0 0.06457,-0.04342 l 0.51173,-0.548629 0.186132,0.01845 0.395056,0.638709 a 0.2290025,0.2290025 0 0 0 0.319083,0.05426 0.22411854,0.22411854 0 0 0 0.05426,-0.05426 l 0.395054,-0.638709 0.186133,-0.01845 0.511729,0.548629 a 0.22845983,0.22845983 0 0 0 0.322882,-0.0083 0.23659973,0.23659973 0 0 0 0.04341,-0.06457 l 0.262107,-0.701117 0.181247,-0.05426 0.607778,0.437925 a 0.22845983,0.22845983 0 0 0 0.315289,-0.07109 0.23334377,0.23334377 0 0 0 0.02986,-0.07217 l 0.120466,-0.739101 0.166058,-0.08901 0.682124,0.310943 a 0.22845983,0.22845983 0 0 0 0.295209,-0.129696 0.23768505,0.23768505 0 0 0 0.01522,-0.07761 l -0.02606,-0.751043 0.1438,-0.118313 0.730964,0.172025 a 0.22845983,0.22845983 0 0 0 0.264276,-0.184503 0.24256898,0.24256898 0 0 0 0,-0.07923 l -0.167683,-0.730421 0.118286,-0.144348 0.750499,0.02606 a 0.22845983,0.22845983 0 0 0 0.222491,-0.233884 0.21706396,0.21706396 0 0 0 -0.01522,-0.07706 l -0.310943,-0.682122 0.08901,-0.166589 0.739648,-0.120467 a 0.22845983,0.22845983 0 0 0 0.173112,-0.271308 0.23551441,0.23551441 0 0 0 -0.03039,-0.07326 l -0.437388,-0.607779 0.05426,-0.181247 0.701661,-0.262105 a 0.22791716,0.22791716 0 0 0 0.116667,-0.300633 0.2246612,0.2246612 0 0 0 -0.04396,-0.065664 l -0.548657,-0.5116844 0.01791,-0.1861326 0.63871,-0.3950558 a 0.22845983,0.22845983 0 0 0 0,-0.3733515 z"
     style="fill:url(#a);stroke-width:0.542661"
     id="path21" />
</svg>
