<?xml version="1.0" encoding="UTF-8" standalone="no"?>
<svg
   viewBox="0 0 32 32"
   width="32"
   height="32"
   version="1.1"
   id="svg8"
   sodipodi:docname="file_wasm_text.svg"
   inkscape:version="1.2.2 (b0a8486541, 2022-12-01)"
   xmlns:inkscape="http://www.inkscape.org/namespaces/inkscape"
   xmlns:sodipodi="http://sodipodi.sourceforge.net/DTD/sodipodi-0.dtd"
   xmlns="http://www.w3.org/2000/svg"
   xmlns:svg="http://www.w3.org/2000/svg">
  <defs
     id="defs12" />
  <sodipodi:namedview
     id="namedview10"
     pagecolor="#ffffff"
     bordercolor="#000000"
     borderopacity="0.25"
     inkscape:showpageshadow="2"
     inkscape:pageopacity="0.0"
     inkscape:pagecheckerboard="0"
     inkscape:deskcolor="#d1d1d1"
     showgrid="false"
     inkscape:zoom="4.7011552"
     inkscape:cx="31.26891"
     inkscape:cy="26.482853"
     inkscape:window-width="1920"
     inkscape:window-height="1034"
     inkscape:window-x="0"
     inkscape:window-y="20"
     inkscape:window-maximized="1"
     inkscape:current-layer="svg8" />
  <title
     id="title2">file_type_wasm</title>
  <path
     d="M19.153,2.35V2.5a3.2,3.2,0,1,1-6.4,0h0V2.35H2V30.269H29.919V2.35Z"
     style="fill:#654ff0"
     id="path4" />
  <path
     d="M8.485,17.4h1.85L11.6,24.123h.023L13.14,17.4h1.731l1.371,6.81h.027l1.44-6.81h1.815l-2.358,9.885H15.329l-1.36-6.728h-.036l-1.456,6.728h-1.87Zm13.124,0h2.917l2.9,9.885H25.515l-.63-2.2H21.562l-.486,2.2H19.217Zm1.11,2.437-.807,3.627h2.512L23.5,19.832Z"
     style="fill:#fff"
     id="path6" />
  <path
     style="fill:#5f8dd3;stroke-width:0.212714"
     d="M 1.9144231,16.272596 V 2.2334936 h 5.4145599 5.41456 l 0.144335,0.7693734 c 0.300018,1.5992314 2.054868,2.8311097 3.615844,2.5382687 1.082369,-0.2030537 2.175432,-1.2600831 2.456239,-2.3752683 l 0.234774,-0.9323738 h 5.398945 5.398948 V 16.272596 30.311698 H 15.953525 1.9144231 Z m 10.9196799,8.987153 c 0.781742,-3.830523 1.041438,-4.804996 1.19982,-4.502146 0.08659,0.165578 0.423146,1.665077 0.747897,3.33222 l 0.590457,3.03117 h 0.877312 0.877311 l 1.043415,-4.413808 c 0.573879,-2.427595 1.086803,-4.581321 1.139832,-4.786058 0.0796,-0.307316 -0.04812,-0.372249 -0.732184,-0.372249 h -0.8286 l -0.611254,3.03117 c -0.33619,1.667143 -0.680993,3.166413 -0.76623,3.331711 -0.201804,0.391352 -0.249013,0.223694 -0.968085,-3.438068 L 14.82944,17.548878 h -0.806262 c -0.92861,0 -0.798569,-0.277893 -1.592645,3.403419 -0.694969,3.221855 -0.852452,3.583908 -1.06132,2.439981 -0.08482,-0.464546 -0.359815,-1.945422 -0.611099,-3.290836 l -0.456879,-2.446207 -0.7899871,-0.06602 c -0.5457571,-0.04561 -0.7899873,0.02076 -0.7899873,0.214679 0,0.154384 0.4307452,2.273235 0.9572115,4.708558 0.5264659,2.435323 0.9572119,4.468513 0.9572119,4.518201 0,0.04969 0.409178,0.09034 0.909286,0.09034 h 0.909286 z m 8.329887,1.169925 c 0.309228,-1.53642 0.192001,-1.458231 2.085423,-1.390967 l 1.731377,0.06151 0.284789,1.01039 c 0.278008,0.986332 0.304755,1.01039 1.123279,1.01039 0.461172,0 0.83471,-0.07179 0.830088,-0.159535 -0.0046,-0.08774 -0.614504,-2.21754 -1.355293,-4.732879 l -1.346888,-4.573344 h -1.435857 -1.435861 l -1.033141,4.254273 c -0.568227,2.339851 -1.084874,4.469646 -1.148104,4.73288 -0.10444,0.434795 -0.03825,0.478605 0.723043,0.478605 0.775092,0 0.848452,-0.0519 0.977145,-0.691319 z"
     id="path187" />
  <path
     style="fill:#5f8dd3;stroke-width:0.212714"
     d="m 21.926866,23.132612 c 0.0095,-0.204737 0.178091,-1.042297 0.374543,-1.861245 0.290597,-1.211413 0.440596,-1.500962 0.804617,-1.553184 0.3964,-0.05687 0.499249,0.142412 0.901739,1.74719 0.249869,0.996258 0.454307,1.862703 0.454307,1.925433 0,0.06273 -0.574327,0.114055 -1.276282,0.114055 -1.08031,0 -1.273616,-0.05716 -1.258924,-0.372249 z"
     id="path189" />
  <path
     style="fill:#3771c8;stroke-width:0.212714"
     d="M 1.9144231,16.272596 V 2.2334936 H 7.4449786 12.975534 V 2.733821 c 0,0.7297268 0.853702,1.8896145 1.70595,2.3177982 1.789786,0.8992199 3.439863,0.031037 4.24437,-2.233163 l 0.207847,-0.5849626 h 5.429464 5.429463 V 16.272596 30.311699 H 15.953526 1.9144231 Z M 12.42899,26.572288 c 0.07574,-0.301788 0.327074,-1.474372 0.558511,-2.605743 0.524275,-2.562889 0.83466,-3.530595 1.058365,-3.299723 0.09546,0.09851 0.420369,1.375633 0.722027,2.838039 0.301657,1.462407 0.597933,2.874294 0.658389,3.137527 0.0876,0.381393 0.257407,0.478606 0.836032,0.478606 0.510669,0 0.756531,-0.11045 0.828637,-0.372249 0.05639,-0.204737 0.55221,-2.274369 1.101826,-4.599183 0.81728,-3.457004 0.946512,-4.26038 0.709486,-4.410552 -0.297733,-0.188633 -1.034314,-0.260412 -1.034314,-0.100792 0,0.173653 -1.08513,5.133773 -1.301004,5.946879 -0.12071,0.454665 -0.298858,0.741007 -0.397018,0.638141 -0.09793,-0.102626 -0.432005,-1.478828 -0.742388,-3.058227 -0.310382,-1.579399 -0.612624,-3.039147 -0.671648,-3.243884 -0.127555,-0.442452 -0.984766,-0.499198 -1.326203,-0.08779 -0.129843,0.156451 -0.527057,1.566161 -0.882697,3.132688 -0.896232,3.947724 -0.993725,3.99903 -1.590746,0.837129 -0.827714,-4.383682 -0.709269,-4.04156 -1.3992106,-4.04156 -0.3545499,0 -0.6247481,0.114587 -0.626977,0.265892 -0.00215,0.146241 0.4000694,2.200122 0.8938304,4.564181 0.7913832,3.789034 0.9493602,4.308545 1.3333772,4.384841 0.961425,0.191019 1.136279,0.135441 1.271725,-0.404218 z m 8.728503,-0.640485 0.232779,-0.831589 1.832297,-0.06113 1.832296,-0.06113 0.288568,0.911985 c 0.253633,0.801588 0.372251,0.920052 0.979884,0.97864 0.380226,0.03666 0.69132,-4.25e-4 0.69132,-0.0826 0,-0.11408 -1.506496,-5.388616 -2.471195,-8.652137 -0.08981,-0.303809 -0.357984,-0.372249 -1.458635,-0.372249 H 21.736211 L 20.64893,22.26673 c -1.124257,4.658343 -1.136252,5.019009 -0.154848,4.655964 0.259486,-0.09599 0.523146,-0.489798 0.663411,-0.99089 z"
     id="path129" />
  <path
     style="fill:#3771c8;stroke-width:0.212714"
     d="m 21.909509,22.963615 c 0,-0.297686 0.155218,-1.159177 0.34493,-1.914424 0.301315,-1.199537 0.407863,-1.373176 0.842614,-1.373176 0.41635,0 0.552022,0.182505 0.830178,1.116747 0.182872,0.61421 0.390256,1.475701 0.460855,1.914423 l 0.12836,0.797676 h -1.303469 c -1.254634,0 -1.303468,-0.02028 -1.303468,-0.541246 z"
     id="path131" />
  <path
     style="fill:#5f8dd3;stroke-width:0.212714"
     d="M 1.9144231,16.272596 V 2.2334936 h 5.5039663 5.5039666 l 0.124142,0.6207127 c 0.06828,0.3413921 0.424012,0.9622446 0.790518,1.3796722 1.62496,1.850727 4.011369,1.2313074 4.918235,-1.276584 l 0.26173,-0.7238009 h 5.487824 5.487823 V 16.272596 30.311699 H 15.953526 1.9144231 Z M 16.751601,26.945401 c 0.264628,-0.168023 2.17969,-7.803246 2.179838,-8.690869 6.7e-5,-0.39745 -0.731832,-0.917085 -0.946359,-0.671897 -0.03494,0.03993 -0.271968,1.077672 -0.526737,2.306094 -0.642446,3.097693 -1.075651,4.557409 -1.286752,4.335808 -0.09844,-0.10334 -0.478411,-1.572341 -0.844368,-3.264445 -0.582042,-2.691225 -0.851975,-3.404699 -1.28812,-3.404699 -0.430266,0 -0.733583,0.713217 -1.433738,3.371278 -0.439866,1.669903 -0.895477,3.034746 -1.01247,3.032983 -0.116992,-0.0018 -0.499877,-1.373116 -0.850854,-3.047454 -0.615286,-2.935221 -0.657187,-3.044251 -1.1699256,-3.044251 -0.4642408,0 -0.5231087,0.08105 -0.4634804,0.638141 0.1189406,1.111225 1.55074,7.623571 1.763528,8.021169 0.181928,0.339935 1.46523,0.577332 1.46523,0.271052 0,-0.06049 0.240359,-1.233069 0.53413,-2.605742 0.59333,-2.77239 0.931425,-3.77473 1.186641,-3.517998 0.0937,0.09425 0.466184,1.502212 0.82775,3.128798 0.361565,1.626585 0.70748,3.038472 0.768699,3.137526 0.139453,0.225641 0.744795,0.228127 1.096988,0.0045 z m 4.30302,-1.054843 0.315038,-0.911366 1.899998,0.06051 1.899999,0.06051 0.244506,0.727738 c 0.211457,0.629373 0.651836,1.011362 1.228226,1.065376 0.08774,0.0082 0.158676,-0.15256 0.157627,-0.357297 -0.0037,-0.726896 -2.330761,-8.425897 -2.597998,-8.595486 -0.14945,-0.09484 -0.757065,-0.173904 -1.350255,-0.175696 l -1.078527,-0.0033 -0.89357,3.882024 c -1.2948,5.625126 -1.256455,5.316126 -0.649031,5.230255 0.382933,-0.05413 0.586953,-0.297603 0.823987,-0.983313 z"
     id="path275" />
  <path
     style="fill:#5f8dd3;stroke-width:0.212714"
     d="m 21.976542,22.388114 c 0.221258,-1.952459 0.525742,-2.712099 1.087084,-2.712099 0.523061,0 0.744706,0.381677 1.173492,2.02078 0.447824,1.711877 0.39031,1.808066 -1.081087,1.808066 H 21.84999 Z"
     id="path277" />
</svg>
