<?xml version="1.0" encoding="UTF-8" standalone="no"?>
<svg
   viewBox="0 0 105.1 105.1"
   width="105.1"
   height="105.1"
   version="1.1"
   id="svg50"
   sodipodi:docname="file_rust_toolchain.svg"
   inkscape:version="1.2.2 (b0a8486541, 2022-12-01)"
   xmlns:inkscape="http://www.inkscape.org/namespaces/inkscape"
   xmlns:sodipodi="http://sodipodi.sourceforge.net/DTD/sodipodi-0.dtd"
   xmlns:xlink="http://www.w3.org/1999/xlink"
   xmlns="http://www.w3.org/2000/svg"
   xmlns:svg="http://www.w3.org/2000/svg">
  <sodipodi:namedview
     id="namedview52"
     pagecolor="#ffffff"
     bordercolor="#000000"
     borderopacity="0.25"
     inkscape:showpageshadow="2"
     inkscape:pageopacity="0.0"
     inkscape:pagecheckerboard="0"
     inkscape:deskcolor="#d1d1d1"
     showgrid="false"
     inkscape:zoom="2.2454805"
     inkscape:cx="48.541949"
     inkscape:cy="52.55"
     inkscape:window-width="1920"
     inkscape:window-height="1154"
     inkscape:window-x="0"
     inkscape:window-y="20"
     inkscape:window-maximized="1"
     inkscape:current-layer="svg50" />
  <defs
     id="defs26">
    <radialGradient
       id="a"
       cx="66.024"
       cy="35.312"
       r="13.158"
       gradientUnits="userSpaceOnUse">
      <stop
         offset="0"
         stop-color="#7d7d7d"
         id="stop2" />
      <stop
         offset="0.267"
         stop-color="#7e7c7a"
         id="stop4" />
      <stop
         offset="0.45"
         stop-color="#817871"
         id="stop6" />
      <stop
         offset="0.608"
         stop-color="#867162"
         id="stop8" />
      <stop
         offset="0.753"
         stop-color="#8d684c"
         id="stop10" />
      <stop
         offset="0.886"
         stop-color="#965c30"
         id="stop12" />
      <stop
         offset="1"
         stop-color="#a04f12"
         id="stop14" />
    </radialGradient>
    <radialGradient
       id="b"
       cx="62.112"
       cy="59.65"
       r="22.181"
       xlink:href="#a"
       gradientTransform="matrix(0.8932975,0,0,0.8932975,5.8902709,6.0228038)" />
    <radialGradient
       id="c"
       cx="78.557"
       cy="34.677"
       r="6.267"
       xlink:href="#a"
       gradientTransform="matrix(0.8932975,0,0,0.8932975,5.8902709,6.0228038)" />
    <radialGradient
       id="d"
       cx="40.676"
       cy="67.188"
       r="13.356"
       xlink:href="#a"
       gradientTransform="matrix(0.8932975,0,0,0.8932975,5.8902709,6.0228038)" />
    <radialGradient
       id="e"
       cx="27.993"
       cy="68.059"
       r="6.308"
       xlink:href="#a"
       gradientTransform="matrix(0.8932975,0,0,0.8932975,5.8902709,6.0228038)" />
    <radialGradient
       id="f"
       cx="27.55"
       cy="38.75"
       r="0.25"
       xlink:href="#a"
       gradientTransform="matrix(0.8932975,0,0,0.8932975,5.8902709,6.0228038)" />
    <radialGradient
       id="g"
       cx="26.75"
       cy="44.05"
       r="6.65"
       xlink:href="#a"
       gradientTransform="matrix(0.8932975,0,0,0.8932975,5.8902709,6.0228038)" />
    <radialGradient
       id="h"
       cx="48.549"
       cy="25.889"
       r="6.691"
       xlink:href="#a"
       gradientTransform="matrix(0.8932975,0,0,0.8932975,5.8902709,6.0228038)" />
    <radialGradient
       id="i"
       cx="36.806"
       cy="33.95"
       r="10.728"
       xlink:href="#a"
       gradientTransform="matrix(0.8932975,0,0,0.8932975,5.8902709,6.0228038)" />
    <radialGradient
       id="j"
       cx="52.55"
       cy="52.488"
       r="52.206"
       xlink:href="#a"
       gradientTransform="matrix(0.8932975,0,0,0.8932975,5.8902709,6.0228038)" />
    <radialGradient
       inkscape:collect="always"
       xlink:href="#a"
       id="radialGradient200"
       gradientUnits="userSpaceOnUse"
       cx="66.024"
       cy="35.312"
       r="13.158"
       gradientTransform="matrix(0.8932975,0,0,0.8932975,5.8902709,6.0228038)" />
  </defs>
  <title
     id="title28">file_type_rust_toolchain</title>
  <path
     d="m 61.364046,50.68768 4.01984,-4.019839 a 11.702197,11.702197 0 0 0 9.022304,-0.178659 1.1130487,1.1130487 0 0 0 0.357319,-1.786596 l -7.14638,-7.146379 a 2.1582068,2.1582068 0 0 1 0,-3.126541 l 7.14638,-7.146381 A 1.1050091,1.1050091 0 0 0 74.40619,25.49669 11.562843,11.562843 0 0 0 58.773483,40.057439 l -4.109168,4.109169 z"
     style="fill:url(#radialGradient200);stroke-width:0.893298"
     id="path30" />
  <path
     d="m 53.681688,45.059906 -5.538445,-5.538445 -6.610401,6.610402 5.538444,5.538445 6.610402,6.610401 20.367183,20.367183 a 1.5096728,1.5096728 0 0 0 2.143914,0 l 4.555817,-4.555817 a 1.4596482,1.4596482 0 0 0 0,-2.143913 L 60.29209,51.759637 Z"
     style="fill:url(#b);stroke-width:0.893298"
     id="path32" />
  <path
     d="m 77.800721,30.856475 -5.985094,5.985094 a 1.2425768,1.2425768 0 0 0 0,1.697265 l 4.555817,4.555818 a 1.1934455,1.1934455 0 0 0 1.786596,-0.08933 11.536044,11.536044 0 0 0 1.518606,-11.791528 1.1907656,1.1907656 0 0 0 -1.875925,-0.357319 z"
     style="fill:url(#c);stroke-width:0.893298"
     id="path34" />
  <path
     d="m 32.153218,59.084677 7.146379,7.14638 a 2.1582068,2.1582068 0 0 1 0,3.126541 l -7.146379,7.146381 a 1.1050091,1.1050091 0 0 0 0.357319,1.786594 11.537831,11.537831 0 0 0 15.632706,-14.47142 l 4.466487,-4.466487 -6.610401,-6.610401 -4.377158,4.377158 a 11.924629,11.924629 0 0 0 -9.111634,0.178659 1.1130487,1.1130487 0 0 0 -0.357319,1.786595 z"
     style="fill:url(#d);stroke-width:0.893298"
     id="path36" />
  <path
     d="m 28.758686,60.781942 a 11.536044,11.536044 0 0 0 -1.518605,11.791527 1.1871924,1.1871924 0 0 0 1.965254,0.357319 l 5.985094,-5.985093 a 1.2425768,1.2425768 0 0 0 0,-1.697265 l -4.555817,-4.555818 a 1.2899216,1.2899216 0 0 0 -1.875926,0.08933 z"
     style="fill:url(#e);stroke-width:0.893298"
     id="path38" />
  <path
     d="m 30.277293,40.861407 h 0.446648 l -0.446648,-0.446649 z"
     style="fill:url(#f);stroke-width:0.893298"
     id="path40" />
  <path
     d="m 34.386461,47.11449 1.339947,-1.339946 -4.913137,-4.913137 h -0.446649 a 0.80396777,0.80396777 0 0 1 0.08933,-0.446649 l -0.982627,-0.982627 -1.339946,1.339947 -0.803968,-0.714639 a 1.8330465,1.8330465 0 0 0 -2.590563,0 l -0.357319,0.357319 a 1.8330465,1.8330465 0 0 0 0,2.590564 l 7.771689,7.771688 a 1.8330465,1.8330465 0 0 0 2.590562,0 l 0.357319,-0.357319 a 1.8330465,1.8330465 0 0 0 0,-2.590563 z"
     style="fill:url(#g);stroke-width:0.893298"
     id="path42" />
  <path
     d="m 41.979491,27.193955 6.253082,6.253083 c 7.23571,-4.823806 11.255549,-0.803968 5.717104,-6.342412 -3.841179,-3.84118 -8.664986,-2.054584 -11.970186,0.08933 z"
     style="fill:url(#h);stroke-width:0.893298"
     id="path44" />
  <path
     d="m 47.785924,35.144303 -0.714638,-0.714637 -6.342412,-6.431743 -0.714638,-0.714638 a 1.7267441,1.7267441 0 0 0 -2.501233,0 l -7.771689,7.771688 a 1.8330465,1.8330465 0 0 0 0,2.590564 l 0.535979,0.535978 v 0 l 0.08933,0.08933 0.625309,0.625308 c 1.429276,-2.143914 4.198498,-4.287829 2.054584,-6.342412 2.143914,2.143913 -0.625308,4.287828 -2.054584,6.342412 l 1.875925,1.875925 v 0 l 3.930509,3.930508 0.714638,0.714639 a 1.7633693,1.7633693 0 0 0 1.250616,0.535978 h 0.357319 a 1.795528,1.795528 0 0 0 0.714638,-0.357319 c 0.08933,-0.08933 0.17866,-0.08933 0.17866,-0.178659 l 0.357319,-0.357319 6.610402,-6.610402 0.535977,-0.535978 0.26799,-0.267989 a 1.2327505,1.2327505 0 0 0 0.267989,-0.35732 1.6490272,1.6490272 0 0 0 -0.26799,-2.143914 z"
     style="fill:url(#i);stroke-width:0.893298"
     id="path46" />
  <path
     d="M 52.78839,6.2907932 A 1.3015345,1.3015345 0 0 0 51.627104,6.9161015 L 49.2152,10.846611 48.053913,10.935941 44.927372,7.5414097 a 1.3587055,1.3587055 0 0 0 -2.233244,0.4466487 l -1.607935,4.2878286 -1.071957,0.357319 -3.75185,-2.6798925 a 1.4641146,1.4641146 0 0 0 -2.143914,0.8932975 l -0.714638,4.555818 -1.071957,0.446649 -4.198498,-1.875926 a 1.3649586,1.3649586 0 0 0 -1.875925,1.250617 l 0.178659,4.645147 -0.893297,0.714637 -4.466488,-1.071956 a 1.387291,1.387291 0 0 0 -1.607936,1.607935 l 1.071958,4.466487 -0.714639,0.893298 -4.645146,-0.178659 a 1.3774647,1.3774647 0 0 0 -1.250616,1.875925 l 1.875924,4.198498 -0.535979,0.982628 -4.555817,0.714638 A 1.4453553,1.4453553 0 0 0 9.8207799,36.21626 l 2.6798931,3.75185 -0.35732,1.250616 -4.2878274,1.607936 a 1.3667452,1.3667452 0 0 0 -0.4466488,2.233244 l 3.3945302,3.126542 -0.08933,1.161286 -3.9305087,2.411903 a 1.4194497,1.4194497 0 0 0 0,2.322573 l 3.9305087,2.411904 0.08933,1.161287 -3.3945302,3.126541 a 1.3587055,1.3587055 0 0 0 0.4466488,2.233243 l 4.2878274,1.697266 0.35732,1.071957 -2.6798931,3.75185 a 1.4453553,1.4453553 0 0 0 0.8932971,2.143914 l 4.555817,0.714637 0.535979,0.982628 -1.875924,4.198498 a 1.3649586,1.3649586 0 0 0 1.250616,1.875925 l 4.645146,-0.178659 0.714639,0.893297 -1.071958,4.466488 a 1.387291,1.387291 0 0 0 1.607936,1.607935 l 4.466488,-1.071956 0.893297,0.714637 -0.178659,4.645147 a 1.3774647,1.3774647 0 0 0 1.875925,1.250617 l 4.198498,-1.875925 0.982628,0.535978 0.714637,4.555817 a 1.4453553,1.4453553 0 0 0 2.143914,0.893298 l 3.75185,-2.679892 1.071957,0.357319 1.607936,4.287828 a 1.3667452,1.3667452 0 0 0 2.233243,0.446649 l 3.126541,-3.39453 1.161287,0.08933 2.411904,3.93051 a 1.4194497,1.4194497 0 0 0 2.322573,0 l 2.411904,-3.93051 1.161286,-0.08933 3.126542,3.39453 a 1.3587055,1.3587055 0 0 0 2.233243,-0.446649 l 1.607936,-4.287828 1.071957,-0.357319 3.75185,2.679892 a 1.4641146,1.4641146 0 0 0 2.143913,-0.893298 l 0.714638,-4.555817 0.982628,-0.535978 4.198498,1.875925 a 1.3649586,1.3649586 0 0 0 1.875925,-1.250617 l -0.178659,-4.645147 0.893296,-0.714637 4.466489,1.071956 a 1.387291,1.387291 0 0 0 1.607935,-1.607935 l -1.071957,-4.466488 0.714638,-0.893297 4.645147,0.178659 a 1.3774647,1.3774647 0 0 0 1.250617,-1.875925 l -1.607936,-4.198498 0.535978,-0.982628 4.555818,-0.714637 a 1.4453553,1.4453553 0 0 0 0.893297,-2.143914 l -2.679892,-3.75185 0.357319,-1.071957 4.287828,-1.607936 a 1.3667452,1.3667452 0 0 0 0.446649,-2.233243 l -3.394531,-3.126541 0.08933,-1.161287 3.930509,-2.411904 a 1.4194497,1.4194497 0 0 0 0,-2.322573 l -3.930509,-2.411904 -0.08933,-1.161286 3.394531,-3.126542 a 1.3587055,1.3587055 0 0 0 -0.446649,-2.233246 l -4.287828,-1.607936 -0.357319,-1.071957 2.679892,-3.751849 a 1.4641146,1.4641146 0 0 0 -0.893297,-2.143914 l -4.555818,-0.714638 -0.535978,-1.161287 1.875925,-4.198498 a 1.3649586,1.3649586 0 0 0 -1.250617,-1.875923 l -4.555817,0.17866 -0.714638,-0.893298 1.071957,-4.466487 a 1.387291,1.387291 0 0 0 -1.607936,-1.607935 l -4.466488,1.071957 -0.893296,-0.714638 0.178659,-4.645147 a 1.3774647,1.3774647 0 0 0 -1.875925,-1.250617 l -4.287828,1.786596 -0.982627,-0.535979 -0.714639,-4.555817 A 1.4453553,1.4453553 0 0 0 69.493054,9.8639835 L 65.741205,12.543876 64.579918,12.275887 62.971982,7.9880584 A 1.3667452,1.3667452 0 0 0 60.738738,7.5414097 L 57.612196,10.935941 56.45091,10.846611 54.039007,6.9161015 A 1.3515591,1.3515591 0 0 0 52.78839,6.2907932 Z m 0,8.2183378 v 0 a 2.7075848,2.7075848 0 0 1 2.679893,2.769222 c 0,3.662519 -5.538445,3.662519 -5.538445,0 a 2.6968653,2.6968653 0 0 1 2.858552,-2.769222 z m 6.342413,4.555817 a 34.381235,34.381235 0 0 1 23.404395,16.704663 l -3.305201,7.41437 a 2.5244588,2.5244588 0 0 0 1.250616,3.305201 l 6.342413,2.769222 c 0.178659,1.965255 0,5.895764 0,5.895764 a 34.592053,34.592053 0 0 1 -6.610403,17.77662 46.191521,46.191521 0 0 1 -3.037211,3.662521 l -5.895764,-1.250617 a 2.5905628,2.5905628 0 0 0 -3.037211,1.965254 l -1.429276,6.521072 A 34.139151,34.139151 0 0 1 38.31697,83.650359 l -1.429275,-6.521073 a 2.5726968,2.5726968 0 0 0 -3.037213,-1.965254 l -5.717103,1.250617 C 27.061422,75.342692 25.185497,72.930788 25.185497,72.930788 A 33.534389,33.534389 0 0 1 19.825711,62.032559 c 0,0 -0.357319,-1.339947 -0.535977,-1.965255 -0.08933,-0.267989 -0.08933,-0.535979 -0.17866,-0.803968 a 20.863857,20.863857 0 0 1 -0.357319,-2.322573 c -0.08933,-0.357319 -0.08933,-0.714638 -0.178659,-1.161287 -0.08933,-0.625308 -0.17866,-2.769222 -0.17866,-3.126541 v -1.161287 c 0,-0.446649 0.08933,-0.893298 0.08933,-1.339947 0,-0.357319 0.08933,-0.803967 0.08933,-1.161287 l 5.985092,-2.679892 a 2.5217789,2.5217789 0 0 0 1.250617,-3.39453 l -3.037211,-6.878391 a 33.467392,33.467392 0 0 1 4.377158,-6.163753 c 0,0 0.803968,-0.893297 1.071957,-1.161287 0.535977,-0.535978 1.071956,-1.071957 1.697264,-1.607935 l 0.17866,-0.17866 v 0 a 34.011409,34.011409 0 0 1 16.07935,-7.861018 l 4.287828,4.466488 a 2.5360717,2.5360717 0 0 0 3.57319,0.08933 z M 19.647052,39.610791 v 0 a 2.6995451,2.6995451 0 0 1 1.429276,0.446648 v 0 a 2.7745821,2.7745821 0 0 1 -1.607936,5.091796 v 0 A 2.7692223,2.7692223 0 0 1 16.7885,42.380013 2.8031676,2.8031676 0 0 1 19.647052,39.610791 Z m 66.193346,0.08933 v 0 a 2.7075848,2.7075848 0 0 1 2.679893,2.769225 c 0,3.66252 -5.538445,3.66252 -5.538445,0 a 2.8585521,2.8585521 0 0 1 2.858552,-2.769223 z m -53.68718,39.037104 v 0 a 2.7075848,2.7075848 0 0 1 2.679892,2.769222 c 0,3.662521 -5.538445,3.662521 -5.538445,0 a 2.8585521,2.8585521 0 0 1 2.858553,-2.769222 z m 41.181015,0.08933 v 0 a 2.7075848,2.7075848 0 0 1 2.679892,2.769222 c 0,3.66252 -5.538444,3.66252 -5.538444,0 a 2.8031676,2.8031676 0 0 1 2.858552,-2.769228 z"
     style="fill:url(#j);stroke-width:0.893298"
     id="path48" />
</svg>
