<?xml version="1.0" encoding="UTF-8" standalone="no"?>
<svg
   width="48"
   height="48"
   version="1"
   id="svg70"
   sodipodi:docname="file_sage.svg"
   inkscape:version="1.2.2 (b0a8486541, 2022-12-01)"
   xmlns:inkscape="http://www.inkscape.org/namespaces/inkscape"
   xmlns:sodipodi="http://sodipodi.sourceforge.net/DTD/sodipodi-0.dtd"
   xmlns="http://www.w3.org/2000/svg"
   xmlns:svg="http://www.w3.org/2000/svg">
  <defs
     id="defs74" />
  <sodipodi:namedview
     id="namedview72"
     pagecolor="#ffffff"
     bordercolor="#000000"
     borderopacity="0.25"
     inkscape:showpageshadow="2"
     inkscape:pageopacity="0.0"
     inkscape:pagecheckerboard="0"
     inkscape:deskcolor="#d1d1d1"
     showgrid="false"
     inkscape:zoom="19.666667"
     inkscape:cx="18.330508"
     inkscape:cy="18.508474"
     inkscape:window-width="1920"
     inkscape:window-height="1154"
     inkscape:window-x="0"
     inkscape:window-y="20"
     inkscape:window-maximized="1"
     inkscape:current-layer="svg70" />
  <path
     style="fill:none;stroke:#86a1ff;stroke-width:0.994414"
     d="M 42.092427,24.085983 39.842441,16.644529"
     id="path4" />
  <path
     style="fill:none;stroke:#86a1ff;stroke-width:0.497206"
     d="M 35.638342,27.925797 40.016864,16.748286"
     id="path6" />
  <path
     style="fill:none;stroke:#86a1ff;stroke-width:0.497206"
     d="m 35.581392,37.256352 0.142402,-9.584697"
     id="path8" />
  <path
     style="fill:none;stroke:#86a1ff;stroke-width:0.497206"
     d="m 26.608512,35.809662 8.97288,1.72124"
     id="path10" />
  <path
     style="fill:none;stroke:#86a1ff;stroke-width:0.994414"
     d="M 21.07515,41.3555 14.97056,38.10911"
     id="path12" />
  <path
     style="fill:none;stroke:#86a1ff;stroke-width:0.497206"
     d="M 15.11453,38.549038 26.608512,35.809662"
     id="path14" />
  <path
     style="fill:none;stroke:#86a1ff;stroke-width:0.497206"
     d="M 8.7723958,29.491511 14.630767,20.602166"
     id="path16" />
  <path
     style="fill:none;stroke:#86a1ff;stroke-width:0.994414"
     d="M 6.7084319,15.99229 12.150235,12.44946"
     id="path18" />
  <path
     style="fill:none;stroke:#86a1ff;stroke-width:0.994414"
     d="M 12.324659,12.493911 17.574615,6.4755257"
     id="path20" />
  <path
     style="fill:none;stroke:#86a1ff;stroke-width:0.497206"
     d="m 21.652966,14.41629 9.105861,-3.683496"
     id="path22" />
  <path
     style="fill:none;stroke:#86a1ff;stroke-width:0.497206"
     d="m 18.31243,5.894186 -3.853108,14.70798"
     id="path24" />
  <path
     style="fill:none;stroke:#86a1ff;stroke-width:0.497206"
     d="M 6.3524897,16.109198 21.652966,14.41629"
     id="path26" />
  <path
     style="fill:none;stroke:#d1dbff;stroke-width:1.98882"
     d="M 30.725653,10.092495 26.195257,28.586626"
     id="path32" />
  <path
     style="fill:none;stroke:#d1dbff;stroke-width:1.98882"
     d="M 30.498908,10.56686 12.359532,12.656976"
     id="path34" />
  <path
     style="fill:none;stroke:#d1dbff;stroke-width:1.98882"
     d="M 26.195257,28.586626 12.376983,12.553218"
     id="path36" />
  <path
     style="fill:none;stroke:#d1dbff;stroke-width:1.49161"
     d="M 26.195257,28.586626 21.533869,41.785389"
     id="path38" />
  <path
     style="fill:none;stroke:#d1dbff;stroke-width:1.4913"
     d="M 8.9758427,29.630029 12.324659,12.330869"
     id="path40" />
  <path
     style="fill:none;stroke:#d1dbff;stroke-width:1.49161"
     d="M 21.272247,41.47409 8.8886441,29.956136"
     id="path42" />
  <path
     style="fill:none;stroke:#d1dbff;stroke-width:1.49161"
     d="M 35.748865,37.219714 21.219923,41.414782"
     id="path44" />
  <path
     style="fill:none;stroke:#d1dbff;stroke-width:1.49161"
     d="m 41.783707,24.130457 -6.034842,13.13371"
     id="path46" />
  <path
     style="fill:none;stroke:#d1dbff;stroke-width:1.49161"
     d="M 26.195257,28.586626 41.287724,23.77627"
     id="path48" />
  <path
     style="fill:none;stroke:#d1dbff;stroke-width:1.4913"
     d="M 30.760554,10.448269 41.539511,24.085983"
     id="path50" />
  <path
     style="fill:none;stroke:#d1dbff;stroke-width:1.49161"
     d="M 8.6740971,29.630029 26.195257,28.586626"
     id="path52" />
  <path
     style="fill:none;stroke:#86a1ff;stroke-width:0.994414"
     d="m 5.5694788,28.79989 9.0871372,9.220296"
     id="path54" />
  <path
     style="fill:none;stroke:#86a1ff;stroke-width:0.994414"
     d="M 6.5287859,16.11088 5.8485474,28.79989"
     id="path56" />
  <path
     style="fill:none;stroke:#86a1ff;stroke-width:0.994414"
     d="m 17.56939,5.9567094 13.517308,0.459533"
     id="path58" />
  <path
     style="fill:none;stroke:#86a1ff;stroke-width:0.994414"
     d="M 40.016864,16.748286 31.452968,6.3717667"
     id="path60" />
  <path
     style="fill:none;stroke:#ffffff;stroke-width:0.994414"
     d="M 30.59833,10.25556 31.400642,6.4755257"
     id="path62" />
  <path
     style="fill:none;stroke:#86a1ff;stroke-width:0.994414"
     d="M 9.1450388,29.77784 5.6043779,29.110768"
     id="path64" />
  <path
     style="opacity:0.2;stroke-width:1.4029;fill:none"
     d="m 18.352186,5.9273779 a 1.4334713,1.3729918 0 0 0 -1.433473,1.3729932 1.4334713,1.3729918 0 0 0 1.433473,1.3729896 1.4334713,1.3729918 0 0 0 1.43347,-1.3729896 1.4334713,1.3729918 0 0 0 -1.43347,-1.3729932 z M 31.611794,7.3003711 A 1.0751034,1.0297438 0 0 0 30.53669,8.3301143 1.0751034,1.0297438 0 0 0 31.611794,9.359859 1.0751034,1.0297438 0 0 0 32.686898,8.3301143 1.0751034,1.0297438 0 0 0 31.611794,7.3003711 Z m -0.716735,2.7459819 a 1.7918392,1.7162397 0 0 0 -1.791841,1.71624 1.7918392,1.7162397 0 0 0 1.791841,1.71624 1.7918392,1.7162397 0 0 0 1.791839,-1.71624 1.7918392,1.7162397 0 0 0 -1.791839,-1.71624 z m -18.635127,2.745985 a 1.7918392,1.7162397 0 0 0 -1.79184,1.71624 1.7918392,1.7162397 0 0 0 1.79184,1.716239 1.7918392,1.7162397 0 0 0 1.791839,-1.716239 1.7918392,1.7162397 0 0 0 -1.791839,-1.71624 z m 9.317564,2.059486 a 1.0751034,1.0297438 0 0 0 -1.075106,1.029744 1.0751034,1.0297438 0 0 0 1.075106,1.029744 1.0751034,1.0297438 0 0 0 1.075103,-1.029744 1.0751034,1.0297438 0 0 0 -1.075103,-1.029744 z M 6.8844152,16.224817 A 1.4334713,1.3729918 0 0 0 5.4509431,17.597808 1.4334713,1.3729918 0 0 0 6.8844152,18.9708 1.4334713,1.3729918 0 0 0 8.3178848,17.597808 1.4334713,1.3729918 0 0 0 6.8844152,16.224817 Z m 33.3282058,0.686495 a 1.0751034,1.0297438 0 0 0 -1.075102,1.029746 1.0751034,1.0297438 0 0 0 1.075102,1.029742 1.0751034,1.0297438 0 0 0 1.075103,-1.029742 1.0751034,1.0297438 0 0 0 -1.075103,-1.029746 z m -25.785683,4.14311 a 1.0751034,1.0297438 0 0 0 -1.075104,1.029744 1.0751034,1.0297438 0 0 0 1.075104,1.029744 1.0751034,1.0297438 0 0 0 1.075102,-1.029744 1.0751034,1.0297438 0 0 0 -1.075102,-1.029744 z m 26.860786,2.721848 a 1.4334713,1.3729918 0 0 0 -1.433469,1.372994 1.4334713,1.3729918 0 0 0 1.433469,1.372989 1.4334713,1.3729918 0 0 0 1.433472,-1.372989 1.4334713,1.3729918 0 0 0 -1.433472,-1.372994 z m -15.051447,4.118976 a 2.1502069,2.0594876 0 0 0 -2.150208,2.059487 2.1502069,2.0594876 0 0 0 2.150208,2.05949 2.1502069,2.0594876 0 0 0 2.150206,-2.05949 2.1502069,2.0594876 0 0 0 -2.150206,-2.059487 z m 9.541544,0.437105 a 1.0751034,1.0297438 0 0 0 -1.075105,1.029744 1.0751034,1.0297438 0 0 0 1.075105,1.029743 1.0751034,1.0297438 0 0 0 1.075102,-1.029743 1.0751034,1.0297438 0 0 0 -1.075102,-1.029744 z M 5.809311,29.268238 A 1.0751034,1.0297438 0 0 0 4.7342073,30.297983 1.0751034,1.0297438 0 0 0 5.809311,31.327726 1.0751034,1.0297438 0 0 0 6.8844152,30.297983 1.0751034,1.0297438 0 0 0 5.809311,29.268238 Z m 3.2253117,0 A 1.4334713,1.3729918 0 0 0 7.601149,30.641229 1.4334713,1.3729918 0 0 0 9.0346227,32.014223 1.4334713,1.3729918 0 0 0 10.468092,30.641229 1.4334713,1.3729918 0 0 0 9.0346227,29.268238 Z m 17.5600213,6.864957 a 1.0751034,1.0297438 0 0 0 -1.075102,1.029747 1.0751034,1.0297438 0 0 0 1.075102,1.029742 1.0751034,1.0297438 0 0 0 1.075104,-1.029742 1.0751034,1.0297438 0 0 0 -1.075104,-1.029747 z m 8.959197,1.372993 a 1.4334713,1.3729918 0 0 0 -1.433473,1.372994 1.4334713,1.3729918 0 0 0 1.433473,1.372989 1.4334713,1.3729918 0 0 0 1.433468,-1.372989 1.4334713,1.3729918 0 0 0 -1.433468,-1.372994 z m -20.426967,1.372994 a 1.0751034,1.0297438 0 0 0 -1.075103,1.029743 1.0751034,1.0297438 0 0 0 1.075103,1.029744 1.0751034,1.0297438 0 0 0 1.075104,-1.029744 1.0751034,1.0297438 0 0 0 -1.075104,-1.029743 z m 6.092254,2.745982 a 1.4334713,1.3729918 0 0 0 -1.433472,1.37299 1.4334713,1.3729918 0 0 0 1.433472,1.372994 1.4334713,1.3729918 0 0 0 1.433471,-1.372994 1.4334713,1.3729918 0 0 0 -1.433471,-1.37299 z"
     id="path66" />
  <path
     style="fill:#ffffff;stroke-width:1.4029"
     d="m 18.352186,4.5543852 a 1.4334713,1.3729918 0 0 0 -1.433473,1.3729927 1.4334713,1.3729918 0 0 0 1.433473,1.3729932 1.4334713,1.3729918 0 0 0 1.43347,-1.3729932 1.4334713,1.3729918 0 0 0 -1.43347,-1.3729927 z M 31.611794,5.9273779 A 1.0751034,1.0297438 0 0 0 30.53669,6.9571215 1.0751034,1.0297438 0 0 0 31.611794,7.9868649 1.0751034,1.0297438 0 0 0 32.686898,6.9571215 1.0751034,1.0297438 0 0 0 31.611794,5.9273779 Z m -0.716735,2.7459828 a 1.7918392,1.7162397 0 0 0 -1.791841,1.7162413 1.7918392,1.7162397 0 0 0 1.791841,1.716239 1.7918392,1.7162397 0 0 0 1.791839,-1.716239 1.7918392,1.7162397 0 0 0 -1.791839,-1.7162413 z M 12.259932,11.419346 a 1.7918392,1.7162397 0 0 0 -1.79184,1.716239 1.7918392,1.7162397 0 0 0 1.79184,1.716239 1.7918392,1.7162397 0 0 0 1.791839,-1.716239 1.7918392,1.7162397 0 0 0 -1.791839,-1.716239 z m 9.317564,2.059487 a 1.0751034,1.0297438 0 0 0 -1.075106,1.029745 1.0751034,1.0297438 0 0 0 1.075106,1.029743 1.0751034,1.0297438 0 0 0 1.075103,-1.029743 1.0751034,1.0297438 0 0 0 -1.075103,-1.029745 z M 6.8844152,14.851824 a 1.4334713,1.3729918 0 0 0 -1.4334721,1.372993 1.4334713,1.3729918 0 0 0 1.4334721,1.372991 1.4334713,1.3729918 0 0 0 1.4334696,-1.372991 1.4334713,1.3729918 0 0 0 -1.4334696,-1.372993 z m 33.3282058,0.686497 a 1.0751034,1.0297438 0 0 0 -1.075102,1.029744 1.0751034,1.0297438 0 0 0 1.075102,1.029743 1.0751034,1.0297438 0 0 0 1.075103,-1.029743 1.0751034,1.0297438 0 0 0 -1.075103,-1.029744 z M 14.426938,19.68143 a 1.0751034,1.0297438 0 0 0 -1.075104,1.029745 1.0751034,1.0297438 0 0 0 1.075104,1.029743 1.0751034,1.0297438 0 0 0 1.075102,-1.029743 1.0751034,1.0297438 0 0 0 -1.075102,-1.029745 z m 26.860786,2.721849 a 1.4334713,1.3729918 0 0 0 -1.433469,1.372991 1.4334713,1.3729918 0 0 0 1.433469,1.372994 1.4334713,1.3729918 0 0 0 1.433472,-1.372994 1.4334713,1.3729918 0 0 0 -1.433472,-1.372991 z m -15.051447,4.118974 a 2.1502069,2.0594876 0 0 0 -2.150208,2.05949 2.1502069,2.0594876 0 0 0 2.150208,2.059486 2.1502069,2.0594876 0 0 0 2.150206,-2.059486 2.1502069,2.0594876 0 0 0 -2.150206,-2.05949 z m 9.541544,0.437106 a 1.0751034,1.0297438 0 0 0 -1.075105,1.029743 1.0751034,1.0297438 0 0 0 1.075105,1.029744 1.0751034,1.0297438 0 0 0 1.075102,-1.029744 1.0751034,1.0297438 0 0 0 -1.075102,-1.029743 z M 5.809311,27.895246 A 1.0751034,1.0297438 0 0 0 4.7342073,28.924989 1.0751034,1.0297438 0 0 0 5.809311,29.954733 1.0751034,1.0297438 0 0 0 6.8844152,28.924989 1.0751034,1.0297438 0 0 0 5.809311,27.895246 Z m 3.2253117,0 A 1.4334713,1.3729918 0 0 0 7.601149,29.268238 1.4334713,1.3729918 0 0 0 9.0346227,30.641229 1.4334713,1.3729918 0 0 0 10.468092,29.268238 1.4334713,1.3729918 0 0 0 9.0346227,27.895246 Z m 17.5600213,6.86496 a 1.0751034,1.0297438 0 0 0 -1.075102,1.029742 1.0751034,1.0297438 0 0 0 1.075102,1.029744 1.0751034,1.0297438 0 0 0 1.075104,-1.029744 1.0751034,1.0297438 0 0 0 -1.075104,-1.029742 z m 8.959197,1.372989 a 1.4334713,1.3729918 0 0 0 -1.433473,1.372993 1.4334713,1.3729918 0 0 0 1.433473,1.372994 1.4334713,1.3729918 0 0 0 1.433468,-1.372994 1.4334713,1.3729918 0 0 0 -1.433468,-1.372993 z m -20.426967,1.372993 a 1.0751034,1.0297438 0 0 0 -1.075103,1.029744 1.0751034,1.0297438 0 0 0 1.075103,1.029742 1.0751034,1.0297438 0 0 0 1.075104,-1.029742 1.0751034,1.0297438 0 0 0 -1.075104,-1.029744 z m 6.092254,2.745983 a 1.4334713,1.3729918 0 0 0 -1.433472,1.372993 1.4334713,1.3729918 0 0 0 1.433472,1.37299 1.4334713,1.3729918 0 0 0 1.433471,-1.37299 1.4334713,1.3729918 0 0 0 -1.433471,-1.372993 z"
     id="path68" />
  <path
     style="fill:#695fff;fill-opacity:1;stroke:#000000;stroke-width:0.188313"
     d="m 19.065385,21.635843 -5.058181,-5.870271 0.09081,-1.443971 c 0.05868,-0.933163 -0.02434,-1.666637 -0.234692,-2.073409 l -0.325493,-0.629438 6.981372,-0.789006 c 3.839757,-0.433952 7.325635,-0.842539 7.746396,-0.90797 0.752643,-0.117042 0.765023,-0.104114 0.765023,0.798867 v 0.917836 l -7.120592,0.794896 c -3.916325,0.437193 -7.210114,0.874329 -7.319534,0.971417 -0.109415,0.09709 2.15923,2.915223 5.041443,6.262527 2.882212,3.347302 5.380591,6.252167 5.551954,6.455257 0.266735,0.31612 0.212864,0.442226 -0.374378,0.876394 l -0.685945,0.50714 z"
     id="path1150" />
  <path
     style="fill:#695fff;fill-opacity:1;stroke:#000000;stroke-width:0.188313"
     d="m 28.407825,28.072814 c -0.08578,-0.239997 -0.194612,-0.508933 -0.241833,-0.597635 -0.07246,-0.136122 4.190655,-1.575516 10.221429,-3.451149 l 1.471196,-0.457557 v 0.650968 c 0,0.73642 -0.08074,0.770179 -7.061741,2.952748 -2.006712,0.627387 -3.780081,1.185316 -3.940821,1.239842 -0.16074,0.05452 -0.362443,-0.09721 -0.44823,-0.337217 z"
     id="path1154" />
  <path
     style="fill:#695fff;fill-opacity:1;stroke:#000000;stroke-width:0.188313"
     d="m 26.735549,26.503787 c -0.458253,-0.137825 -0.761117,-0.381616 -0.755282,-0.607969 0.0054,-0.207837 0.728912,-3.270346 1.607898,-6.805578 1.344536,-5.407652 1.646407,-6.369553 1.902211,-6.061327 0.167231,0.201501 0.4533,0.366366 0.63571,0.366366 0.182408,0 0.383533,0.135202 0.446945,0.300448 0.09062,0.236163 -2.864178,12.927479 -3.03034,13.015768 -0.02317,0.01231 -0.386382,-0.08116 -0.807142,-0.207708 z"
     id="path1156" />
  <path
     style="fill:#695fff;fill-opacity:1;stroke:#000000;stroke-width:0.188313"
     d="m 38.668654,21.474692 c -0.693035,-0.883383 -2.444306,-3.097379 -3.891712,-4.919991 -2.585144,-3.255284 -2.624591,-3.323196 -2.232354,-3.843196 0.397222,-0.52661 0.419806,-0.503498 4.354837,4.456865 3.933747,4.958743 3.952992,4.988773 3.492417,5.449346 -0.460573,0.460574 -0.470068,0.454276 -1.723188,-1.143024 z"
     id="path1158" />
  <path
     style="fill:#695fff;fill-opacity:1;stroke:#000000;stroke-width:0.188313"
     d="m 9.1988921,27.827281 c -0.2265648,-0.05921 -0.4119344,-0.224328 -0.4119344,-0.366935 0,-0.142608 0.4901684,-2.789147 1.0892634,-5.881196 0.8800949,-4.542358 1.1549999,-5.596682 1.4315999,-5.490541 0.188285,0.07225 0.474512,0.131366 0.636061,0.131366 0.214154,0 0.04923,1.259403 -0.608785,4.64898 -1.329087,6.846363 -1.3901109,7.123056 -1.5644149,7.093283 -0.08793,-0.01502 -0.345225,-0.07574 -0.57179,-0.134957 z"
     id="path1162" />
  <path
     style="fill:#695fff;fill-opacity:1;stroke:#000000;stroke-width:0.188313"
     d="m 14.878126,36.39844 c -4.516939,-4.192135 -4.816415,-4.521265 -4.579368,-5.032829 0.139499,-0.301048 0.32713,-0.52178 0.416958,-0.490518 0.08983,0.03126 1.9806,1.751661 4.201716,3.823104 2.221116,2.071444 4.466685,4.141361 4.990154,4.599816 l 0.951761,0.833554 -0.57411,0.37617 c -0.57032,0.373689 -0.606002,0.346573 -5.407111,-4.109297 z"
     id="path1164" />
  <path
     style="fill:#695fff;fill-opacity:1;stroke:#000000;stroke-width:0.188313"
     d="m 22.675048,41.306239 c 0,-0.1848 -0.269817,-0.548239 -0.599593,-0.807642 l -0.599592,-0.471639 1.464216,-4.194425 c 0.805319,-2.306933 1.489476,-4.229195 1.520348,-4.271693 0.03088,-0.0425 0.312465,0.06343 0.62576,0.235391 l 0.56963,0.312661 -1.40506,3.949666 c -0.772784,2.172316 -1.358404,3.996321 -1.301381,4.053345 0.05703,0.05703 2.269558,-0.53808 4.916742,-1.322452 6.161485,-1.825677 6.006294,-1.797511 6.182907,-1.122143 0.07784,0.29766 0.100426,0.582297 0.0502,0.632529 -0.07356,0.07356 -11.158606,3.331089 -11.365327,3.339898 -0.03237,0.0013 -0.05885,-0.148694 -0.05885,-0.333496 z"
     id="path1168" />
  <path
     style="fill:#695fff;fill-opacity:1;stroke:#000000;stroke-width:0.188313"
     d="m 36.179819,36.153179 c -0.491391,-0.272687 -0.459379,-0.368431 1.667026,-4.985853 1.979267,-4.297919 2.216332,-4.702262 2.72269,-4.643904 0.305059,0.03516 0.592118,0.101384 0.637909,0.147179 0.09236,0.09236 -4.118706,9.345405 -4.369097,9.600274 -0.08663,0.08818 -0.38297,0.03522 -0.658528,-0.117696 z"
     id="path1170" />
  <path
     style="fill:#695fff;fill-opacity:1;stroke:#000000;stroke-width:0.188313"
     d="m 10.487794,29.530219 c 0.05767,-0.696749 0.186809,-0.715864 7.244034,-1.072216 2.654039,-0.134014 5.169784,-0.287583 5.590546,-0.341263 0.71161,-0.09078 0.765022,-0.04932 0.765022,0.593776 0,0.595722 -0.08955,0.692276 -0.647327,0.697885 -0.35603,0.0036 -3.030663,0.159539 -5.943632,0.346578 -7.323791,0.470249 -7.066846,0.478489 -7.008643,-0.22476 z"
     id="path1172" />
  <path
     style="fill:#695fff;fill-opacity:1;stroke:#000000;stroke-width:0.162712"
     d=""
     id="path2034" />
  <path
     style="fill:#695fff;fill-opacity:1;stroke:#000000;stroke-width:0.162712"
     d="m 24.955932,31.484746 c -0.25873,-0.25873 -0.326,-0.826543 -0.122081,-1.030462 0.09617,-0.09617 0.896679,0.145772 1.267373,0.383038 0.03703,0.0237 -0.03483,0.233982 -0.159698,0.467292 -0.255045,0.476556 -0.622087,0.543638 -0.985594,0.180132 z"
     id="path2861" />
  <path
     style="fill:#695fff;fill-opacity:1;stroke:#000000;stroke-width:0.162712"
     d=""
     id="path2908" />
  <ellipse
     style="fill:#695fff;fill-opacity:1;stroke:none;stroke-width:0.963522"
     id="path5916"
     cx="26.230185"
     cy="28.536343"
     rx="2.2515213"
     ry="2.2393365" />
  <ellipse
     style="fill:#695fff;fill-opacity:1;stroke:none;stroke-width:0.778265"
     id="path5916-3"
     cx="30.98357"
     cy="10.766937"
     rx="1.8186194"
     ry="1.8087772" />
  <ellipse
     style="fill:#86a1ff;fill-opacity:1;stroke:none;stroke-width:0.571375"
     id="path5916-3-3"
     cx="18.410891"
     cy="5.8653398"
     rx="1.3351681"
     ry="1.3279423" />
  <ellipse
     style="fill:#86a1ff;fill-opacity:1;stroke:none;stroke-width:0.463704"
     id="path5916-3-3-6"
     cx="31.892366"
     cy="6.7245517"
     rx="1.0835664"
     ry="1.0777023" />
  <ellipse
     style="fill:#86a1ff;fill-opacity:1;stroke:none;stroke-width:0.463704"
     id="path5916-3-3-7"
     cx="40.522766"
     cy="16.570139"
     rx="1.0835664"
     ry="1.0777023" />
  <ellipse
     style="fill:#86a1ff;fill-opacity:1;stroke:none;stroke-width:0.463704"
     id="path5916-3-3-5"
     cx="26.411987"
     cy="35.924797"
     rx="1.0835664"
     ry="1.0777023" />
  <ellipse
     style="fill:#86a1ff;fill-opacity:1;stroke:none;stroke-width:0.463704"
     id="path5916-3-3-3"
     cx="35.34576"
     cy="28.013163"
     rx="1.0835664"
     ry="1.0777023" />
  <ellipse
     style="fill:#86a1ff;fill-opacity:1;stroke:none;stroke-width:0.463704"
     id="path5916-3-3-56"
     cx="14.973634"
     cy="38.62109"
     rx="1.0835664"
     ry="1.0777023" />
  <ellipse
     style="fill:#86a1ff;fill-opacity:1;stroke:none;stroke-width:0.463704"
     id="path5916-3-3-2"
     cx="6.1365657"
     cy="28.769344"
     rx="1.0835664"
     ry="1.0777023" />
  <ellipse
     style="fill:#86a1ff;fill-opacity:1;stroke:none;stroke-width:0.463704"
     id="path5916-3-3-9"
     cx="14.411629"
     cy="20.514168"
     rx="1.0835664"
     ry="1.0777023" />
  <ellipse
     style="fill:#86a1ff;fill-opacity:1;stroke:none;stroke-width:0.463704"
     id="path5916-3-3-1"
     cx="21.733341"
     cy="14.183598"
     rx="1.0835664"
     ry="1.0777023" />
  <ellipse
     style="fill:#86a1ff;fill-opacity:1;stroke:none;stroke-width:0.65768"
     id="path5916-3-3-27"
     cx="7.0225053"
     cy="16.373663"
     rx="1.5368425"
     ry="1.5285252" />
  <ellipse
     style="fill:#695fff;fill-opacity:1;stroke:none;stroke-width:0.778265"
     id="path5916-3-6"
     cx="12.025621"
     cy="13.288851"
     rx="1.8186194"
     ry="1.8087772" />
  <ellipse
     style="fill:#695fff;fill-opacity:1;stroke:none;stroke-width:0.725528"
     id="path5916-3-7"
     cx="41.775555"
     cy="24.052599"
     rx="1.6953863"
     ry="1.6862111" />
  <ellipse
     style="fill:#695fff;fill-opacity:1;stroke:none;stroke-width:0.676723"
     id="path5916-3-5"
     cx="21.268661"
     cy="41.891792"
     rx="1.5813395"
     ry="1.5727814" />
  <ellipse
     style="fill:#695fff;fill-opacity:1;stroke:none;stroke-width:0.676723"
     id="path5916-3-5-3"
     cx="35.912594"
     cy="38.037464"
     rx="1.5813395"
     ry="1.5727814" />
  <ellipse
     style="fill:#695fff;fill-opacity:1;stroke:none;stroke-width:0.676723"
     id="path5916-3-5-5"
     cx="8.6881866"
     cy="29.727264"
     rx="1.5813395"
     ry="1.5727814" />
</svg>
