<?xml version="1.0" encoding="UTF-8" standalone="no"?>
<svg
   viewBox="0 0 24 24"
   width="24"
   height="24"
   version="1.1"
   id="svg6"
   sodipodi:docname="file_ocaml_interface.svg"
   inkscape:version="1.2.2 (b0a8486541, 2022-12-01)"
   xmlns:inkscape="http://www.inkscape.org/namespaces/inkscape"
   xmlns:sodipodi="http://sodipodi.sourceforge.net/DTD/sodipodi-0.dtd"
   xmlns="http://www.w3.org/2000/svg"
   xmlns:svg="http://www.w3.org/2000/svg">
  <defs
     id="defs10" />
  <sodipodi:namedview
     id="namedview8"
     pagecolor="#ffffff"
     bordercolor="#000000"
     borderopacity="0.25"
     inkscape:showpageshadow="2"
     inkscape:pageopacity="0.0"
     inkscape:pagecheckerboard="0"
     inkscape:deskcolor="#d1d1d1"
     showgrid="false"
     inkscape:zoom="22.627417"
     inkscape:cx="31.643028"
     inkscape:cy="15.534252"
     inkscape:window-width="1920"
     inkscape:window-height="1034"
     inkscape:window-x="0"
     inkscape:window-y="20"
     inkscape:window-maximized="1"
     inkscape:current-layer="svg6" />
  <path
     d="m12.019 15.021.003-.008c-.005-.021-.006-.026-.003.008"
     id="path2" />
  <path
     fill="#ff9800"
     d="M4.51 3.273a2.523 2.523 0 0 0-2.524 2.523V11.3c.361-.13.88-.898 1.043-1.085.285-.327.337-.743.478-1.006C3.83 8.612 3.886 8.2 4.62 8.2c.342 0 .478.08.71.39.16.216.438.615.568.882.15.307.396.724.503.808q.122.095.233.137c.119.044.218-.037.297-.1.102-.082.145-.247.24-.467.135-.317.283-.697.367-.83.146-.23.195-.501.352-.633.232-.195.535-.208.618-.225.466-.092.677.225.907.43.15.133.355.403.5.765.114.283.26.544.32.707.059.158.203.41.289.713.077.275.286.486.365.616 0 0 .121.34.858.65.16.067.482.176.674.246.32.116.63.101 1.025.054.281 0 .434-.408.562-.734.075-.193.148-.745.197-.902.048-.153-.064-.27.031-.405.112-.156.178-.164.242-.368.138-.436.936-.458 1.384-.458.374 0 .327.363.96.239.364-.072.714.046 1.1.149.324.086.63.184.812.398.119.139.412.834.113.863.029.035.05.099.104.134-.067.262-.357.075-.518.041-.217-.045-.37.007-.583.101-.363.162-.894.143-1.21.407-.27.223-.269.721-.394 1 0 0-.348.895-1.106 1.443-.194.14-.574.477-1.4.605a5.3 5.3 0 0 1-1.1.043c-.186-.009-.362-.018-.549-.02-.11-.002-.48-.013-.461.022l-.041.103.024.138c.015.083.019.149.022.225.006.157-.013.32-.005.478.017.328.138.627.154.958.017.368.199.758.375 1.059.067.114.169.128.213.269.052.161.003.333.028.505.1.668.292 1.366.592 1.97l.008.014c.371-.062.743-.196 1.226-.267.885-.132 2.115-.064 2.906-.138 2-.188 3.085.82 4.882.407V5.796a2.523 2.523 0 0 0-2.523-2.523zm-.907 11.144q-.022 0-.046.003c-.159.025-.313.08-.412.24-.08.13-.108.355-.164.505-.064.175-.176.338-.274.505-.18.305-.504.581-.644.879-.028.06-.053.13-.076.2v3.402c.163.028.333.062.524.113 1.407.375 1.75.407 3.13.25l.13-.018c.105-.22.187-.968.255-1.2.054-.178.127-.32.155-.5.026-.173-.003-.337-.017-.493-.04-.393.285-.533.44-.87.14-.304.22-.651.336-.963.11-.298.284-.721.579-.872-.036-.041-.617-.06-.772-.076a5 5 0 0 1-.5-.07c-.314-.064-.656-.126-.965-.2a10 10 0 0 1-.947-.328c-.298-.138-.503-.497-.732-.507m5.737.83c-.74.149-.97.876-1.32 1.451-.192.319-.396.59-.548.928-.14.312-.128.657-.368.924a2.55 2.55 0 0 0-.528.922c-.023.067-.088.776-.158.943l1.101-.078c1.026.07.73.464 2.332.378l2.529-.078a7 7 0 0 0-.228-.588c-.07-.147-.16-.434-.218-.56a3.5 3.5 0 0 0-.309-.526c-.184-.215-.227-.23-.28-.503-.095-.473-.344-1.33-.637-1.923-.151-.306-.403-.562-.634-.784-.2-.195-.655-.522-.734-.505z"
     id="path4" />
  <path
     style="fill:#2c89a0;stroke-width:0.015625"
     d="m 20.820312,20.715942 c -0.339212,-0.02913 -0.694807,-0.09483 -1.367187,-0.252614 -1.096686,-0.25735 -1.6051,-0.307501 -2.398438,-0.236595 -0.09453,0.0084 -0.607812,0.02581 -1.140625,0.03858 -1.445236,0.03463 -1.606822,0.05141 -2.429687,0.252334 -0.193359,0.04721 -0.383608,0.08975 -0.422775,0.09451 l -0.07121,0.0087 -0.05617,-0.122914 c -0.21068,-0.461031 -0.3505,-0.897516 -0.467152,-1.458347 -0.0548,-0.263479 -0.06506,-0.3447 -0.075,-0.594255 -0.01326,-0.332559 -0.01724,-0.345053 -0.156784,-0.492187 -0.139068,-0.146631 -0.335247,-0.556138 -0.413623,-0.863405 -0.01259,-0.04935 -0.03363,-0.188158 -0.04676,-0.30847 -0.01313,-0.120313 -0.04945,-0.338281 -0.08071,-0.484375 -0.0547,-0.255655 -0.05732,-0.28234 -0.06959,-0.710938 -0.007,-0.244921 -0.01952,-0.475852 -0.02778,-0.513179 -0.01151,-0.05198 -0.0095,-0.08195 0.0086,-0.128036 0.02255,-0.05742 0.02765,-0.06068 0.111451,-0.07128 0.0483,-0.0061 0.316331,-0.0029 0.595628,0.0072 0.669037,0.02408 0.938169,0.02277 1.210929,-0.0059 0.502231,-0.05274 0.900431,-0.173824 1.257538,-0.382386 0.17643,-0.103041 0.524231,-0.372039 0.677725,-0.52417 0.241228,-0.239087 0.476706,-0.559623 0.64813,-0.882246 0.115444,-0.217266 0.164298,-0.350569 0.243488,-0.664371 0.117784,-0.466742 0.203855,-0.599822 0.47166,-0.72927 0.119289,-0.05766 0.199304,-0.08022 0.724905,-0.20435 0.09023,-0.02131 0.244922,-0.0706 0.34375,-0.109519 0.31103,-0.122502 0.408444,-0.128583 0.677775,-0.04231 0.183833,0.05889 0.277833,0.06126 0.330748,0.0083 0.03707,-0.03707 0.05127,-0.09419 0.02607,-0.104877 -0.01327,-0.0056 -0.08147,-0.09888 -0.08147,-0.111395 0,-0.0042 0.01745,-0.01199 0.03878,-0.01735 0.101602,-0.0255 0.111441,-0.218698 0.02437,-0.478577 C 18.810408,10.344259 18.69833,10.192742 18.499615,10.081661 18.359167,10.003165 18.229494,9.9565817 17.881127,9.8594928 17.322047,9.7036789 17.126031,9.6764583 16.854996,9.716995 16.526445,9.7661337 16.388255,9.7458386 16.207214,9.6218586 16.012123,9.4882573 15.995818,9.4839194 15.703125,9.487743 c -0.304715,0.00398 -0.50139,0.025193 -0.69955,0.075449 -0.296235,0.075129 -0.445184,0.1864057 -0.526317,0.3932017 -0.02799,0.071334 -0.07797,0.1538043 -0.137171,0.2263513 -0.136926,0.167781 -0.140481,0.177349 -0.128372,0.345516 0.0077,0.106397 0.0041,0.167909 -0.01364,0.237364 -0.01319,0.05156 -0.04251,0.195703 -0.06517,0.320312 -0.06202,0.341121 -0.106878,0.50435 -0.195346,0.710875 -0.139834,0.326437 -0.237216,0.463009 -0.370567,0.519697 -0.0975,0.04145 -0.461188,0.07387 -0.69713,0.06216 -0.221513,-0.011 -0.339722,-0.04178 -0.786115,-0.204693 -0.403288,-0.147181 -0.682429,-0.281616 -0.862118,-0.415196 -0.131432,-0.09771 -0.285545,-0.255906 -0.325406,-0.334033 -0.01396,-0.02736 -0.07444,-0.116542 -0.134407,-0.198183 C 10.628614,11.045206 10.575185,10.941673 10.499761,10.71875 10.438736,10.538387 10.303207,10.221255 10.085759,9.75 10.014382,9.5953125 9.9246822,9.397355 9.8864256,9.3100945 9.7372426,8.9698194 9.6090051,8.7879022 9.3273558,8.517 9.0269933,8.2280989 8.8930811,8.1555525 8.6640625,8.157663 8.3839333,8.1602447 8.0778634,8.2491112 7.9194511,8.3738591 7.8335394,8.4415134 7.8252212,8.4552722 7.6194006,8.8701587 7.5029717,9.1048526 7.3264144,9.492552 7.2270512,9.7317128 7.0093645,10.255671 7.0192169,10.236119 6.9326741,10.315891 6.7654148,10.470066 6.6522903,10.468496 6.4332575,10.30896 6.3145875,10.222526 6.1662451,9.9955009 5.9007672,9.4940311 5.7598387,9.227827 5.6436769,9.0415591 5.4367687,8.75 5.0934606,8.2662367 4.9842155,8.1993769 4.56259,8.2149895 4.3055448,8.2245076 4.1861819,8.2580561 4.0483484,8.3595233 3.9959552,8.3980931 3.9212102,8.472953 3.8822486,8.5258786 3.7777828,8.6677853 3.4700475,9.2926948 3.375614,9.5546875 3.2437899,9.9204153 3.1835408,10.028505 2.9357903,10.34375 c -0.334451,0.425565 -0.4124264,0.517963 -0.5752483,0.681644 -0.1307048,0.131394 -0.3230798,0.279293 -0.3632819,0.279293 -0.00758,0 -0.011361,-1.285582 -0.00861,-2.9257808 L 1.9935676,5.453125 2.0271761,5.3007567 C 2.156931,4.7124975 2.461337,4.2100111 2.9140625,3.8367632 3.2094138,3.5932619 3.5883334,3.4113802 3.9975223,3.3167018 L 4.1484375,3.281783 11.9375,3.2774173 c 7.749353,-0.00434 7.790011,-0.0042 7.975052,0.027152 0.490567,0.08313 0.955223,0.316722 1.316895,0.6620307 0.37813,0.3610223 0.626351,0.8067335 0.74388,1.3357248 l 0.0335,0.1508006 0.0045,7.5881256 0.0045,7.588126 -0.175907,0.03261 c -0.09675,0.01794 -0.248723,0.03981 -0.33772,0.04859 -0.149875,0.0148 -0.536611,0.01784 -0.681938,0.0054 z"
     id="path647" />
  <path
     style="fill:#2c89a0;stroke-width:0.015625"
     d="M 8.9296875,20.703688 C 8.7271381,20.675519 8.5989751,20.639793 8.3515625,20.542534 8.0862741,20.438248 7.9745609,20.405115 7.7831061,20.373933 c -0.1945614,-0.03169 -0.2764147,-0.03069 -0.8541113,0.01041 -0.2703061,0.01923 -0.4948563,0.03157 -0.4990006,0.02743 -0.00414,-0.0041 0.00605,-0.07763 0.022661,-0.163304 0.016608,-0.08567 0.04825,-0.290833 0.070316,-0.45591 0.044216,-0.330784 0.073421,-0.43122 0.1986534,-0.683176 0.093485,-0.188083 0.2087491,-0.362851 0.3503739,-0.53125 0.1342442,-0.159623 0.1912357,-0.282051 0.2800338,-0.601563 0.09026,-0.32477 0.1969354,-0.545688 0.4745962,-0.982854 0.1113623,-0.175336 0.2568165,-0.417914 0.3232316,-0.539063 0.3163235,-0.57701 0.4692665,-0.798465 0.66116,-0.95733 0.1215561,-0.100634 0.3483411,-0.217172 0.4722657,-0.242684 l 0.087973,-0.01811 0.1151517,0.06592 c 0.3924809,0.224664 0.9359435,0.744132 1.1544445,1.103475 0.08326,0.136923 0.219731,0.445025 0.333756,0.75348 0.14017,0.379182 0.251176,0.763669 0.384797,1.332796 0.04292,0.182811 0.06498,0.226239 0.192024,0.377968 0.189434,0.226247 0.362508,0.53145 0.472359,0.83297 0.03131,0.08594 0.104937,0.272266 0.163617,0.414062 0.117593,0.284158 0.198876,0.509995 0.187278,0.520333 -0.01268,0.0113 -2.7239624,0.09008 -3.0231238,0.08784 -0.1546875,-0.0012 -0.3445313,-0.01091 -0.421875,-0.02167 z"
     id="path649" />
  <path
     style="fill:#2c89a0;stroke-width:0.015625"
     d="M 3.96875,20.584976 C 3.6382595,20.544276 3.2691832,20.465767 2.5859375,20.290826 2.3882812,20.240217 2.1719805,20.190012 2.1052693,20.17926 l -0.1212933,-0.01955 0.00411,-1.736106 0.00411,-1.736105 0.064269,-0.132813 c 0.066559,-0.137543 0.1307815,-0.226889 0.4172397,-0.580458 0.1648856,-0.203515 0.3921992,-0.558579 0.4692946,-0.73304 0.02113,-0.04781 0.060891,-0.170861 0.088358,-0.273437 0.027467,-0.102576 0.067197,-0.223162 0.088289,-0.267969 0.070725,-0.150251 0.2431613,-0.260956 0.4383608,-0.281428 0.1152145,-0.01208 0.2089044,0.03857 0.4107511,0.222087 0.090234,0.08204 0.2022631,0.174879 0.2489527,0.206311 0.1018126,0.06854 0.3317514,0.161097 0.7119848,0.286586 0.3359097,0.110861 0.4690661,0.144142 0.9921875,0.247986 0.5151416,0.10226 0.6414372,0.12027 1.046875,0.149291 0.1847656,0.01323 0.3755062,0.02838 0.4238683,0.03367 0.09067,0.0099 0.1464798,0.0332 0.1128486,0.04706 -0.04671,0.01925 -0.166495,0.126343 -0.2223294,0.198776 -0.1661367,0.215529 -0.2604,0.427612 -0.4699808,1.05741 -0.086266,0.259233 -0.1849278,0.525167 -0.2192473,0.590963 -0.03432,0.0658 -0.1232357,0.196974 -0.1975908,0.291505 -0.2211728,0.281187 -0.2436702,0.358487 -0.21041,0.722964 0.021995,0.24103 0.0067,0.354231 -0.083897,0.620786 -0.089763,0.264113 -0.090128,0.265649 -0.1647948,0.695312 -0.068462,0.393956 -0.1159755,0.608257 -0.1493628,0.673678 -0.023814,0.04666 -0.00997,0.04396 -0.4811027,0.09405 -0.3368889,0.03582 -1.1388642,0.05271 -1.3380014,0.02819 z"
     id="path651" />
</svg>
