<?xml version="1.0" encoding="UTF-8" standalone="no"?>
<svg
   version="1.1"
   id="Layer_1"
   x="0px"
   y="0px"
   width="128"
   viewBox="0 0 128 128"
   enable-background="new 0 0 114 116"
   xml:space="preserve"
   sodipodi:docname="file_dune.svg"
   height="128"
   inkscape:version="1.2.2 (b0a8486541, 2022-12-01)"
   xmlns:inkscape="http://www.inkscape.org/namespaces/inkscape"
   xmlns:sodipodi="http://sodipodi.sourceforge.net/DTD/sodipodi-0.dtd"
   xmlns="http://www.w3.org/2000/svg"
   xmlns:svg="http://www.w3.org/2000/svg"><defs
   id="defs43" /><sodipodi:namedview
   id="namedview41"
   pagecolor="#ffffff"
   bordercolor="#000000"
   borderopacity="0.25"
   inkscape:showpageshadow="2"
   inkscape:pageopacity="0.0"
   inkscape:pagecheckerboard="0"
   inkscape:deskcolor="#d1d1d1"
   showgrid="false"
   inkscape:zoom="2.8771931"
   inkscape:cx="114.69512"
   inkscape:cy="77.506094"
   inkscape:window-width="1920"
   inkscape:window-height="1154"
   inkscape:window-x="0"
   inkscape:window-y="20"
   inkscape:window-maximized="1"
   inkscape:current-layer="Layer_1" />

<path
   fill="#b0a788"
   opacity="1"
   stroke="none"
   d="m 11.53506,48.87228 c 0,-0.421067 0,-0.842137 0.343199,-1.651419 6.114855,-2.549644 11.886514,-4.711073 18.031239,-6.883317 2.977242,-1.437968 5.616468,-2.806438 8.164122,-4.328211 0.759491,-0.453665 1.131899,-1.665467 1.903287,-1.97179 6.583513,-2.614336 13.170487,-5.24225 19.882536,-7.489426 1.167905,-0.391015 3.728791,0.5749 4.268233,1.623213 1.794999,3.488266 3.8632,2.697024 5.259216,0.352492 2.929187,-4.9194 7.15166,-7.743891 12.774658,-9.161504 5.47614,3.015997 10.876296,5.582729 15.708936,8.961258 2.301554,1.609044 3.523164,4.762875 4.836684,7.250565 -9.492728,1.265576 -15.772979,9.609705 -25.269203,9.904591 -0.640786,0.01989 -1.242615,0.905004 -1.884276,1.356866 -2.180962,1.535863 -4.189663,3.481149 -6.589641,4.513104 -11.364124,4.886429 -22.920702,9.33131 -34.225782,14.345912 -4.200168,1.863069 -8.161928,4.527245 -11.756472,7.417928 -3.598744,2.894053 -6.971602,4.765398 -11.446736,2.28705 0,-1.624028 0,-3.248057 0.397177,-5.277669 5.821222,0.625182 10.649259,0.286266 13.955465,-5.147224 0.650675,-1.069334 2.79591,-1.219122 4.242344,-1.81607 7.56303,-3.121302 15.167365,-6.148943 22.657441,-9.43673 2.299069,-1.009178 4.539867,-2.599951 3.3523,-5.854863 -1.269735,-3.480136 -4.092004,-2.873293 -6.750968,-2.452244 -1.07128,0.169636 -2.087001,1.007513 -3.122602,0.997228 -1.06926,-0.01062 -2.872331,-0.451874 -3.07508,-1.103054 -1.152583,-3.701806 -3.824733,-3.274149 -6.508909,-2.680813 -3.999225,0.884039 -7.957333,1.954167 -11.932732,2.945929 -4.404931,1.09892 -8.809635,2.198758 -13.214436,3.298198 z"
   id="path4"
   style="stroke-width:0.947403" />
<path
   fill="#aca486"
   opacity="1"
   stroke="none"
   d="m 11.53506,113.29577 c 0,-7.91483 0,-15.829686 0.312816,-24.269873 1.393888,-1.38918 2.480518,-2.24616 3.554987,-3.118124 3.140571,-2.54867 5.908342,-5.955911 9.481885,-7.498133 11.393515,-4.917043 22.260556,-10.616902 32.442395,-18.159196 5.536215,0.944959 1.750569,2.996399 0.63965,4.139161 -3.812469,3.921709 -7.762797,7.662847 -5.640303,13.907566 -0.01397,-0.03245 0.05014,-0.0028 -0.289245,0.05525 -4.025441,1.332316 -6.391472,3.353545 -7.935683,7.43553 -1.588778,4.19979 -5.199784,7.634578 -8.168458,11.272548 -0.974265,0.03184 -1.772829,0.05901 -2.427192,0.380075 -5.561465,2.728706 -11.048611,5.613666 -16.657913,8.238326 -3.336567,1.56122 -3.900403,3.77103 -2.637871,7.00317 -1.07188,0.30084 -1.873474,0.45727 -2.675068,0.6137 z"
   id="path6"
   style="stroke-width:0.947403" />
<path
   fill="#ada486"
   opacity="1"
   stroke="none"
   d="m 11.53506,49.316213 c 4.404801,-1.543373 8.809505,-2.643211 13.214436,-3.742131 3.975399,-0.991762 7.933507,-2.06189 11.932732,-2.945929 2.684176,-0.593336 5.356326,-1.020993 6.508909,2.680813 0.202749,0.65118 2.00582,1.092437 3.07508,1.103054 1.035601,0.01025 2.051322,-0.827592 3.122602,-0.997228 2.658964,-0.421049 5.481233,-1.027892 6.750968,2.452244 1.187567,3.254912 -1.053231,4.845685 -3.3523,5.854863 -7.490076,3.287787 -15.094411,6.315428 -22.657441,9.43673 -1.446434,0.596948 -3.591669,0.746736 -4.242344,1.81607 -3.306206,5.43349 -8.134243,5.772406 -13.955465,4.741055 C 11.53506,63.063494 11.53506,56.411818 11.53506,49.316213 Z"
   id="path8"
   style="stroke-width:0.947403" />
<path
   fill="#b2ab8c"
   opacity="1"
   stroke="none"
   d="m 57.010769,60.241442 c -9.865465,7.551296 -20.732506,13.251155 -32.126021,18.168198 -3.573543,1.542222 -6.341314,4.949463 -9.481885,7.498133 -1.074469,0.871964 -2.161099,1.728944 -3.554987,2.67413 C 11.53506,84.5355 11.53506,80.40776 11.53506,75.839799 c 4.475134,2.038141 7.847992,0.166796 11.446736,-2.727257 3.594544,-2.890683 7.556304,-5.554859 11.756472,-7.417928 11.30508,-5.014602 22.861658,-9.459483 34.225782,-14.345912 2.399978,-1.031955 4.408679,-2.977241 6.589641,-4.513104 0.641661,-0.451862 1.24349,-1.336967 1.884276,-1.356866 9.496224,-0.294886 15.776475,-8.639015 25.273483,-9.582787 0.39209,0.715668 0.3826,1.143146 0.14622,1.816165 -1.22839,1.324108 -2.22986,2.402674 -3.554721,3.572409 -8.910724,5.13479 -17.498056,10.178416 -26.43522,15.076324 -6.161417,-1.278362 -11.442383,-0.367305 -15.85696,3.880599 z"
   id="path10"
   style="stroke-width:0.947403" />
<path
   fill="#7f401c"
   opacity="1"
   stroke="none"
   d="m 11.53506,113.69051 c 0.801594,-0.55117 1.603188,-0.7076 3.071022,-0.97274 5.809935,-1.0816 11.436788,-0.86134 15.292635,-5.9357 1.888575,-0.70279 3.751586,-1.00326 4.905482,-2.07045 7.97122,-7.372259 14.520126,-15.747754 17.572429,-26.417231 0,0 -0.0641,-0.02965 0.225361,-0.153258 1.671647,-1.911549 3.053826,-3.699512 4.398537,-5.136981 -0.975603,2.824359 -2.155843,5.235868 -2.811784,7.782422 -3.683789,14.301577 -11.903346,25.322418 -23.972194,33.613228 -1.765831,1.21306 -3.601942,2.32382 -5.405533,3.48191 -4.13172,0.0517 -8.26344,0.10323 -12.835557,0.15294 -0.440398,-1.3177 -0.440398,-2.63354 -0.440398,-4.34414 z"
   id="path12"
   style="stroke-width:0.947403" />

<path
   fill="#b7af94"
   opacity="1"
   stroke="none"
   d="m 29.536432,40.348361 c -5.771659,2.161427 -11.543318,4.322856 -17.658173,6.5567 -0.343199,-1.551779 -0.343199,-3.175968 -0.343199,-5.206085 3.134288,-1.373714 6.295969,-2.262066 9.395374,-3.330994 3.286011,-1.133282 6.512853,-2.438121 10.122941,-3.263523 -0.267375,2.017643 -0.892158,3.630772 -1.516943,5.243902 z"
   id="path16"
   style="stroke-width:0.947403" />


<path
   fill="#8a421e"
   opacity="1"
   stroke="none"
   d="m 116.56535,98.068823 c 0.0427,5.331187 -0.0397,10.667417 0.17585,15.991617 0.12664,3.12811 -1.12484,4.05897 -4.12665,4.02333 -11.60567,-0.13785 -23.213584,-0.0858 -35.273714,-0.50343 -1.570409,-1.94743 -2.383343,-3.93564 -3.863357,-4.96 -4.106909,-2.84249 -7.036288,-6.30725 -7.597544,-11.38436 -0.877201,-7.935107 -0.453956,-15.697651 3.009145,-23.104651 4.481619,-9.585454 11.104555,-17.428487 19.365176,-23.89697 3.510472,-2.748879 7.440942,-3.023186 11.494539,-0.828989 5.971175,3.232161 8.617755,8.880834 11.155885,14.717747 1.3694,3.14924 3.16382,6.11368 4.78804,9.60609 0.30524,7.076271 0.58895,13.707939 0.87263,20.339616 z"
   id="path22"
   style="stroke-width:0.947403" />
<path
   fill="#85411d"
   opacity="1"
   stroke="none"
   d="m 115.67118,77.284613 c -1.60268,-3.047816 -3.3971,-6.012256 -4.7665,-9.161496 -2.53813,-5.836913 -5.18471,-11.485586 -11.155885,-14.717747 -4.053597,-2.194197 -7.984067,-1.91989 -11.494539,0.828989 -8.260621,6.468483 -14.883557,14.311516 -19.365176,23.89697 -3.463101,7.407 -3.886346,15.169544 -3.009145,23.104651 0.561256,5.07711 3.490635,8.54187 7.597544,11.38436 1.480014,1.02436 2.292948,3.01257 3.422464,4.90778 -17.061213,0.38384 -34.134585,0.4208 -51.648444,0.40568 1.363107,-1.21018 3.199218,-2.32094 4.965049,-3.534 12.068848,-8.29081 20.288405,-19.311651 23.972194,-33.613228 0.655941,-2.546554 1.836181,-4.958063 2.862432,-8.111893 5.447537,-5.842689 10.806957,-11.005405 16.166382,-16.168121 8.587337,-5.043623 17.174669,-10.087249 26.088921,-14.840857 1.217003,2.375774 1.844843,4.628754 3.047653,6.515119 3.26631,5.122557 6.77483,10.090732 10.19041,15.118008 1.03183,1.518682 2.07377,3.030494 3.12568,4.973831 0.0105,3.289576 0.006,6.150761 9.6e-4,9.011954 z"
   id="path24"
   style="stroke-width:0.947403" />
<path
   fill="#b76f2a"
   opacity="1"
   stroke="none"
   d="m 103.08457,37.466567 c 0.0105,-0.427476 0.019,-0.854954 0.0243,-1.604235 -1.71509,-2.775881 -2.93669,-5.929712 -5.238248,-7.538756 -4.832641,-3.378529 -10.232798,-5.945261 -15.863814,-9.222099 -0.758085,-1.326116 -1.052327,-2.275388 -1.346576,-3.22466 3.478618,-0.227012 7.223624,-1.391503 10.382686,-0.493882 7.528815,2.139246 14.784362,5.243167 22.141172,7.981908 1.12373,0.418333 2.19892,0.966993 3.47845,1.536307 0,4.863428 0,9.707289 -0.27736,15.009337 -0.27738,0.458185 -0.71258,0.500034 -1.09321,0.476075 -4.32285,-0.989299 -8.26505,-1.954647 -12.20727,-2.919995 z"
   id="path26"
   style="stroke-width:0.947403" />
<path
   fill="#b4ad92"
   opacity="1"
   stroke="none"
   d="m 80.318271,15.937746 c 0.636075,0.888343 0.930316,1.837615 1.379444,3.047728 -5.159163,1.794457 -9.381636,4.618948 -12.310823,9.538348 -1.396016,2.344532 -3.464217,3.135774 -5.259216,-0.352492 -0.539442,-1.048313 -3.100328,-2.014228 -4.268233,-1.623213 -6.712049,2.247176 -13.299023,4.87509 -19.882536,7.489426 -0.771388,0.306323 -1.143796,1.518125 -1.903287,1.97179 -2.547654,1.521773 -5.18688,2.890243 -8.164122,4.328211 0.251719,-1.602313 0.876502,-3.215442 1.508754,-5.163692 14.776964,-6.072484 29.54628,-11.810322 44.316251,-17.546463 1.411875,-0.548322 2.827862,-1.08606 4.583768,-1.689643 z"
   id="path28"
   style="stroke-width:0.947403" />
<path
   fill="#a56324"
   opacity="1"
   stroke="none"
   d="m 115.67246,40.410521 c 0,0 0.43521,-0.04184 0.65293,-0.06144 0.25472,18.935216 0.2917,37.890017 0.28432,57.282272 -0.32804,-6.194217 -0.61175,-12.825885 -0.91698,-19.902157 -0.0169,-3.305787 -0.0124,-6.166972 0.003,-9.902204 -6.4e-4,-9.721522 -0.0117,-18.569 -0.0228,-27.416481 z"
   id="path30"
   style="stroke-width:0.947403" />
<path
   fill="#b0a889"
   opacity="1"
   stroke="none"
   d="m 52.037245,78.352422 c -2.71292,10.611444 -9.261826,18.986939 -17.233046,26.359198 -1.153896,1.06719 -3.016907,1.36766 -4.774743,1.76446 1.900085,-3.26699 4.023143,-6.27551 6.146199,-9.284013 2.726123,-3.769537 6.337129,-7.204324 7.925907,-11.404115 1.544211,-4.081985 3.910242,-6.103214 7.935683,-7.43553 z"
   id="path32"
   style="stroke-width:0.947403" />
<path
   fill="#b0a889"
   opacity="1"
   stroke="none"
   d="m 72.867729,56.360843 c -5.009598,5.308431 -10.369018,10.471147 -15.779088,15.963343 -1.432826,2.117433 -2.815005,3.905396 -4.472684,5.849385 -2.411961,-6.121119 1.538367,-9.862257 5.350836,-13.783966 1.110919,-1.142762 4.896565,-3.194202 -0.63965,-4.139161 4.098203,-4.256906 9.379169,-5.167963 15.540586,-3.889601 z"
   id="path34"
   style="stroke-width:0.947403" />
<path
   fill="#a49f82"
   opacity="1"
   stroke="none"
   d="m 35.933104,97.0605 c -1.880505,3.14007 -4.003563,6.14859 -6.257359,9.46311 -3.632875,5.33282 -9.259728,5.11256 -14.799375,6.04976 -1.928774,-3.12344 -1.364938,-5.33325 1.971629,-6.89447 5.609302,-2.62465 11.096448,-5.50962 16.657913,-8.238325 0.654363,-0.321064 1.452927,-0.348235 2.427192,-0.380075 z"
   id="path36"
   style="stroke-width:0.947403" />
<path
   fill="#825021"
   opacity="1"
   stroke="none"
   d="m 115.29183,40.386562 c 0.39174,8.87144 0.40282,17.718918 0.38884,27.01206 -1.06236,-1.0693 -2.1043,-2.581112 -3.13613,-4.099794 -3.41558,-5.027276 -6.9241,-9.995451 -10.19041,-15.118008 -1.20281,-1.886365 -1.83065,-4.139345 -2.724261,-6.606287 0.997941,-1.459749 1.999411,-2.538315 3.227801,-3.862423 4.16912,0.719805 8.11132,1.685153 12.43416,2.674452 z"
   id="path38"
   style="stroke-width:0.947403" />
</svg>
