<?xml version="1.0" encoding="UTF-8" standalone="no"?>
<!-- Uploaded to: SVG Repo, www.svgrepo.com, Generator: SVG Repo Mixer Tools -->

<svg
   fill="#000000"
   width="800px"
   height="800px"
   viewBox="0 0 256 256"
   id="Flat"
   version="1.1"
   sodipodi:docname="file_dotted.svg"
   inkscape:version="1.2.2 (b0a8486541, 2022-12-01)"
   xmlns:inkscape="http://www.inkscape.org/namespaces/inkscape"
   xmlns:sodipodi="http://sodipodi.sourceforge.net/DTD/sodipodi-0.dtd"
   xmlns="http://www.w3.org/2000/svg"
   xmlns:svg="http://www.w3.org/2000/svg">
  <defs
     id="defs9">
    <linearGradient
       id="linearGradient4694"
       inkscape:swatch="solid">
      <stop
         style="stop-color:#000000;stop-opacity:1;"
         offset="0"
         id="stop4692" />
    </linearGradient>
  </defs>
  <sodipodi:namedview
     id="namedview7"
     pagecolor="#ffffff"
     bordercolor="#000000"
     borderopacity="0.25"
     inkscape:showpageshadow="2"
     inkscape:pageopacity="0.0"
     inkscape:pagecheckerboard="0"
     inkscape:deskcolor="#d1d1d1"
     showgrid="false"
     inkscape:zoom="0.295"
     inkscape:cx="338.98305"
     inkscape:cy="400"
     inkscape:window-width="1920"
     inkscape:window-height="1154"
     inkscape:window-x="0"
     inkscape:window-y="20"
     inkscape:window-maximized="1"
     inkscape:current-layer="Flat" />
  <path
     d="m 81.802863,228.57508 a 7.5295433,8.1537903 0 0 1 -7.529176,8.1534 H 59.207984 A 15.075603,16.325467 0 0 1 44.149631,220.4217 v -32.61358 a 7.5291768,8.1533935 0 0 1 15.058353,0 v 32.61358 h 15.065703 a 7.5295433,8.1537903 0 0 1 7.529176,8.15338 z m 0,-203.834807 H 59.207984 A 15.075603,16.325467 0 0 0 44.149631,41.047055 v 24.460179 a 7.5291768,8.1533935 0 0 0 15.058353,0 V 41.047055 h 22.594879 a 7.5291761,8.1533929 0 0 0 0,-16.306782 z M 209.79886,90.129887 v 48.757883 a 7.52918,8.1533971 0 0 1 -15.05836,0 V 98.12081 h -45.17505 a 7.5295433,8.1537903 0 0 1 -7.52917,-8.153397 V 41.047055 h -22.58754 a 7.5291761,8.1533929 0 0 1 0,-16.306782 h 30.11671 a 7.5178165,8.1410915 0 0 1 0.75181,0.0411 c 0.17968,0.01929 0.35522,0.05311 0.53081,0.08568 0.0661,0.01241 0.13373,0.01861 0.19992,0.03305 0.21275,0.04604 0.42092,0.105561 0.6268,0.170626 0.028,0.0087 0.057,0.01444 0.085,0.02375 0.20818,0.06853 0.41036,0.149603 0.61029,0.236632 0.0272,0.01182 0.0556,0.02055 0.0823,0.03266 0.18658,0.08394 0.36719,0.179718 0.54549,0.279056 0.0405,0.02229 0.0823,0.04052 0.12224,0.06368 0.15992,0.09285 0.31294,0.196805 0.46552,0.301571 0.0555,0.03799 0.1135,0.07114 0.16819,0.110659 0.13602,0.09909 0.26516,0.208514 0.3952,0.316749 0.0652,0.05428 0.13374,0.103138 0.19715,0.159868 0.13373,0.118878 0.25872,0.24802 0.38418,0.376407 0.0521,0.05341 0.10846,0.101092 0.15946,0.156194 l 52.63431,56.998569 a 7.5007536,8.1226138 0 0 1 2.2821,5.840881 c 0,0.05486 -0.007,0.108032 -0.008,0.162484 z m -52.70424,-8.31587 h 26.99823 L 157.09462,52.577703 Z m 45.17506,89.687323 a 7.5295433,8.1537903 0 0 0 -7.52918,8.15339 v 40.76697 h -7.52916 a 7.5291761,8.1533929 0 0 0 0,16.30678 h 7.52916 a 15.075603,16.325467 0 0 0 15.05836,-16.30678 v -40.76697 a 7.5295433,8.1537903 0 0 0 -7.52918,-8.15339 z M 51.686158,155.19455 a 7.5295433,8.1537903 0 0 0 7.529176,-8.1534 V 106.2742 a 7.5291765,8.1533932 0 0 0 -15.058352,0 v 40.76695 a 7.5295433,8.1537903 0 0 0 7.529176,8.1534 z m 97.879292,65.22715 h -37.64588 a 7.5291761,8.1533929 0 0 0 0,16.30678 h 37.64588 a 7.5291761,8.1533929 0 0 0 0,-16.30678 z"
     id="path4"
     style="fill:#999999;stroke-width:0.979387" />
  <path
     style="fill:#c8beb7;fill-opacity:0;stroke-width:3.38983"
     d="m 637.81352,444.64834 c -4.84842,-5.35746 -5.61013,-15.94322 -5.61013,-77.96611 v -71.76698 h -81.51002 -81.51001 l -8.3205,-8.32049 -8.32049,-8.32049 v -83.20493 -83.20493 h -36.78229 c -41.85327,0 -55.54822,-3.4952 -61.05555,-15.582471 -5.66871,-12.441453 -4.8009,-17.680178 4.46342,-26.944497 8.19805,-8.198045 9.19059,-8.320493 67.44521,-8.320493 h 59.12472 l 95.07751,97.808821 c 52.29264,53.79485 96.00466,101.50284 97.13783,106.01775 1.13317,4.51492 1.59964,45.00501 1.0366,89.97799 -0.93677,74.82412 -1.57218,82.37449 -7.4813,88.89751 -8.11933,8.96281 -25.979,9.45539 -33.695,0.92932 z M 590.96045,240.94405 c -1.3351,-3.69092 -87.15298,-91.79151 -89.41316,-91.79151 -0.85101,0 -1.54729,21.35593 -1.54729,47.45763 v 47.45763 h 46.0452 c 26.63961,0 45.56899,-1.31649 44.91525,-3.12375 z"
     id="path2623"
     transform="scale(0.32)" />
  <path
     style="fill:#c8beb7;fill-opacity:0;stroke-width:3.38983"
     d="m 637.81352,444.64834 c -4.84842,-5.35746 -5.61013,-15.94322 -5.61013,-77.96611 v -71.76698 h -81.51002 -81.51001 l -8.3205,-8.32049 -8.32049,-8.32049 v -83.20493 -83.20493 h -36.78229 c -41.85327,0 -55.54822,-3.4952 -61.05555,-15.582471 -5.66871,-12.441453 -4.8009,-17.680178 4.46342,-26.944497 8.19805,-8.198045 9.19059,-8.320493 67.44521,-8.320493 h 59.12472 l 95.07751,97.808821 c 52.29264,53.79485 96.00466,101.50284 97.13783,106.01775 1.13317,4.51492 1.59964,45.00501 1.0366,89.97799 -0.93677,74.82412 -1.57218,82.37449 -7.4813,88.89751 -8.11933,8.96281 -25.979,9.45539 -33.695,0.92932 z M 590.96045,240.94405 c -1.3351,-3.69092 -87.15298,-91.79151 -89.41316,-91.79151 -0.85101,0 -1.54729,21.35593 -1.54729,47.45763 v 47.45763 h 46.0452 c 26.63961,0 45.56899,-1.31649 44.91525,-3.12375 z"
     id="path2625"
     transform="scale(0.32)" />
  <path
     style="fill:#c8beb7;fill-opacity:0;stroke-width:3.38983"
     d="m 503.40552,195.76271 0.0157,-44.91525 10.67985,11.8644 c 5.87391,6.52543 25.28738,26.73729 43.14105,44.91526 l 32.46121,33.05085 h -43.15674 -43.15674 z"
     id="path2627"
     transform="scale(0.32)" />
  <path
     style="fill:#c8beb7;fill-opacity:0;stroke-width:3.38983"
     d="m 503.40552,195.76271 0.0157,-44.91525 10.67985,11.8644 c 5.87391,6.52543 25.28738,26.73729 43.14105,44.91526 l 32.46121,33.05085 h -43.15674 -43.15674 z"
     id="path2629"
     transform="scale(0.32)" />
  <path
     style="fill:none;fill-opacity:0;stroke-width:3.38983"
     d="m 503.40552,195.76271 0.0157,-44.91525 10.67985,11.8644 c 5.87391,6.52543 25.28738,26.73729 43.14105,44.91526 l 32.46121,33.05085 h -43.15674 -43.15674 z"
     id="path2631"
     transform="scale(0.32)" />
  <path
     style="fill:none;fill-opacity:0;stroke-width:3.38983"
     d="m 503.40552,195.76271 0.0157,-44.91525 10.67985,11.8644 c 5.87391,6.52543 25.28738,26.73729 43.14105,44.91526 l 32.46121,33.05085 h -43.15674 -43.15674 z"
     id="path2702"
     transform="scale(0.32)" />
  <path
     style="fill:none;fill-opacity:0;stroke-width:3.38983"
     d="m 503.40552,195.76271 0.0157,-44.91525 10.67985,11.8644 c 5.87391,6.52543 25.28738,26.73729 43.14105,44.91526 l 32.46121,33.05085 h -43.15674 -43.15674 z"
     id="path2704"
     transform="scale(0.32)" />
  <path
     style="fill:none;fill-opacity:0;stroke-width:3.38983"
     d="m 503.40552,195.76271 0.0157,-44.91525 10.67985,11.8644 c 5.87391,6.52543 25.28738,26.73729 43.14105,44.91526 l 32.46121,33.05085 h -43.15674 -43.15674 z"
     id="path2706"
     transform="scale(0.32)" />
  <path
     style="fill:none;fill-opacity:0;stroke-width:3.38983"
     d="m 503.40552,195.76271 0.0157,-44.91525 10.67985,11.8644 c 5.87391,6.52543 25.28738,26.73729 43.14105,44.91526 l 32.46121,33.05085 h -43.15674 -43.15674 z"
     id="path2708"
     transform="scale(0.32)" />
  <path
     style="fill:none;fill-opacity:0;stroke-width:3.38983"
     d="m 503.40552,195.76271 0.0157,-44.91525 10.67985,11.8644 c 5.87391,6.52543 25.28738,26.73729 43.14105,44.91526 l 32.46121,33.05085 h -43.15674 -43.15674 z"
     id="path2710"
     transform="scale(0.32)" />
  <path
     style="fill:none;fill-opacity:0;stroke-width:3.38983"
     d="m 503.40552,195.76271 0.0157,-44.91525 10.67985,11.8644 c 5.87391,6.52543 25.28738,26.73729 43.14105,44.91526 l 32.46121,33.05085 h -43.15674 -43.15674 z"
     id="path4698"
     transform="scale(0.32)" />
  <path
     style="fill:none;fill-opacity:1;stroke-width:3.38983"
     d="m 503.40552,195.76271 0.0157,-44.91525 10.67985,11.8644 c 5.87391,6.52543 25.28738,26.73729 43.14105,44.91526 l 32.46121,33.05085 h -43.15674 -43.15674 z"
     id="path4700"
     transform="scale(0.32)" />
</svg>
