<?xml version="1.0" encoding="UTF-8" standalone="no"?>
<svg
   version="1.1"
   id="Layer_1"
   x="0px"
   y="0px"
   width="100%"
   viewBox="0 0 200 200"
   enable-background="new 0 0 200 200"
   xml:space="preserve"
   sodipodi:docname="flycheck.svg"
   inkscape:version="1.2.2 (b0a8486541, 2022-12-01)"
   xmlns:inkscape="http://www.inkscape.org/namespaces/inkscape"
   xmlns:sodipodi="http://sodipodi.sourceforge.net/DTD/sodipodi-0.dtd"
   xmlns="http://www.w3.org/2000/svg"
   xmlns:svg="http://www.w3.org/2000/svg"><defs
   id="defs19" /><sodipodi:namedview
   id="namedview17"
   pagecolor="#ffffff"
   bordercolor="#000000"
   borderopacity="0.25"
   inkscape:showpageshadow="2"
   inkscape:pageopacity="0.0"
   inkscape:pagecheckerboard="0"
   inkscape:deskcolor="#d1d1d1"
   showgrid="false"
   inkscape:zoom="1.06375"
   inkscape:cx="184.25382"
   inkscape:cy="166.86251"
   inkscape:window-width="1920"
   inkscape:window-height="1034"
   inkscape:window-x="0"
   inkscape:window-y="20"
   inkscape:window-maximized="1"
   inkscape:current-layer="Layer_1" />

<path
   fill="#0C0C0C"
   opacity="1"
   stroke="none"
   d="m 120.91457,118.4961 c -4.51905,-15.10047 -8.83107,-29.617517 -13.20147,-44.331169 10.27696,-1.734447 10.80392,-1.161585 13.81732,10.979126 2.38988,9.628622 5.05745,19.140213 7.60175,28.703753 0.58648,-0.008 1.17296,-0.0176 1.75944,-0.0265 2.63751,-9.72795 5.49326,-19.36692 7.85613,-29.206861 2.82093,-11.747521 2.6381,-11.822058 13.25607,-10.736517 -4.7733,17.317114 -9.51091,34.454368 -14.21628,51.606638 -1.39683,5.09188 -2.37682,10.42282 -4.11174,15.30388 -5.19171,14.60631 -12.87546,18.39055 -25.48436,12.35386 0.43184,-3.41055 0.88696,-7.0049 1.30162,-10.27973 0.87444,-0.43216 1.2941,-0.86431 1.62983,-0.77293 11.0647,3.01141 14.70212,-2.06098 11.43212,-15.94412 -0.54813,-2.3272 -0.95906,-4.70923 -1.64043,-7.64935 z"
   id="path4"
   style="fill:#cd87de;stroke-width:1.42812" />
<path
   fill="#0A0A0A"
   opacity="1"
   stroke="none"
   d="m 33.66254,57.086171 c 0.868133,-2.432547 1.599897,-4.284293 2.670869,-5.700474 0.412758,-0.545812 1.59651,-0.10744 2.428983,-0.107537 11.386335,-0.0013 22.772668,-8.7e-4 34.373313,-8.7e-4 0,4.220487 0,7.611721 0,11.704612 -9.796367,0 -19.274529,0 -28.930162,0 0,7.604296 0,14.499338 0,21.949532 7.536067,0 14.750103,0 22.370827,0 0,3.920891 0,7.295024 0,11.53644 -7.319593,0 -14.677227,0 -22.55174,0 0,12.106636 0,23.374296 0,35.146416 -3.55886,0 -6.591034,0 -10.363068,0 0,-24.61169 0,-49.192575 9.78e-4,-74.528119 z"
   id="path6"
   style="fill:#cd87de;stroke-width:1.42812" />
<path
   fill="#0E0E0E"
   opacity="1"
   stroke="none"
   d="m 184.37887,93.803549 c -5.07595,-8.713862 -9.23252,-10.827556 -14.33399,-7.799772 -6.73309,3.996175 -9.71311,11.88827 -8.34634,22.103983 1.02991,7.69777 6.32365,14.45783 12.62889,13.98681 5.41092,-0.40426 10.72481,-3.01421 16.54936,-4.79144 4.33222,5.63882 4.56515,8.65404 -0.21057,12.22203 -9.26246,6.9201 -26.28753,6.81054 -33.89572,-5.52111 -6.21277,-10.0699 -6.13558,-21.17115 -3.52443,-32.29873 2.42796,-10.346786 8.68374,-16.890069 16.82488,-18.073332 4.60953,-0.669963 9.50434,1.992764 13.66998,3.008045 3.37141,-0.889177 6.58674,-1.737197 10.31225,-2.719755 0,9.937366 0,18.500464 0,27.542112 -2.86248,0 -5.45501,0 -8.37637,0 -0.38065,-2.41576 -0.74602,-4.734525 -1.29794,-7.658841 z"
   id="path8"
   style="fill:#cd87de;stroke-width:1.42812" />
<path
   fill="#040404"
   opacity="1"
   stroke="none"
   d="m 87.545023,63.151165 c -3.024826,-0.178231 -5.484218,-0.178231 -8.243139,-0.178231 0,-3.972594 0,-7.359512 0,-11.17865 6.193224,0 12.324814,0 19.094186,0 0,22.846347 0,45.503777 0,68.438676 3.47596,0.244 6.3343,0.44467 9.54096,0.66976 0,3.70938 0,7.09393 0,10.86485 -9.4521,0 -18.764945,0 -28.518347,0 0,-3.35068 0,-6.70921 0,-10.739 2.856078,-0.27496 5.865025,-0.56463 8.691783,-0.83675 0,-19.1538 0,-38.008098 -0.565443,-57.040655 z"
   id="path10"
   style="fill:#cd87de;stroke-width:1.42812" />
<path
   fill="#ff0c0c"
   opacity="1"
   stroke="none"
   d="M 4.9167833,48.615303 C 10.492798,47.970711 15.517718,47.970711 21.344849,47.970711 20.325467,69.443872 19.335709,90.293075 18.3272,111.53721 c -3.86605,0 -7.118505,0 -11.0798377,0 C 6.2761871,90.548625 5.3209395,69.904266 4.9167833,48.615303 Z"
   id="path12"
   style="stroke-width:1.75743" />
<path
   fill="#ff1616"
   opacity="1"
   stroke="none"
   d="m 18.71304,132.41101 c -2.67577,9.23778 -7.69142,2.50981 -11.7707334,4.62855 0,-5.40782 0,-9.89239 0,-14.92964 3.7953874,0 7.4017434,0 11.7725524,0 0,3.27559 0,6.4337 -0.0018,10.30109 z"
   id="path14"
   style="stroke-width:1.42812" />
</svg>
