<?xml version="1.0" encoding="UTF-8" standalone="no"?>
<!-- Uploaded to: SVG Repo, www.svgrepo.com, Generator: SVG Repo Mixer Tools -->

<svg
   width="200"
   height="200"
   viewBox="0 0 4 4"
   fill="#000000"
   class="bi bi-spellcheck"
   version="1.1"
   id="svg6"
   sodipodi:docname="spell-check.svg"
   inkscape:version="1.2.2 (b0a8486541, 2022-12-01)"
   xmlns:inkscape="http://www.inkscape.org/namespaces/inkscape"
   xmlns:sodipodi="http://sodipodi.sourceforge.net/DTD/sodipodi-0.dtd"
   xmlns="http://www.w3.org/2000/svg"
   xmlns:svg="http://www.w3.org/2000/svg">
  <defs
     id="defs10" />
  <sodipodi:namedview
     id="namedview8"
     pagecolor="#ffffff"
     bordercolor="#000000"
     borderopacity="0.25"
     inkscape:showpageshadow="2"
     inkscape:pageopacity="0.0"
     inkscape:pagecheckerboard="0"
     inkscape:deskcolor="#d1d1d1"
     showgrid="false"
     inkscape:zoom="0.75218484"
     inkscape:cx="260.57425"
     inkscape:cy="185.45973"
     inkscape:window-width="1920"
     inkscape:window-height="1034"
     inkscape:window-x="0"
     inkscape:window-y="20"
     inkscape:window-maximized="1"
     inkscape:current-layer="svg6" />
  <path
     d="m 2.0790137,2.4501552 c 0.2857628,0 0.4577845,-0.2042171 0.4577845,-0.5428555 V 1.7423281 c 0,-0.3384034 -0.1708467,-0.5416804 -0.4533195,-0.5416804 -0.1743718,0 -0.3120831,0.081546 -0.3522685,0.2089171 H 1.716405 V 0.78516353 H 1.413252 V 2.434175 H 1.711705 V 2.2482882 h 0.01504 C 1.776096,2.3733094 1.9091068,2.4503901 2.0790136,2.4503901 Z M 1.9779627,2.2092777 c -0.1551015,0 -0.2615577,-0.1217311 -0.2615577,-0.3008029 V 1.7573682 c 0,-0.1938769 0.098701,-0.3156081 0.2580326,-0.3156081 0.1607416,0 0.2526276,0.1217312 0.2526276,0.3327633 v 0.105751 c 0,0.2086822 -0.090711,0.3292383 -0.2491025,0.3292383 z M 0.66594457,2.4525051 c 0.18024684,0 0.28223781,-0.083661 0.33041333,-0.1731966 H 1.0102237 V 2.434175 H 1.2959863 V 1.6161318 c 0,-0.3087931 -0.2225472,-0.4190091 -0.49585499,-0.4190091 -0.33370336,0 -0.47587977,0.1607415 -0.48997992,0.3604935 H 0.5959142 C 0.6109544,1.4817102 0.66947,1.4278949 0.79331621,1.4278949 c 0.12384618,0 0.20304199,0.058515 0.20304199,0.1811869 v 0.109041 H 0.69931496 c -0.28223785,0 -0.43381436,0.1445265 -0.43381436,0.3626086 0,0.2295973 0.16285663,0.3717737 0.40044397,0.3717737 z m 0.098701,-0.2225472 c -0.103401,0 -0.19857695,-0.055225 -0.19857695,-0.1687316 0,-0.092827 0.0632156,-0.1607417 0.19740198,-0.1607417 h 0.2328873 v 0.1264313 c 0,0.1182062 -0.10434099,0.203042 -0.23171233,0.203042 z M 2.8554614,2.3632043 C 2.7198651,2.2692033 2.6439593,2.1075217 2.6439593,1.8971946 V 1.7444431 c 0,-0.3337033 0.2100921,-0.5494354 0.5416804,-0.5494354 0.3177232,0 0.49797,0.1927019 0.50267,0.4244142 H 3.4093619 c -0.0094,-0.082486 -0.066505,-0.1823618 -0.2157321,-0.1823618 -0.1583917,0 -0.2455774,0.1214962 -0.2455774,0.3120831 v 0.1468764 c 0,0.1099811 0.028435,0.1959919 0.080606,0.2507475 l -0.173197,0.2162021 z"
     id="path2"
     style="stroke-width:0.235003;fill:#c8ab37" />
  <path
     d="m 3.5369872,2.0614612 a 0.20622228,0.17625176 0 0 1 0.03217,0.2479276 L 2.4693056,3.4844004 A 0.20622228,0.17625176 0 0 1 2.1624468,3.4987358 L 1.4750395,2.9112297 A 0.20622228,0.17625176 0 1 1 1.7665003,2.6621273 L 2.2911298,3.1102767 3.2469013,2.0889566 a 0.20622228,0.17625176 0 0 1 0.2900859,-0.027495 z"
     id="path4"
     style="stroke-width:0.2542;fill:#44aa00" />
</svg>
