<?xml version="1.0" encoding="UTF-8" standalone="no"?>
<svg
   width="16"
   height="16"
   viewBox="0 0 16 16"
   fill="none"
   version="1.1"
   id="svg4"
   sodipodi:docname="lightbulb-small.svg"
   inkscape:version="1.2.2 (b0a8486541, 2022-12-01)"
   xmlns:inkscape="http://www.inkscape.org/namespaces/inkscape"
   xmlns:sodipodi="http://sodipodi.sourceforge.net/DTD/sodipodi-0.dtd"
   xmlns="http://www.w3.org/2000/svg"
   xmlns:svg="http://www.w3.org/2000/svg">
  <defs
     id="defs8" />
  <sodipodi:namedview
     id="namedview6"
     pagecolor="#ffffff"
     bordercolor="#000000"
     borderopacity="0.25"
     inkscape:showpageshadow="2"
     inkscape:pageopacity="0.0"
     inkscape:pagecheckerboard="0"
     inkscape:deskcolor="#d1d1d1"
     showgrid="false"
     inkscape:zoom="18.804621"
     inkscape:cx="4.6265224"
     inkscape:cy="18.745392"
     inkscape:window-width="1920"
     inkscape:window-height="1034"
     inkscape:window-x="0"
     inkscape:window-y="20"
     inkscape:window-maximized="1"
     inkscape:current-layer="svg4" />
  <path
     fill-rule="evenodd"
     clip-rule="evenodd"
     d="M 10.601651,8.6800229 C 10.327987,8.9494206 10.117792,9.2492195 9.9700188,9.579518 9.8262012,9.9086353 9.7539291,10.2662 9.7539291,10.653086 v 1.292548 c 0,0.144981 -0.027295,0.281966 -0.082447,0.410228 -0.054588,0.126806 -0.129444,0.238026 -0.2246493,0.332929 -0.095205,0.0949 -0.2067706,0.169455 -0.3338806,0.223812 -0.1285312,0.05484 -0.2658077,0.08207 -0.4110219,0.08207 H 7.4049265 c -0.1452062,0 -0.2824827,-0.02723 -0.4110137,-0.08207 C 6.8667945,12.858248 6.7552694,12.783696 6.6600482,12.688791 6.5648191,12.593888 6.4899381,12.482668 6.4353991,12.355862 6.3802458,12.2276 6.3529196,12.090615 6.3529196,11.945634 v -1.292548 c 0,-0.386805 -0.073928,-0.7442089 -0.2210473,-1.0732706 C 5.9875708,9.2496877 5.7788218,8.9493882 5.5052459,8.6800229 5.1541007,8.3334989 4.8830039,7.9466145 4.6929567,7.5195958 4.5023443,7.091301 4.4074135,6.627403 4.4074135,6.1289037 c 0,-0.3334879 0.043137,-0.6554502 0.129589,-0.9656442 C 4.6232444,4.8538488 4.7458162,4.5646709 4.9047985,4.295968 5.0635709,4.0242523 5.2534971,3.7781808 5.474504,3.5579233 5.6954142,3.3377627 5.9405334,3.1485204 6.2097327,2.9903016 6.4825415,2.8319939 6.7745931,2.7096772 7.0849349,2.6237629 7.396052,2.5376387 7.7189586,2.4946694 8.0534285,2.4946694 c 0.3344702,0 0.6573849,0.042969 0.9685019,0.1290935 0.3103176,0.085914 0.6003748,0.2080292 0.8699207,0.3664337 0.2726149,0.1582026 0.5194709,0.347461 0.7404869,0.5677267 0.221014,0.2202496 0.410941,0.466321 0.569695,0.7380285 0.158999,0.2687111 0.281579,0.5578891 0.36782,0.8673077 0.08649,0.310194 0.129606,0.6321563 0.129606,0.9656442 0,0.4984993 -0.09496,0.9623973 -0.285535,1.3906921 -0.190087,0.4270187 -0.461168,0.8139031 -0.812273,1.1604271 z M 8.9469209,10.167743 H 7.1599444 v 1.777891 c 0,0.06549 0.023039,0.121154 0.072846,0.170827 0.049823,0.04959 0.1059372,0.07278 0.1721367,0.07278 h 1.2970044 c 0.066207,0 0.1223215,-0.02318 0.1721366,-0.07278 0.049816,-0.04967 0.072853,-0.105323 0.072853,-0.170827 z"
     fill="#ffcc00"
     id="path2"
     style="stroke-width:0.8076" />
</svg>
