<?xml version="1.0" encoding="UTF-8" standalone="no"?>
<svg
   width="16"
   height="16"
   viewBox="0 0 16 16"
   fill="none"
   version="1.1"
   id="svg6"
   sodipodi:docname="lightbulb-autofix.svg"
   inkscape:version="1.2.2 (b0a8486541, 2022-12-01)"
   xmlns:inkscape="http://www.inkscape.org/namespaces/inkscape"
   xmlns:sodipodi="http://sodipodi.sourceforge.net/DTD/sodipodi-0.dtd"
   xmlns="http://www.w3.org/2000/svg"
   xmlns:svg="http://www.w3.org/2000/svg">
  <defs
     id="defs10" />
  <sodipodi:namedview
     id="namedview8"
     pagecolor="#ffffff"
     bordercolor="#000000"
     borderopacity="0.25"
     inkscape:showpageshadow="2"
     inkscape:pageopacity="0.0"
     inkscape:pagecheckerboard="0"
     inkscape:deskcolor="#d1d1d1"
     showgrid="false"
     inkscape:zoom="37.609242"
     inkscape:cx="5.8230368"
     inkscape:cy="8.57502"
     inkscape:window-width="1920"
     inkscape:window-height="1034"
     inkscape:window-x="0"
     inkscape:window-y="20"
     inkscape:window-maximized="1"
     inkscape:current-layer="svg6" />
  <path
     d="m 11.15714,8.9285675 c -0.550922,0 -1.089585,0.1634006 -1.54765,0.4695051 -0.4581395,0.3060929 -0.8151272,0.7411654 -1.0259695,1.2501154 -0.2108506,0.509042 -0.2660728,1.069249 -0.1585813,1.609584 0.1074916,0.540428 0.3728112,1.036749 0.7624039,1.426286 0.3895539,0.389627 0.8858749,0.65492 1.4263039,0.762449 0.540335,0.107434 1.100542,0.05228 1.609584,-0.158599 0.509043,-0.21088 0.944079,-0.567823 1.250135,-1.025979 0.306057,-0.458065 0.469486,-0.996728 0.469486,-1.547649 0,-0.738772 -0.293429,-1.447364 -0.815842,-1.9698145 -0.522507,-0.5224229 -1.231006,-0.815898 -1.96987,-0.815898 z m 1.216521,4.6428535 -1.216521,-0.92857 -1.207143,0.92857 0.464286,-1.420712 -1.1142873,-0.770714 h 1.3650013 l 0.492143,-1.5228565 0.50152,1.5228565 h 1.355621 l -1.114192,0.770714 z"
     fill="#75beff"
     id="path2"
     style="stroke-width:0.928571" />
  <path
     fill-rule="evenodd"
     clip-rule="evenodd"
     d="M 10.387168,8.0786837 C 9.1614623,8.3334556 8.1642337,9.1856331 7.7093175,10.321423 H 5.9651919 v 2.043971 c 0,0.07531 0.026492,0.139285 0.083767,0.196392 0.057293,0.05702 0.1218192,0.08367 0.1979435,0.08367 h 1.3119035 c 0.08243,0.323607 0.2069414,0.629664 0.3674542,0.912135 -0.061258,0.0093 -0.1239086,0.01384 -0.1879056,0.01384 H 6.2469018 c -0.1669757,0 -0.3248327,-0.0313 -0.4726334,-0.09435 C 5.6280927,13.414586 5.4998479,13.328879 5.3903508,13.219772 5.2808444,13.110664 5.194738,12.982801 5.1320224,12.837014 5.0686009,12.689558 5.0371781,12.532072 5.0371781,12.365394 v -1.485992 c 0,-0.444693 -0.085011,-0.855586 -0.254187,-1.2338935 C 4.6170554,9.2659728 4.3770106,8.9207304 4.06242,8.6110519 3.6586309,8.2126672 3.3468911,7.7678818 3.128352,7.2769555 2.9091627,6.7845622 2.8,6.2512376 2.8,5.6781328 2.8,5.2947351 2.849604,4.9245882 2.9490171,4.5679705 3.0481884,4.2122536 3.1891362,3.8797973 3.3719533,3.5708803 3.5545289,3.2584998 3.7729288,2.9756013 4.0270693,2.7223801 4.2810984,2.4692703 4.5629662,2.251706 4.8725239,2.0698083 5.1862323,1.8878084 5.5220686,1.7471856 5.878937,1.6484135 6.2366968,1.5494 6.6080138,1.5 6.9926278,1.5 c 0.3846141,0 0.7559403,0.0494 1.1137001,0.1484135 0.3568683,0.098772 0.6904107,0.2391627 1.0003676,0.4212741 0.3134585,0.1818792 0.5973225,0.3994619 0.8514727,0.6526925 0.2541498,0.253212 0.4725498,0.5361104 0.6551068,0.8484817 0.182835,0.3089263 0.323792,0.6413825 0.422965,0.9971087 0.09945,0.3566177 0.149035,0.7267646 0.149035,1.1101623 0,0.5731048 -0.1092,1.1064294 -0.328343,1.5988227 -0.125821,0.2825456 -0.282472,0.549807 -0.469764,0.8017282 z"
     fill="#75beff"
     id="path4"
     style="stroke-width:0.928571" />
</svg>
