<?xml version="1.0" encoding="UTF-8" standalone="no"?>
<svg
   width="16"
   height="16"
   viewBox="0 0 16 16"
   fill="none"
   version="1.1"
   id="svg4"
   sodipodi:docname="lightbulb.svg"
   inkscape:version="1.2.2 (b0a8486541, 2022-12-01)"
   xmlns:inkscape="http://www.inkscape.org/namespaces/inkscape"
   xmlns:sodipodi="http://sodipodi.sourceforge.net/DTD/sodipodi-0.dtd"
   xmlns="http://www.w3.org/2000/svg"
   xmlns:svg="http://www.w3.org/2000/svg">
  <defs
     id="defs8" />
  <sodipodi:namedview
     id="namedview6"
     pagecolor="#ffffff"
     bordercolor="#000000"
     borderopacity="0.25"
     inkscape:showpageshadow="2"
     inkscape:pageopacity="0.0"
     inkscape:pagecheckerboard="0"
     inkscape:deskcolor="#d1d1d1"
     showgrid="false"
     inkscape:zoom="26.59375"
     inkscape:cx="4.4747356"
     inkscape:cy="4.7943596"
     inkscape:window-width="1920"
     inkscape:window-height="1034"
     inkscape:window-x="0"
     inkscape:window-y="20"
     inkscape:window-maximized="1"
     inkscape:current-layer="svg4" />
  <path
     fill-rule="evenodd"
     clip-rule="evenodd"
     d="m 10.817164,9.2532952 c -0.31283,0.307883 -0.553107,0.6505107 -0.72203,1.0279938 -0.1644004,0.376135 -0.2470164,0.784782 -0.2470164,1.226936 v 1.4772 c 0,0.165692 -0.0312,0.322246 -0.09425,0.46883 -0.0624,0.144924 -0.1479691,0.272031 -0.2567998,0.380493 -0.1088268,0.108461 -0.2363591,0.193661 -0.3816607,0.255784 -0.1469261,0.06268 -0.3038492,0.09379 -0.4698461,0.09379 H 7.1629333 c -0.1659877,0 -0.3229108,-0.03111 -0.4698369,-0.09379 -0.1453108,-0.06212 -0.272797,-0.147323 -0.3816462,-0.255784 -0.1088584,-0.108462 -0.1944554,-0.235569 -0.2568,-0.380493 -0.063046,-0.146584 -0.094283,-0.303138 -0.094283,-0.46883 v -1.4772 c 0,-0.442062 -0.084508,-0.850524 -0.252683,-1.226594 C 5.5427302,9.9043413 5.3041056,9.5611413 4.9913764,9.2532952 4.5899764,8.8572675 4.280081,8.4151136 4.0628348,7.9270921 3.8449425,7.4376121 3.7364256,6.9074429 3.7364256,6.337729 c 0,-0.3811292 0.049311,-0.7490861 0.1481354,-1.1035938 C 3.9831456,4.8805229 4.1232594,4.5500336 4.3049948,4.2429444 4.4864902,3.9324121 4.7035979,3.6511875 4.9562348,3.3994644 5.208761,3.1478521 5.488961,2.9315752 5.7966871,2.7507536 6.1085394,2.5698305 6.4423887,2.4300398 6.7971456,2.3318521 7.1527887,2.2334244 7.5219087,2.1843167 7.9042471,2.1843167 c 0.3823385,0 0.7514677,0.049108 1.1071108,0.1475354 0.3547292,0.098188 0.6862985,0.2377477 0.9944221,0.4187815 0.311631,0.1808031 0.593815,0.3970985 0.846461,0.6488308 0.252647,0.2517138 0.469754,0.5329385 0.651231,0.8434615 0.181754,0.3070985 0.321877,0.6375877 0.420462,0.9912093 0.09886,0.3545077 0.148154,0.7224646 0.148154,1.1035938 0,0.5697139 -0.108554,1.0998831 -0.3264,1.5893631 -0.217293,0.4880215 -0.52717,0.9301754 -0.928524,1.3262031 z M 8.9256133,10.953548 H 6.8828902 v 2.031877 c 0,0.07486 0.026335,0.138461 0.083271,0.19523 0.056954,0.05668 0.1210984,0.08317 0.1967723,0.08317 h 1.4826277 c 0.075683,0 0.1398277,-0.02649 0.1967723,-0.08317 0.056945,-0.05677 0.08328,-0.120369 0.08328,-0.19523 z"
     fill="#ffcc00"
     id="path2"
     style="stroke-width:0.923077" />
</svg>
