<?xml version="1.0" encoding="UTF-8" standalone="no"?>
<svg
   width="16"
   height="16"
   viewBox="0 0 16 16"
   fill="none"
   version="1.1"
   id="svg4"
   sodipodi:docname="wrench.svg"
   inkscape:version="1.2.2 (b0a8486541, 2022-12-01)"
   xmlns:inkscape="http://www.inkscape.org/namespaces/inkscape"
   xmlns:sodipodi="http://sodipodi.sourceforge.net/DTD/sodipodi-0.dtd"
   xmlns="http://www.w3.org/2000/svg"
   xmlns:svg="http://www.w3.org/2000/svg">
  <defs
     id="defs8" />
  <sodipodi:namedview
     id="namedview6"
     pagecolor="#ffffff"
     bordercolor="#000000"
     borderopacity="0.25"
     inkscape:showpageshadow="2"
     inkscape:pageopacity="0.0"
     inkscape:pagecheckerboard="0"
     inkscape:deskcolor="#d1d1d1"
     showgrid="false"
     inkscape:zoom="53.1875"
     inkscape:cx="6.9565217"
     inkscape:cy="8.0188014"
     inkscape:window-width="1920"
     inkscape:window-height="1034"
     inkscape:window-x="0"
     inkscape:window-y="20"
     inkscape:window-maximized="1"
     inkscape:current-layer="svg4" />
  <path
     d="M 4.0393128,13.304142 C 3.8619712,13.301663 3.6869663,13.263345 3.5248389,13.191444 3.362704,13.119543 3.2168052,13.01556 3.0959178,12.885807 2.8606945,12.671531 2.7148107,12.376562 2.6873274,12.05958 2.6561288,11.731929 2.7511445,11.404729 2.9529791,11.144773 3.8594168,10.188793 5.6471904,8.4010269 6.9475827,7.1278324 6.6708865,6.3795777 6.6838168,5.5549288 6.9838414,4.81572 7.2305524,4.2006668 7.6692857,3.6817226 8.2347292,3.3361303 8.6783161,3.0423567 9.1881694,2.863828 9.7181431,2.8167127 10.248124,2.7695989 10.781411,2.8553757 11.26992,3.0662937 l 0.463639,0.2008129 -2.1531329,2.2172808 0.9426809,0.9454912 2.211736,-2.1615103 0.200828,0.4650746 c 0.169273,0.392099 0.259055,0.8139126 0.264089,1.240978 0.005,0.4270578 -0.07476,0.8508699 -0.234787,1.2468457 C 12.806294,7.6128095 12.570605,7.9684769 12.27188,8.2671567 12.102608,8.4328003 11.915529,8.5791875 11.714025,8.7036436 11.297117,8.9820603 10.820104,9.1575762 10.322204,9.2157584 9.8242295,9.2739406 9.3195753,9.2131288 8.8497073,9.0383267 8.024848,9.8750418 5.9658403,11.948009 4.8537137,12.986184 4.6306243,13.188815 4.3406598,13.302038 4.0393128,13.304142 Z M 10.002968,3.5013832 C 9.5087502,3.5001435 9.0253433,3.6457569 8.6140332,3.9197408 8.4536338,4.0176753 8.3046621,4.1332058 8.1698828,4.2641834 7.8114355,4.6255158 7.5720424,5.0878031 7.4838074,5.5890538 7.3955723,6.0903045 7.4627103,6.606559 7.6762204,7.0685683 L 7.7780243,7.2916878 7.6030118,7.4625155 c -1.3059746,1.2745919 -3.2074004,3.1704575 -4.121509,4.1354535 -0.08139,0.121188 -0.1162067,0.267696 -0.098002,0.412475 0.018197,0.144855 0.088175,0.278214 0.1970111,0.375435 0.06272,0.06987 0.1391445,0.126146 0.2245245,0.165215 0.075252,0.03403 0.1565901,0.05252 0.2391602,0.0544 0.1254028,-0.0032 0.2454638,-0.05147 0.3381692,-0.135914 1.1818565,-1.103093 3.4653812,-3.4096378 4.135446,-4.0873736 L 8.6900367,8.2085838 8.9117663,8.3096889 c 0.3859907,0.1799337 0.8119366,0.2569665 1.2365077,0.2236079 0.424571,-0.033351 0.833289,-0.1759591 1.186484,-0.4139623 0.160708,-0.099077 0.309695,-0.2160271 0.444106,-0.3486275 0.232759,-0.2320978 0.416682,-0.5084259 0.541025,-0.8127105 0.124269,-0.3042771 0.186403,-0.6303575 0.182796,-0.95903 0,-0.1620297 -0.01608,-0.3236687 -0.04816,-0.4825053 L 10.518224,7.4060387 8.6014861,5.4920583 10.491026,3.5467028 c -0.160782,-0.031255 -0.32427,-0.046439 -0.488058,-0.04532 z"
     fill="#c5c5c5"
     id="path2"
     style="stroke-width:0.75132" />
</svg>
